<?xml version="1.0" encoding="utf-8"?><svg xmlns="http://www.w3.org/2000/svg" xmlns:xlink="http://www.w3.org/1999/xlink"><symbol viewBox="0 0 9.24 5.06" id="ico-arrow" xmlns="http://www.w3.org/2000/svg"><path d="M8.89 2.611h0l-3.882 3.89-3.89-3.89a.418.418 0 0 0-.592.591l4.179 4.179A.41.41 0 0 0 5 7.503c.102 0 .214-.04.296-.122l4.177-4.178a.411.411 0 0 0 .009-.592.418.418 0 0 0-.591 0z" stroke="#fff" stroke-width=".2"/></symbol><symbol viewBox="0 0 9.24 5.06" id="ico-arrow-black" xmlns="http://www.w3.org/2000/svg"><path d="M8.89.611h0l-3.882 3.89-3.89-3.89a.418.418 0 0 0-.591.591l4.178 4.179A.41.41 0 0 0 5 5.503c.103 0 .214-.04.296-.122l4.177-4.178a.411.411 0 0 0 .009-.592.418.418 0 0 0-.591 0z" stroke="#fff" stroke-width=".2"/></symbol><symbol viewBox="0 0 13 13" id="ico-clock" xmlns="http://www.w3.org/2000/svg"><g clip-path="url(#cclip0)"><path d="M6.5 0a6.5 6.5 0 1 0 .001 13 6.5 6.5 0 0 0 0-13zm.45 7.295a.273.273 0 0 1-.006.05.257.257 0 0 1-.005.04l-.012.039a.361.361 0 0 1-.017.046l-.002.008a.445.445 0 0 1-.034.06l-.003.003a.448.448 0 0 1-.047.057l-.014.014a.431.431 0 0 1-.048.04l-.015.01a.45.45 0 0 1-.068.037l-.015.006a.453.453 0 0 1-.163.031l-.017-.002a.453.453 0 0 1-.077-.008l-.023-.007a.456.456 0 0 1-.067-.023l-.008-.003-2.492-1.175a.45.45 0 0 1 .383-.814l1.851.873v-3.88a.45.45 0 0 1 .9 0v4.59l-.001.008z"/></g><defs><clipPath id="cclip0"><path d="M0 0h13v13H0z"/></clipPath></defs></symbol><symbol viewBox="0 0 8.18 8.18" id="ico-cross" xmlns="http://www.w3.org/2000/svg"><g clip-path="url(#dclip0)"><path d="M7.246.089L4 3.335.754.089a.471.471 0 1 0-.666.666s0 0 0 0l3.246 3.246L.088 7.247a.471.471 0 1 0 .666.666L4 4.667l3.246 3.246a.471.471 0 0 0 .666 0l-.035-.035.035.035a.471.471 0 0 0 0-.666L4.666 4 7.912.755 7.877.72l.035.035A.471.471 0 0 0 7.246.09z" stroke="#fff" stroke-width=".1"/></g><defs><clipPath id="dclip0"><path d="M0 0h8v8H0z"/></clipPath></defs></symbol><symbol viewBox="0 0 67.03 19.63" id="ico-dev" xmlns="http://www.w3.org/2000/svg"><path d="M67 14.91c-.197.83-.16.669-.94.673h-5.879c-.66 0-.875-.211-.875-.868V4.812c0-.673.198-.875.861-.875h6.222c.385 0 .476.045.497.42.026.35.026.7 0 1.05-.017.252-.157.373-.435.37h-4.762v2.855c.1 0 .2.011.3.011h3.805c.347 0 .447.067.476.419.029.32.029.643 0 .963-.031.352-.13.421-.476.421H61.68v3.292h4.652c.506 0 .537.028.62.525.012.046.028.09.048.133v.514zM19.441 9.887a32.94 32.94 0 0 1-.63 6.343 3.543 3.543 0 0 1-2.878 2.671c-2.61.472-5.268.638-7.917.495a44.677 44.677 0 0 1-4.607-.533C1.832 18.601.793 17.405.52 15.771a36.537 36.537 0 0 1-.513-6.787c.035-1.9.23-3.794.582-5.66A3.586 3.586 0 0 1 3.53.54a33.984 33.984 0 0 1 7.804-.495c1.553.097 3.101.271 4.637.523 1.613.255 2.664 1.427 2.95 3.132.34 2.045.514 4.114.52 6.186zM2.051 9.65c-.016 1.92.13 3.838.44 5.732.171.951.547 1.401 1.494 1.537 1.22.173 2.447.328 3.676.402 2.543.172 5.096.054 7.611-.352 1.07-.181 1.489-.543 1.665-1.549.172-.944.289-1.896.35-2.854.07-1.538.116-3.092.052-4.618-.057-1.354-.238-2.702-.435-4.043-.122-.864-.557-1.273-1.427-1.387-1.287-.169-2.571-.335-3.858-.41a31.726 31.726 0 0 0-7.61.398c-.952.178-1.347.59-1.52 1.55A33.372 33.372 0 0 0 2.05 9.65zm51.319.891h-1.886c-.45 0-.559-.09-.573-.542-.006-.303.01-.606.047-.906a.313.313 0 0 1 .362-.285H55a.592.592 0 0 1 .638.646c.014.476 0 .97 0 1.456v3.168c0 .62-.098.77-.673.963-1.646.554-3.33.74-5.026.328-2.111-.511-3.503-2.04-3.833-4.185a7.502 7.502 0 0 1 .214-3.525c.713-2.188 2.27-3.377 4.518-3.7a7.342 7.342 0 0 1 3.63.337c1.15.423 1.272.602 1.189 1.92 0 .037 0 .075-.014.113-.062.438-.203.512-.585.293a6.034 6.034 0 0 0-3.092-.868c-1.843.016-3.197 1.132-3.518 2.947a5.231 5.231 0 0 0 .26 2.97 3.375 3.375 0 0 0 4.44 1.762c.093-.04.21-.159.211-.238.027-.872.01-1.736.01-2.654zM42.594 15.61c-.295-.017-.587-.027-.882-.048a.452.452 0 0 1-.424-.36c-.223-.696-.475-1.383-.69-2.08a.265.265 0 0 0-.304-.217h-3.907a.259.259 0 0 0-.295.224c-.21.67-.443 1.334-.645 2.005a.535.535 0 0 1-.528.433c-.475.016-.932.028-1.396 0-.342-.02-.447-.188-.352-.53.11-.393.238-.778.383-1.164 1.083-3.12 2.167-6.24 3.254-9.36.157-.455.27-.552.74-.56h1.823a.713.713 0 0 1 .73.545c1.164 3.374 2.337 6.745 3.518 10.113.052.142.096.287.13.435.082.359-.013.5-.387.528-.254.021-.514 0-.77 0l.002.036zm-5.898-4.52h3.28L38.36 6.24c-.576 1.548-1.09 3.092-1.601 4.621-.021.069-.033.13-.062.236l-.002-.005zm-11.071.448v3.605a.351.351 0 0 1-.302.407 4.163 4.163 0 0 1-1.753 0 .337.337 0 0 1-.297-.38V4.728a.715.715 0 0 1 .785-.787c1.331 0 2.663-.031 3.993.033.614.036 1.22.172 1.79.402 1.211.475 1.841 1.443 1.917 2.728a5.469 5.469 0 0 1-.137 1.607c-.402 1.627-1.568 2.426-3.142 2.704-.48.07-.962.109-1.446.115-.455.021-.911.007-1.408.007zm.014-1.817h1.625c1.24 0 1.921-.628 2.047-1.86.1-.973-.335-1.772-1.144-1.993-.808-.221-1.665-.09-2.53-.119l.002 3.972z"/><path d="M8.135 9.766C7.58 9.212 7.085 8.724 6.6 8.232c-.543-.557-1.104-1.106-1.63-1.674-.475-.526-.475-1.14 0-1.603a1.144 1.144 0 0 1 1.665-.022c.973.937 1.917 1.903 2.869 2.854.077.093.146.191.207.295.138-.13.214-.2.285-.273l2.742-2.747c.33-.33.714-.554 1.19-.455a1.156 1.156 0 0 1 .649 1.95c-.53.583-1.102 1.13-1.665 1.69-.49.49-.985.974-1.49 1.471.098.103.167.179.239.253l2.882 2.887a1.21 1.21 0 0 1 .076 1.648 1.144 1.144 0 0 1-1.679.078c-.116-.097-.223-.207-.33-.313-.88-.88-1.756-1.761-2.626-2.643a2.154 2.154 0 0 1-.164-.204c-.519.502-1.006.968-1.486 1.439-.59.58-1.159 1.189-1.763 1.743a1.13 1.13 0 0 1-1.634-.067 1.19 1.19 0 0 1 .038-1.665c.952-.965 1.91-1.93 2.876-2.892.09-.078.184-.15.283-.216z"/></symbol><symbol viewBox="0 0 16 10" id="ico-eye" xmlns="http://www.w3.org/2000/svg"><path d="M8 3C4.51 3 1.486 5.032 0 8c1.486 2.968 4.51 5 8 5s6.514-2.032 8-5c-1.486-2.968-4.51-5-8-5zm3.944 2.652c.94.6 1.737 1.402 2.335 2.348a7.609 7.609 0 0 1-2.335 2.348A7.323 7.323 0 0 1 8 11.5a7.32 7.32 0 0 1-3.945-1.152A7.61 7.61 0 0 1 1.721 8a7.607 7.607 0 0 1 2.52-2.462 4 4 0 1 0 7.519 0c.061.037.123.075.184.114zM8 6.406a1.5 1.5 0 1 1-3 0 1.5 1.5 0 0 1 3 0z"/></symbol><symbol viewBox="0 0 6 12" id="ico-facebook" xmlns="http://www.w3.org/2000/svg"><path opacity=".5" d="M5.758 5.988h-1.78V12H1.282V5.988H0V3.876h1.282V2.509C1.282 1.53 1.785 0 4.003 0L6 .007v2.051H4.55c-.238 0-.572.11-.572.577v1.244h2.015l-.235 2.109z"/></symbol><symbol viewBox="0 0 12 10.24" id="ico-group" xmlns="http://www.w3.org/2000/svg"><path d="M7.241 2.684a2.18 2.18 0 0 1 1.015 1.62 1.76 1.76 0 1 0-1.015-1.62zM6.09 6.287a1.76 1.76 0 1 0 0-3.52 1.76 1.76 0 0 0 0 3.52zm.746.12H5.342a2.256 2.256 0 0 0-2.254 2.254v1.826l.005.029.126.04c1.185.37 2.216.493 3.064.493 1.656 0 2.616-.472 2.675-.502l.117-.06h.013V8.661a2.255 2.255 0 0 0-2.253-2.254zM9.747 4.59H8.265a2.169 2.169 0 0 1-.67 1.511 2.678 2.678 0 0 1 1.913 2.563v.562c1.463-.053 2.306-.468 2.362-.496l.117-.06H12V6.845A2.256 2.256 0 0 0 9.747 4.59zM3 4.47c.345 0 .665-.1.936-.271a2.178 2.178 0 0 1 .82-1.39c0-.032.004-.065.004-.098A1.76 1.76 0 1 0 3 4.471zm1.58 1.631A2.17 2.17 0 0 1 3.913 4.6c-.055-.004-.11-.009-.165-.009H2.253A2.256 2.256 0 0 0 0 6.844V8.67l.005.028.125.04c.952.297 1.8.434 2.538.477v-.551c0-1.21.808-2.234 1.913-2.563z"/></symbol><symbol viewBox="0 0 11.1 11.1" id="ico-inst" xmlns="http://www.w3.org/2000/svg"><g opacity=".5" clip-path="url(#iclip0)" stroke="#000" stroke-width=".1"><path d="M9.974 7.964v.017a2.012 2.012 0 0 1-2.01 1.993H3.036a2.012 2.012 0 0 1-2.01-2.01V3.036c0-1.108.901-2.01 2.01-2.01h4.928c1.108 0 2.01.902 2.01 2.01v4.928zM7.964-.05H3.036A3.089 3.089 0 0 0-.05 3.036v4.928a3.089 3.089 0 0 0 3.086 3.086h4.928a3.089 3.089 0 0 0 3.086-3.086V3.036A3.089 3.089 0 0 0 7.964-.05z"/><path d="M5.5 2.616A2.888 2.888 0 0 0 2.616 5.5 2.888 2.888 0 0 0 5.5 8.384 2.888 2.888 0 0 0 8.384 5.5 2.888 2.888 0 0 0 5.5 2.616zm0 4.692A1.81 1.81 0 0 1 3.69 5.5 1.81 1.81 0 0 1 5.5 3.692 1.81 1.81 0 0 1 7.308 5.5 1.81 1.81 0 0 1 5.5 7.308zm3.494-4.213h0a.769.769 0 0 0-.542-1.307.768.768 0 0 0-.765.766.769.769 0 0 0 .766.766.773.773 0 0 0 .541-.225z"/></g><defs><clipPath id="iclip0"><path d="M0 0h11v11H0z"/></clipPath></defs></symbol><symbol viewBox="0 0 13 17.42" id="ico-local" xmlns="http://www.w3.org/2000/svg"><path d="M6.5 0A6.507 6.507 0 0 0 0 6.5c0 5.338 5.849 10.554 6.101 10.77.112.1.258.153.399.153.14 0 .282-.052.399-.152C7.145 17.054 13 11.838 13 6.5 13 2.916 10.084 0 6.5 0zm0 4.676c.997 0 1.807.82 1.807 1.824 0 1.003-.81 1.824-1.807 1.824A1.819 1.819 0 0 1 4.693 6.5c0-1.003.81-1.824 1.807-1.824z"/></symbol><symbol viewBox="0 0 10.44 14.04" id="ico-location" xmlns="http://www.w3.org/2000/svg"><g clip-path="url(#kclip0)"><path d="M7 0a5.228 5.228 0 0 0-5.22 5.223c0 4.29 4.7 8.48 4.9 8.656a.482.482 0 0 0 .64 0c.2-.176 4.9-4.365 4.9-8.656A5.228 5.228 0 0 0 7 0zm0 3.757c.8 0 1.45.657 1.45 1.466A1.46 1.46 0 0 1 7 6.689c-.8 0-1.45-.658-1.45-1.466 0-.809.65-1.466 1.45-1.466z"/></g><defs><clipPath id="kclip0"><path d="M0 0h14v13H0z"/></clipPath></defs></symbol><symbol viewBox="0 0 91.73 171.34" id="ico-logo" xmlns="http://www.w3.org/2000/svg"><path d="M52.328 144.409l-13.154-13.196-13.154 13.196L39.172 172l13.156-27.591zM39.173 55.313c-5.047 0-9.14 4.111-9.14 9.182 0 5.07 4.093 9.182 9.14 9.182 5.048 0 9.14-4.112 9.14-9.182s-4.092-9.182-9.14-9.182z"/><path d="M39.173 14.107C36.388 15.539 0 34.855 0 65.719c0 26.4 21.418 66.44 21.418 66.44l17.755-17.867 17.755 17.867s21.419-40.04 21.419-66.44c0-30.864-36.389-50.18-39.174-51.612zm11.723 88.13L39.173 90.44 27.45 102.237c-.6-1.637-8.453-22.992-8.453-36.925 0-18.795 18.765-29.325 20.175-30.096 1.41.77 20.175 11.3 20.175 30.096 0 13.933-7.853 35.288-8.452 36.925zM78.344.66L64.956 14.11l13.388 13.448 13.388-13.449L78.344.661z"/></symbol><symbol viewBox="0 0 23.29 43.5" id="ico-logo-scroll" xmlns="http://www.w3.org/2000/svg"><path d="M13.712 36.568l-3.34-3.35-3.339 3.35 3.34 7.005 3.34-7.005zM10.373 13.948a2.326 2.326 0 0 0-2.32 2.331 2.326 2.326 0 0 0 2.32 2.331 2.326 2.326 0 0 0 2.32-2.33 2.326 2.326 0 0 0-2.32-2.332z"/><path d="M10.373 3.486C9.665 3.85.427 8.754.427 16.59c0 6.702 5.438 16.868 5.438 16.868l4.508-4.536 4.507 4.536s5.438-10.166 5.438-16.868c0-7.836-9.238-12.74-9.946-13.104zm2.976 22.375l-2.976-2.995-2.977 2.995c-.152-.415-2.145-5.837-2.145-9.374 0-4.772 4.764-7.446 5.122-7.642.358.196 5.122 2.87 5.122 7.642 0 3.537-1.994 8.959-2.146 9.374zM20.318.073l-3.4 3.414 3.4 3.415 3.399-3.415-3.4-3.414z"/></symbol><symbol viewBox="0 0 13 10.22" id="ico-mail" xmlns="http://www.w3.org/2000/svg"><g clip-path="url(#nclip0)"><path d="M1.248 4.541c.164.116.66.461 1.487 1.034.827.573 1.46 1.014 1.9 1.324l.309.221a7.8 7.8 0 0 0 .769.512c.147.087.286.152.417.195.13.044.251.066.363.066h.014c.112 0 .232-.022.363-.066.13-.043.27-.108.417-.195.148-.087.273-.166.377-.236.104-.07.235-.162.392-.276.157-.114.26-.187.308-.221L11.76 4.54c.354-.246.649-.544.885-.892.238-.348.356-.713.356-1.095 0-.32-.115-.593-.345-.82a1.121 1.121 0 0 0-.816-.341H1.161c-.373 0-.66.126-.86.377-.2.252-.301.566-.301.943 0 .305.133.635.399.99a3.6 3.6 0 0 0 .849.838z"/><path d="M12.274 5.318A150.67 150.67 0 0 0 8.662 7.82c-.276.203-.5.362-.671.475-.172.114-.4.23-.686.349a2.087 2.087 0 0 1-.798.177h-.014c-.247 0-.513-.059-.798-.177a4.142 4.142 0 0 1-.686-.349 17.186 17.186 0 0 1-.67-.475C3.684 7.342 2.482 6.507.732 5.318A3.842 3.842 0 0 1 0 4.686v5.76c0 .32.114.593.34.82.228.227.502.341.82.341h10.68c.319 0 .592-.114.82-.34.226-.228.34-.501.34-.82v-5.76a4 4 0 0 1-.726.63z"/></g><defs><clipPath id="nclip0"><path d="M0 0h13v13H0z"/></clipPath></defs></symbol><symbol viewBox="0 0 23.12 31.09" id="ico-marker" xmlns="http://www.w3.org/2000/svg"><g clip-path="url(#oclip0)"><path d="M16.5 0C10.125 0 4.94 5.188 4.94 11.565c0 9.5 10.409 18.778 10.852 19.168a1.068 1.068 0 0 0 1.415 0c.443-.39 10.853-9.667 10.853-19.168C28.06 5.188 22.874 0 16.5 0zm0 8.318c1.77 0 3.21 1.457 3.21 3.247 0 1.79-1.44 3.246-3.21 3.246-1.771 0-3.212-1.456-3.212-3.246s1.44-3.247 3.212-3.247z"/></g><defs><clipPath id="oclip0"><path d="M0 0h31v31H0z"/></clipPath></defs></symbol><symbol viewBox="0 0 95.481 95.481" id="ico-ok" xmlns="http://www.w3.org/2000/svg"><path d="M43.041 67.254c-7.402-.772-14.076-2.595-19.79-7.064-.709-.556-1.441-1.092-2.088-1.713-2.501-2.402-2.753-5.153-.774-7.988 1.693-2.426 4.535-3.075 7.489-1.682.572.27 1.117.607 1.639.969 10.649 7.317 25.278 7.519 35.967.329 1.059-.812 2.191-1.474 3.503-1.812 2.551-.655 4.93.282 6.299 2.514 1.564 2.549 1.544 5.037-.383 7.016-2.956 3.034-6.511 5.229-10.461 6.761-3.735 1.448-7.826 2.177-11.875 2.661.611.665.899.992 1.281 1.376 5.498 5.524 11.02 11.025 16.5 16.566 1.867 1.888 2.257 4.229 1.229 6.425-1.124 2.4-3.64 3.979-6.107 3.81-1.563-.108-2.782-.886-3.865-1.977-4.149-4.175-8.376-8.273-12.441-12.527-1.183-1.237-1.752-1.003-2.796.071-4.174 4.297-8.416 8.528-12.683 12.735-1.916 1.889-4.196 2.229-6.418 1.15-2.362-1.145-3.865-3.556-3.749-5.979.08-1.639.886-2.891 2.011-4.014 5.441-5.433 10.867-10.88 16.295-16.322.359-.362.694-.746 1.217-1.305z"/><path d="M47.55 48.329c-13.205-.045-24.033-10.992-23.956-24.218C23.67 10.739 34.505-.037 47.84 0c13.362.036 24.087 10.967 24.02 24.478-.068 13.199-10.971 23.897-24.31 23.851zm12.001-24.186c-.023-6.567-5.253-11.795-11.807-11.801-6.609-.007-11.886 5.316-11.835 11.943.049 6.542 5.324 11.733 11.896 11.709 6.552-.023 11.768-5.285 11.746-11.851z"/></symbol><symbol viewBox="0 0 13.33 13.37" id="ico-phone" xmlns="http://www.w3.org/2000/svg"><g clip-path="url(#qclip0)"><path d="M12.709 10.274L10.7 8.266c-.4-.398-1.062-.386-1.476.028l-1.011 1.01a29.59 29.59 0 0 1-.2-.11c-.639-.354-1.513-.84-2.433-1.76-.923-.922-1.408-1.798-1.763-2.437-.038-.068-.073-.133-.109-.195l.679-.678.334-.334c.414-.414.426-1.076.027-1.476L2.74.306c-.398-.399-1.06-.387-1.475.028L.7.903l.016.015c-.19.242-.349.521-.467.823a3.41 3.41 0 0 0-.207.834c-.265 2.197.74 4.206 3.465 6.932 3.767 3.767 6.803 3.482 6.934 3.468a3.393 3.393 0 0 0 1.656-.674l.013.01.573-.56c.413-.415.425-1.077.027-1.477z"/></g><defs><clipPath id="qclip0"><path d="M0 0h13v13H0z"/></clipPath></defs></symbol><symbol viewBox="0 0 45 45" id="ico-play" xmlns="http://www.w3.org/2000/svg"><path d="M22.5 0C10.074 0 0 10.074 0 22.5S10.074 45 22.5 45 45 34.926 45 22.5 34.926 0 22.5 0zm7.777 23.693l-11.25 7.03a1.407 1.407 0 0 1-2.152-1.192V15.47a1.406 1.406 0 0 1 2.152-1.193l11.25 7.031a1.408 1.408 0 0 1 0 2.386z"/></symbol><symbol viewBox="0 0 9 8" id="ico-plus" xmlns="http://www.w3.org/2000/svg"><path stroke="#fff" d="M0 4.5h9M4.5 1l-.002 4v4"/></symbol><symbol viewBox="0 0 11.9 13.18" id="ico-refresh" xmlns="http://www.w3.org/2000/svg"><g clip-path="url(#tclip0)"><path d="M9.893 1.755a6.01 6.01 0 0 0-8.49 0 .522.522 0 1 0 .738.738 4.965 4.965 0 0 1 7.014 0 4.965 4.965 0 0 1 0 7.014 4.966 4.966 0 0 1-6.726.266l.214-.215a.392.392 0 0 0-.176-.654L.845 8.469a.392.392 0 0 0-.48.48L.8 10.57a.391.391 0 0 0 .655.175l.234-.234a6.01 6.01 0 0 0 8.204-.267 6.01 6.01 0 0 0 0-8.49z"/><path d="M7.146 5.883h-1.28v-2.18a.391.391 0 0 0-.782 0v2.571c0 .216.175.392.391.392h1.67a.391.391 0 0 0 0-.783z"/></g><defs><clipPath id="tclip0"><path d="M0 0h12v12H0z"/></clipPath></defs></symbol><symbol viewBox="0 0 14.36 14.39" id="ico-tel" xmlns="http://www.w3.org/2000/svg"><path d="M13.688 11.047l-2.164-2.163c-.43-.43-1.142-.415-1.588.028l-1.09 1.09a3.976 3.976 0 0 1-.213-.121c-.687-.382-1.628-.905-2.618-1.894-.993-.993-1.516-1.934-1.898-2.626l-.116-.209.732-.728.358-.358c.446-.446.458-1.158.028-1.588L2.955.315c-.43-.43-1.142-.418-1.588.028L.756.954.772.97a3.604 3.604 0 0 0-.728 1.782C-.24 5.116.84 7.279 3.776 10.215c4.057 4.06 7.326 3.755 7.467 3.74a3.609 3.609 0 0 0 1.781-.725l.012.012.615-.603c.45-.446.467-1.162.037-1.592z"/></symbol><symbol viewBox="0 0 299.998 299.998" id="ico-time" xmlns="http://www.w3.org/2000/svg"><path d="M149.997 0C67.157 0 .001 67.158.001 149.995s67.156 150.003 149.995 150.003 150-67.163 150-150.003S232.836 0 149.997 0zm10.358 168.337c-.008.394-.067.788-.122 1.183-.039.296-.057.599-.124.89-.067.303-.182.602-.28.905-.117.366-.226.731-.379 1.076-.029.06-.039.124-.065.184-.226.482-.488.934-.775 1.362-.018.026-.042.052-.06.078-.327.48-.7.916-1.092 1.325-.109.112-.22.213-.335.319-.345.329-.708.63-1.094.905-.119.086-.233.176-.358.259-.495.324-1.014.609-1.554.843-.117.052-.239.083-.358.13a10.425 10.425 0 0 1-1.909.542c-.612.112-1.232.189-1.86.189-.127 0-.257-.039-.384-.044-.602-.023-1.198-.07-1.771-.192-.179-.039-.355-.117-.534-.166a10.53 10.53 0 0 1-1.554-.529c-.057-.029-.117-.034-.174-.06l-57.515-27.129c-5.182-2.443-7.402-8.626-4.959-13.808 2.443-5.179 8.626-7.402 13.808-4.959l42.716 20.144V62.249c0-5.729 4.645-10.374 10.374-10.374s10.374 4.645 10.374 10.374V168.15h.002c0 .062-.018.124-.018.187z"/></symbol><symbol viewBox="0 0 482.9 482.9" id="ico-user" xmlns="http://www.w3.org/2000/svg"><path d="M239.7 260.2h3.2c29.3-.5 53-10.8 70.5-30.5 38.5-43.4 32.1-117.8 31.4-124.9-2.5-53.3-27.7-78.8-48.5-90.7C280.8 5.2 262.7.4 242.5 0h-1.7c-11.1 0-32.9 1.8-53.8 13.7-21 11.9-46.6 37.4-49.1 91.1-.7 7.1-7.1 81.5 31.4 124.9 17.4 19.7 41.1 30 70.4 30.5zm-75.1-152.9c0-.3.1-.6.1-.8 3.3-71.7 54.2-79.4 76-79.4h1.2c27 .6 72.9 11.6 76 79.4 0 .3 0 .6.1.8.1.7 7.1 68.7-24.7 104.5-12.6 14.2-29.4 21.2-51.5 21.4h-1c-22-.2-38.9-7.2-51.4-21.4-31.7-35.6-24.9-103.9-24.8-104.5z"/><path d="M446.8 383.6v-.3c0-.8-.1-1.6-.1-2.5-.6-19.8-1.9-66.1-45.3-80.9-.3-.1-.7-.2-1-.3-45.1-11.5-82.6-37.5-83-37.8-6.1-4.3-14.5-2.8-18.8 3.3-4.3 6.1-2.8 14.5 3.3 18.8 1.7 1.2 41.5 28.9 91.3 41.7 23.3 8.3 25.9 33.2 26.6 56 0 .9 0 1.7.1 2.5.1 9-.5 22.9-2.1 30.9-16.2 9.2-79.7 41-176.3 41-96.2 0-160.1-31.9-176.4-41.1-1.6-8-2.3-21.9-2.1-30.9 0-.8.1-1.6.1-2.5.7-22.8 3.3-47.7 26.6-56 49.8-12.8 89.6-40.6 91.3-41.7 6.1-4.3 7.6-12.7 3.3-18.8-4.3-6.1-12.7-7.6-18.8-3.3-.4.3-37.7 26.3-83 37.8-.4.1-.7.2-1 .3-43.4 14.9-44.7 61.2-45.3 80.9 0 .9 0 1.7-.1 2.5v.3c-.1 5.2-.2 31.9 5.1 45.3 1 2.6 2.8 4.8 5.2 6.3 3 2 74.9 47.8 195.2 47.8s192.2-45.9 195.2-47.8c2.3-1.5 4.2-3.7 5.2-6.3 5-13.3 4.9-40 4.8-45.2z"/></symbol><symbol viewBox="0 0 14.39 8.08" id="ico-vk" xmlns="http://www.w3.org/2000/svg"><path opacity=".5" d="M6.849 7.965h.837s.253-.027.382-.167c.119-.128.115-.367.115-.367s-.016-1.126.505-1.29c.514-.163 1.173 1.087 1.873 1.567.53.364.93.285.93.285l1.87-.027s.978-.06.514-.83c-.038-.064-.27-.57-1.39-1.61-1.172-1.09-1.014-.915.398-2.8.86-1.147 1.203-1.849 1.096-2.148-.103-.286-.735-.21-.735-.21L11.14.38s-.157-.02-.272.048c-.113.068-.186.226-.186.226s-.333.888-.778 1.644c-.937 1.594-1.311 1.68-1.464 1.58-.359-.233-.27-.929-.27-1.422C8.17.91 8.403.267 7.714.1 7.485.044 7.317.008 6.732.002 5.98-.006 5.346.004 4.986.181c-.24.117-.425.379-.312.394.14.019.454.084.621.313.216.293.209.954.209.954s.123 1.818-.289 2.044c-.284.156-.673-.16-1.51-1.608-.427-.74-.75-1.56-.75-1.56S2.89.565 2.78.484c-.135-.1-.323-.131-.323-.131l-2 .013s-.3.008-.411.139C-.052.621.038.862.038.862s1.566 3.67 3.338 5.52C5.003 8.075 6.85 7.964 6.85 7.964z"/></symbol><symbol viewBox="0 0 9.01 9" id="ico-wifi" xmlns="http://www.w3.org/2000/svg"><path opacity=".5" d="M1.227 6.545c-.34 0-.63.12-.869.358a1.184 1.184 0 0 0-.358.87c0 .34.12.63.358.869.238.238.529.358.87.358.34 0 .63-.12.869-.358.238-.239.358-.529.358-.87 0-.34-.12-.63-.358-.869a1.182 1.182 0 0 0-.87-.358zm2.826-1.599a5.668 5.668 0 0 0-1.656-1.16A5.705 5.705 0 0 0 .441 3.27H.41a.374.374 0 0 0-.275.109.377.377 0 0 0-.134.3v.864c0 .106.035.197.105.274.07.078.159.12.265.128.976.094 1.81.487 2.503 1.18a3.978 3.978 0 0 1 1.18 2.503.395.395 0 0 0 .403.37h.863a.377.377 0 0 0 .3-.134.385.385 0 0 0 .108-.307 5.75 5.75 0 0 0-1.675-3.612z"/><path opacity=".5" d="M8.232 5.365a8.956 8.956 0 0 0-1.879-2.72A8.938 8.938 0 0 0 3.633.768 8.885 8.885 0 0 0 .429 0h-.02a.383.383 0 0 0-.28.115A.378.378 0 0 0 0 .409v.914c0 .106.038.199.112.278a.38.38 0 0 0 .271.125 7.247 7.247 0 0 1 2.612.652c.824.38 1.54.872 2.147 1.48a7.364 7.364 0 0 1 1.48 2.147 7.11 7.11 0 0 1 .645 2.611.382.382 0 0 0 .125.272c.08.074.174.112.284.112h.914c.12 0 .217-.043.294-.128a.372.372 0 0 0 .116-.3 8.866 8.866 0 0 0-.768-3.207z"/></symbol><symbol viewBox="0 0 22.1 22.1" id="ico-zoom" xmlns="http://www.w3.org/2000/svg"><path d="M22.236 20.943l-5.291-5.292a9.243 9.243 0 0 0 2.102-5.88 9.276 9.276 0 1 0-18.553 0 9.276 9.276 0 0 0 9.277 9.276 9.228 9.228 0 0 0 5.875-2.098l5.292 5.287a.916.916 0 1 0 1.298-1.293zM9.771 17.2c-4.102 0-7.435-3.334-7.435-7.43 0-4.097 3.333-7.435 7.435-7.435 4.096 0 7.434 3.338 7.434 7.435 0 4.096-3.338 7.43-7.434 7.43z"/></symbol></svg>