<svg width="68" height="103" viewBox="0 0 68 103" fill="none" xmlns="http://www.w3.org/2000/svg">
<mask id="mask0" mask-type="alpha" maskUnits="userSpaceOnUse" x="0" y="0" width="68" height="103">
<rect width="68" height="103" fill="#C4C4C4"/>
</mask>
<g mask="url(#mask0)">
<path d="M45.3417 79.5558L33.9444 68.1221L22.5459 79.5558L33.9421 103.464L45.3417 79.5558Z" fill="#E1E7ED"/>
<path d="M33.943 2.35498C29.5692 2.35498 26.0229 5.91732 26.0229 10.3109C26.0229 14.7046 29.5692 18.2669 33.943 18.2669C38.3168 18.2669 41.8631 14.7046 41.8631 10.3109C41.8631 5.91732 38.3168 2.35498 33.943 2.35498Z" fill="#E1E7ED"/>
<path d="M33.943 -33.3496C31.5306 -32.1085 0 -15.3712 0 11.3722C0 34.2479 18.5588 68.9425 18.5588 68.9425L33.943 53.4603L49.3285 68.9425C49.3285 68.9425 67.8873 34.2479 67.8873 11.3722C67.8873 -15.3712 36.3567 -32.1085 33.943 -33.3496ZM44.1014 43.0152L33.943 32.7932L23.7859 43.0152C23.2669 41.5968 16.4619 23.0924 16.4619 11.0199C16.4619 -5.26655 32.7216 -14.3908 33.943 -15.0589C35.1656 -14.3908 51.4253 -5.26655 51.4253 11.0199C51.4253 23.0924 44.6204 41.5968 44.1014 43.0152Z" fill="#E1E7ED"/>
</g>
</svg>
