<svg width="31" height="31" viewBox="0 0 31 31" fill="none" xmlns="http://www.w3.org/2000/svg">
<g clip-path="url(#clip0)">
<path d="M16.4995 0C10.1252 0 4.93945 5.18786 4.93945 11.5647C4.93945 21.0657 15.3489 30.3427 15.7922 30.733C15.9942 30.911 16.2468 31.0002 16.4995 31.0002C16.7522 31.0002 17.0048 30.9111 17.207 30.733C17.6501 30.3428 28.0596 21.0658 28.0596 11.5647C28.0596 5.18786 22.8738 0 16.4995 0ZM16.4995 8.31814C18.2702 8.31814 19.7107 9.77451 19.7107 11.5647C19.7107 13.3549 18.2702 14.8112 16.4995 14.8112C14.7289 14.8112 13.2884 13.3549 13.2884 11.5647C13.2884 9.77451 14.7289 8.31814 16.4995 8.31814Z" fill="#623B2A"/>
</g>
<defs>
<clipPath id="clip0">
<rect width="31" height="31" fill="white"/>
</clipPath>
</defs>
</svg>
