<svg width="12" height="12" viewBox="0 0 12 12" fill="none" xmlns="http://www.w3.org/2000/svg">
<g clip-path="url(#clip0)">
<path d="M9.89274 1.7554C7.5522 -0.585145 3.74388 -0.585145 1.40331 1.7554C1.19952 1.95919 1.19952 2.28954 1.40331 2.49328C1.60705 2.69703 1.93743 2.69707 2.14119 2.49328C4.07486 0.559615 7.22116 0.559615 9.15483 2.49328C11.0885 4.42697 11.0885 7.57328 9.15486 9.50695C7.31423 11.3475 4.37503 11.436 2.4287 9.77266L2.64292 9.55844C2.85545 9.34593 2.75833 8.98164 2.46749 8.90373L0.844559 8.46887C0.554214 8.39115 0.287331 8.65729 0.365284 8.94815L0.800144 10.5711C0.878238 10.8626 1.24255 10.9589 1.45485 10.7465L1.6892 10.5122C4.04437 12.5813 7.64524 12.4923 9.89279 10.2448C12.2333 7.90431 12.2333 4.09597 9.89274 1.7554Z" fill="white"/>
<path d="M7.14586 5.88289H5.86666V3.70332C5.86666 3.4872 5.69144 3.31198 5.47532 3.31198C5.2592 3.31198 5.08398 3.4872 5.08398 3.70332V6.27423C5.08398 6.49035 5.2592 6.66557 5.47532 6.66557H7.14586C7.36197 6.66557 7.53719 6.49035 7.53719 6.27423C7.53719 6.05811 7.36197 5.88289 7.14586 5.88289Z" fill="white"/>
</g>
<defs>
<clipPath id="clip0">
<rect width="12" height="12" fill="white"/>
</clipPath>
</defs>
</svg>
