<svg width="8" height="8" viewBox="0 0 8 8" fill="none" xmlns="http://www.w3.org/2000/svg">
<g clip-path="url(#clip0)">
<path d="M7.24586 0.0889813L3.99999 3.33484L0.754135 0.0889796C0.570173 -0.0949828 0.27192 -0.0949853 0.0879709 0.0889813C-0.095971 0.272941 -0.0959945 0.571191 0.0879726 0.755142C0.0879731 0.755143 0.0879737 0.755143 0.0879742 0.755144L3.33383 4.001L0.0879726 7.24685C-0.0959899 7.43082 -0.0959923 7.72907 0.0879742 7.91302C0.271937 8.09698 0.570189 8.09696 0.754135 7.91302L3.99999 4.66716L7.24583 7.91302C7.4298 8.09698 7.72807 8.09696 7.91201 7.91302L7.87666 7.87766L7.91201 7.91302C8.09596 7.72905 8.09596 7.4308 7.91201 7.24685L4.66619 4.001L7.91204 0.755142L7.87669 0.719787L7.91205 0.755141C8.09599 0.571178 8.09599 0.272928 7.91204 0.0889796C7.72808 -0.0949829 7.42981 -0.0949852 7.24586 0.0889813Z" fill="white" stroke="white" stroke-width="0.1"/>
</g>
<defs>
<clipPath id="clip0">
<rect width="8" height="8" fill="white"/>
</clipPath>
</defs>
</svg>
