<svg width="11" height="11" viewBox="0 0 11 11" fill="none" xmlns="http://www.w3.org/2000/svg">
<g opacity="0.5" clip-path="url(#clip0)">
<path d="M9.97397 7.96435V7.98062C9.96519 9.08125 9.06701 9.97397 7.96435 9.97397H3.03552C1.9275 9.97403 1.02597 9.07244 1.02597 7.96435V3.03558C1.02597 1.92756 1.9275 1.02597 3.03552 1.02597H7.96428C9.07237 1.02597 9.97397 1.92756 9.97397 3.03558V7.96435ZM7.96428 -0.05H3.03552C1.33412 -0.05 -0.05 1.33419 -0.05 3.03558V7.96435C-0.05 9.66581 1.33412 11.0499 3.03552 11.0499H7.96428C9.66581 11.0499 11.0499 9.66575 11.0499 7.96435V3.03558C11.05 1.33418 9.66581 -0.05 7.96428 -0.05Z" fill="black" stroke="black" stroke-width="0.1"/>
<path d="M5.49993 2.61565C3.9094 2.61565 2.61553 3.90953 2.61553 5.50005C2.61553 7.09052 3.90941 8.38433 5.49993 8.38433C7.09046 8.38433 8.38434 7.09052 8.38434 5.50005C8.38434 3.90953 7.09046 2.61565 5.49993 2.61565ZM5.49993 7.3083C4.50284 7.3083 3.69149 6.49707 3.69149 5.49999C3.69149 4.50284 4.50278 3.69155 5.49993 3.69155C6.49708 3.69155 7.30837 4.50284 7.30837 5.49999C7.30837 6.49707 6.49702 7.3083 5.49993 7.3083Z" fill="black" stroke="black" stroke-width="0.1"/>
<path d="M8.99448 3.09549L8.99457 3.0954C9.13737 2.95261 9.21872 2.75509 9.21872 2.55384C9.21872 2.35204 9.13743 2.15449 8.99457 2.01229C8.85236 1.86943 8.65482 1.78813 8.45301 1.78813C8.25182 1.78813 8.05436 1.86945 7.91212 2.01228C7.76926 2.15442 7.6873 2.35193 7.6873 2.55384C7.6873 2.75527 7.7694 2.95269 7.91211 3.0954C8.05419 3.23749 8.25169 3.31955 8.45301 3.31955C8.65504 3.31955 8.85182 3.23746 8.99448 3.09549Z" fill="black" stroke="black" stroke-width="0.1"/>
</g>
<defs>
<clipPath id="clip0">
<rect width="11" height="11" fill="white"/>
</clipPath>
</defs>
</svg>
