<svg width="13" height="13" viewBox="0 0 13 13" fill="none" xmlns="http://www.w3.org/2000/svg">
<g clip-path="url(#clip0)">
<path d="M1.24774 4.54137C1.41219 4.65742 1.9079 5.00206 2.73489 5.57514C3.56191 6.14822 4.19546 6.58948 4.63558 6.89894C4.68393 6.93286 4.78666 7.0066 4.94381 7.12025C5.101 7.23398 5.2316 7.32589 5.33552 7.39599C5.43952 7.46607 5.56525 7.54469 5.71282 7.63171C5.86035 7.71866 5.99941 7.78407 6.12999 7.82736C6.26059 7.87102 6.38149 7.89264 6.49271 7.89264H6.5H6.50732C6.61853 7.89264 6.73948 7.87099 6.87008 7.82736C7.00061 7.78407 7.1398 7.71859 7.2872 7.63171C7.43468 7.54458 7.5604 7.46604 7.6644 7.39599C7.7684 7.32589 7.8989 7.23398 8.05613 7.12025C8.21326 7.00649 8.31612 6.93286 8.36448 6.89894C8.80934 6.58948 9.94114 5.80355 11.7595 4.54122C12.1126 4.29467 12.4075 3.99718 12.6444 3.64895C12.8816 3.30087 13 2.93571 13 2.55369C13 2.23445 12.8851 1.96117 12.6553 1.73388C12.4256 1.50655 12.1535 1.39294 11.8393 1.39294H1.16067C0.788295 1.39294 0.50173 1.51867 0.301023 1.77012C0.100341 2.02162 0 2.33598 0 2.71318C0 3.01786 0.133042 3.34803 0.399 3.70348C0.664933 4.05895 0.94794 4.33828 1.24774 4.54137Z" fill="#623B2A"/>
<path d="M12.2745 5.31751C10.6883 6.39108 9.48393 7.22541 8.66186 7.82035C8.3862 8.02339 8.16257 8.18189 7.99083 8.29547C7.81909 8.40913 7.59069 8.5252 7.30529 8.64363C7.02 8.76224 6.75412 8.82137 6.50742 8.82137H6.50002H6.49273C6.24609 8.82137 5.98005 8.76224 5.69476 8.64363C5.40946 8.5252 5.18091 8.40913 5.00922 8.29547C4.83758 8.18189 4.61388 8.02339 4.33824 7.82035C3.6853 7.34159 2.48349 6.5072 0.732776 5.31751C0.457035 5.13386 0.212802 4.92334 0 4.6864V10.4463C0 10.7657 0.113604 11.0388 0.34094 11.2661C0.568226 11.4935 0.841527 11.6072 1.16074 11.6072H11.8394C12.1585 11.6072 12.4318 11.4935 12.6591 11.2661C12.8865 11.0387 13 10.7657 13 10.4463V4.6864C12.792 4.91844 12.5503 5.12895 12.2745 5.31751Z" fill="#623B2A"/>
</g>
<defs>
<clipPath id="clip0">
<rect width="13" height="13" fill="white"/>
</clipPath>
</defs>
</svg>
