<svg width="53" height="53" viewBox="0 0 53 53" fill="none" xmlns="http://www.w3.org/2000/svg">
<g clip-path="url(#clip0)">
<path d="M50.5567 50.8797H48.3363V17.9637C48.3363 16.4017 47.0655 15.131 45.5036 15.131H40.4289C38.8668 15.131 37.5962 16.4018 37.5962 17.9637V50.8797H31.9312V32.8999C31.9312 31.3378 30.6605 30.0672 29.0985 30.0672H24.0237C22.4617 30.0672 21.191 31.3379 21.191 32.8999V50.8797H15.526V41.5922C15.526 40.0301 14.2552 38.7595 12.6933 38.7595H7.61845C6.05642 38.7595 4.78574 40.0303 4.78574 41.5922V50.8797H2.44287C1.84354 50.8797 1.35771 51.3655 1.35771 51.9649C1.35771 52.5642 1.84354 53.05 2.44287 53.05H50.5567C51.1561 53.05 51.6419 52.5642 51.6419 51.9649C51.6419 51.3655 51.1561 50.8797 50.5567 50.8797ZM13.3555 50.8797H6.95595V41.5922C6.95595 41.2269 7.25311 40.9298 7.61834 40.9298H12.6931C13.0583 40.9298 13.3555 41.2269 13.3555 41.5922V50.8797ZM29.7607 50.8797H23.3612V32.8999C23.3612 32.5346 23.6584 32.2375 24.0236 32.2375H29.0984C29.4635 32.2375 29.7607 32.5346 29.7607 32.8999V50.8797ZM46.166 50.8797H39.7665V17.9637C39.7665 17.5985 40.0636 17.3013 40.4289 17.3013H45.5036C45.8688 17.3013 46.166 17.5985 46.166 17.9637V50.8797Z" fill="white" stroke="white" stroke-width="0.1"/>
<path d="M44.6313 2.12031H40.885C40.2856 2.12031 39.7998 1.63449 39.7998 1.03516C39.7998 0.435825 40.2856 -0.05 40.885 -0.05H47.1477C47.1598 -0.05 47.1741 -0.0490691 47.1857 -0.0483104C47.1902 -0.0480196 47.1943 -0.047754 47.1977 -0.047576C47.1985 -0.0475353 47.1992 -0.0474992 47.1999 -0.0474684L47.1978 0.00248437L44.6313 2.12031ZM44.6313 2.12031L34.5187 12.233L30.695 8.40924C30.4916 8.20578 30.2155 8.0914 29.9277 8.0914C29.6399 8.0914 29.3639 8.20578 29.1604 8.40924L10.5515 27.0182C10.1278 27.442 10.1278 28.1291 10.5515 28.553L10.5515 28.553C10.7634 28.7647 11.0412 28.8706 11.3188 28.8706C11.5964 28.8706 11.8743 28.7647 12.0861 28.5528L29.9277 10.7111L33.7514 14.5348C34.1752 14.9585 34.8623 14.9585 35.2862 14.5348L35.2508 14.4994L35.2862 14.5348L46.166 3.65504V7.0342C46.166 7.63353 46.6518 8.11935 47.2512 8.11935C47.8505 8.11935 48.3363 7.63353 48.3363 7.0342V1.13867C48.3363 1.12674 48.3354 1.11248 48.3346 1.10082C48.3343 1.09627 48.3341 1.09208 48.3339 1.08861C48.3339 1.08784 48.3338 1.08712 48.3338 1.08642L48.2838 1.08857L44.6313 2.12031Z" fill="white" stroke="white" stroke-width="0.1"/>
<path d="M7.83008 32.4825C8.42939 32.4825 8.91523 31.9966 8.91523 31.3973C8.91523 30.798 8.42939 30.3122 7.83008 30.3122C7.23076 30.3122 6.74492 30.798 6.74492 31.3973C6.74492 31.9966 7.23076 32.4825 7.83008 32.4825Z" fill="white" stroke="white" stroke-width="0.1"/>
</g>
<defs>
<clipPath id="clip0">
<rect width="53" height="53" fill="white"/>
</clipPath>
</defs>
</svg>
