<svg width="55" height="55" viewBox="0 0 55 55" fill="none" xmlns="http://www.w3.org/2000/svg">
<g clip-path="url(#clip0)">
<path d="M27.5 11.1H27.5001C30.5916 11.097 33.097 8.59159 33.1 5.5001V5.5C33.1 2.40717 30.5928 -0.1 27.5 -0.1C24.4072 -0.1 21.9 2.40717 21.9 5.5C21.9 8.59283 24.4072 11.1 27.5 11.1ZM27.5 9.06667C25.5302 9.06667 23.9333 7.4698 23.9333 5.5C23.9333 3.5302 25.5302 1.93333 27.5 1.93333C29.4698 1.93333 31.0667 3.5302 31.0667 5.5C31.0667 7.4698 29.4698 9.06667 27.5 9.06667Z" fill="white" stroke="white" stroke-width="0.2"/>
<path d="M31.1668 11.8167H31.1667H30.9503H30.9268L30.9058 11.8271L30.7124 11.9234L30.7123 11.9234C28.6893 12.9307 26.3107 12.9307 24.2877 11.9234L24.2876 11.9234L24.0942 11.8271L24.0732 11.8167H24.0497L23.8333 11.8167L23.8332 11.8167C21.2481 11.8197 19.153 13.9147 19.15 16.4999V16.5V22C19.15 23.574 20.426 24.85 22 24.85H33C34.574 24.85 35.85 23.574 35.85 22V16.5V16.4999C35.847 13.9147 33.7519 11.8197 31.1668 11.8167ZM33.8167 22C33.8167 22.451 33.451 22.8167 33 22.8167H22C21.549 22.8167 21.1833 22.451 21.1833 22V16.5C21.1833 16.5 21.1833 16.5 21.1833 16.5C21.1836 15.1182 22.2451 13.9699 23.6197 13.859C26.0822 14.9934 28.9179 14.9934 31.3803 13.859C32.7548 13.9699 33.8164 15.1182 33.8167 16.5C33.8167 16.5 33.8167 16.5 33.8167 16.5V22Z" fill="white" stroke="white" stroke-width="0.2"/>
<path d="M46.7501 30.15H46.75C43.6572 30.15 41.15 32.6572 41.15 35.75C41.15 38.8428 43.6572 41.35 46.75 41.35C49.8428 41.35 52.35 38.8428 52.35 35.75V35.7499C52.347 32.6584 49.8416 30.153 46.7501 30.15ZM46.75 39.3167C44.7802 39.3167 43.1833 37.7198 43.1833 35.75C43.1833 33.7802 44.7802 32.1833 46.75 32.1833C48.7198 32.1833 50.3167 33.7802 50.3167 35.75C50.3167 37.7198 48.7198 39.3167 46.75 39.3167Z" fill="white" stroke="white" stroke-width="0.2"/>
<path d="M50.4168 42.0667H50.4167H50.2003H50.1778L50.1575 42.0763L49.9641 42.168L49.9641 42.1679L49.9624 42.1688C47.9393 43.176 45.5607 43.176 43.5376 42.1688L43.5377 42.1688L43.5359 42.168L43.3425 42.0763L43.3222 42.0667H43.2997L43.0833 42.0667L43.0832 42.0667C40.4981 42.0697 38.403 44.1647 38.4 46.7499V46.75V52.25C38.4 53.824 39.676 55.1 41.25 55.1H52.25C53.824 55.1 55.1 53.824 55.1 52.25V46.75V46.7499C55.097 44.1647 53.0019 42.0697 50.4168 42.0667ZM53.0667 52.25C53.0667 52.701 52.701 53.0667 52.25 53.0667H41.25C40.799 53.0667 40.4333 52.701 40.4333 52.25V46.75C40.4333 46.75 40.4333 46.75 40.4333 46.75C40.4336 45.3682 41.4951 44.2199 42.8697 44.109C45.3322 45.2434 48.1678 45.2434 50.6303 44.109C52.0049 44.2199 53.0664 45.3682 53.0667 46.75C53.0667 46.75 53.0667 46.75 53.0667 46.75V52.25Z" fill="white" stroke="white" stroke-width="0.2"/>
<path d="M8.2501 30.15H8.25C5.15717 30.15 2.65 32.6572 2.65 35.75C2.65 38.8428 5.15717 41.35 8.25 41.35C11.3428 41.35 13.85 38.8428 13.85 35.75V35.7499C13.847 32.6584 11.3416 30.153 8.2501 30.15ZM8.25 39.3167C6.2802 39.3167 4.68333 37.7198 4.68333 35.75C4.68333 33.7802 6.2802 32.1833 8.25 32.1833C10.2198 32.1833 11.8167 33.7802 11.8167 35.75C11.8167 37.7198 10.2198 39.3167 8.25 39.3167Z" fill="white" stroke="white" stroke-width="0.2"/>
<path d="M11.9168 42.0667H11.9167H11.7003H11.6778L11.6575 42.0763L11.4641 42.168L11.4641 42.1679L11.4623 42.1688C9.43926 43.176 7.06074 43.176 5.03765 42.1688L5.03766 42.1688L5.03591 42.168L4.84249 42.0763L4.82216 42.0667H4.79967L4.58333 42.0667L4.58322 42.0667C1.99808 42.0697 -0.0969558 44.1647 -0.1 46.7499V46.75V52.25C-0.1 53.824 1.17597 55.1 2.75 55.1H13.75C15.324 55.1 16.6 53.824 16.6 52.25V46.75V46.7499C16.597 44.1647 14.5019 42.0697 11.9168 42.0667ZM14.5667 52.25C14.5667 52.701 14.201 53.0667 13.75 53.0667H2.75C2.299 53.0667 1.93333 52.701 1.93333 52.25V46.75C1.93333 46.75 1.93333 46.75 1.93333 46.75C1.93356 45.3682 2.99512 44.2199 4.36972 44.109C6.83223 45.2434 9.66777 45.2434 12.1303 44.109C13.5049 44.2199 14.5664 45.3682 14.5667 46.75C14.5667 46.75 14.5667 46.75 14.5667 46.75V52.25Z" fill="white" stroke="white" stroke-width="0.2"/>
<path d="M36.6868 46.5135L36.6868 46.5135C36.9055 47.0306 36.6635 47.6271 36.1465 47.8459C31.4588 49.8318 26.2327 50.1426 21.3464 48.7304L21.9833 49.9477L21.9833 49.9478C22.2433 50.4458 22.0503 51.0602 21.5523 51.3202C21.0542 51.5802 20.4398 51.3872 20.1798 50.8892L18.3493 47.3864C18.3321 47.3596 18.3296 47.3336 18.3287 47.323L18.3286 47.3212C18.2891 47.1981 18.2579 47.0726 18.235 46.9456L18.2337 46.9382L18.2334 46.9308C18.2292 46.7869 18.2555 46.6439 18.3107 46.5109L18.3112 46.5097L18.3112 46.5097C18.3682 46.3773 18.4535 46.2589 18.5611 46.163L18.5684 46.1564L18.5687 46.1568C18.5995 46.1344 18.6315 46.114 18.6647 46.0957C18.7402 46.0386 18.8234 45.9924 18.9118 45.9585L18.9131 45.9575C18.9171 45.9544 18.9263 45.9475 18.9382 45.9416C18.9469 45.9372 18.9584 45.9327 18.9721 45.9303L22.631 44.8574L22.631 44.8574C23.1701 44.6995 23.7349 45.0086 23.8927 45.5477C24.0505 46.0867 23.7415 46.6515 23.2024 46.8093M36.6868 46.5135L23.1743 46.7133M36.6868 46.5135L36.6861 46.5122L36.6861 46.5119L36.6853 46.5101C36.4652 45.9936 35.8682 45.7532 35.3518 45.9731M36.6868 46.5135L35.3518 45.9731M23.2024 46.8093L23.1743 46.7133M23.2024 46.8093L23.2025 46.8093L23.1743 46.7133M23.2024 46.8093L22.6938 46.9587M23.1743 46.7133L22.5026 46.9107C22.5663 46.927 22.63 46.943 22.6938 46.9587M22.6938 46.9587C26.9064 47.9961 31.3446 47.6525 35.3518 45.9731M22.6938 46.9587L22.5044 47.0144C26.787 48.1071 31.3112 47.775 35.3907 46.0653M35.3518 45.9731C35.3519 45.9731 35.352 45.9731 35.3521 45.973L35.3907 46.0653M35.3518 45.9731C35.3517 45.9732 35.3516 45.9732 35.3515 45.9733L35.3907 46.0653M35.3518 45.9731L35.3907 46.0653M21.2132 48.6914L21.1485 48.5678C21.193 48.5811 21.2375 48.5944 21.2821 48.6075L21.2132 48.6914Z" fill="white" stroke="white" stroke-width="0.2"/>
<path d="M49.4667 25.179L49.3755 25.2701C48.5745 17.2957 43.4919 10.3859 36.1093 7.249C35.6435 7.05054 35.1051 7.26722 34.9066 7.733C34.7082 8.19878 34.9248 8.73721 35.3906 8.93567C41.9993 11.7444 46.6083 17.8576 47.496 24.9751L50.6852 24.1019L49.4797 25.3074C49.4755 25.2645 49.4712 25.2217 49.4667 25.179ZM49.4667 25.179C48.6358 17.2025 43.5396 10.2975 36.1484 7.15699M49.4667 25.179L50.6145 24.0312L50.6145 24.0312C51.0115 23.6343 51.6551 23.6343 52.0521 24.0312C52.4495 24.4277 52.4504 25.0712 52.054 25.4687L52.0539 25.4688L49.3039 28.2188L49.3022 28.2205L49.3022 28.2205C48.9047 28.6171 48.261 28.6162 47.8645 28.2188L36.1484 7.15699M36.1484 7.15699C35.6318 6.93691 35.0347 7.17723 34.8146 7.69381C34.5945 8.21039 34.8348 8.80756 35.3514 9.02767L35.3515 9.0277C41.8877 11.8056 46.4581 17.8321 47.3803 24.8595L46.5521 24.0312L46.5508 24.03C46.147 23.6398 45.5034 23.651 45.1133 24.0549L45.1852 24.1244L45.1133 24.0549C44.7328 24.4489 44.7328 25.0735 45.1133 25.4675L45.1132 25.4676L45.1145 25.4688L47.8644 28.2187L36.1484 7.15699ZM36.1484 7.15699C36.1484 7.15699 36.1485 7.157 36.1485 7.15701L36.1093 7.249L36.1484 7.15697C36.1484 7.15697 36.1484 7.15698 36.1484 7.15699Z" fill="white" stroke="white" stroke-width="0.2"/>
<path d="M7.33334 27.5C7.33334 28.0062 6.9229 28.4167 6.41667 28.4167C5.91044 28.4167 5.5 28.0062 5.5 27.5C5.49487 19.4357 9.90854 12.0207 16.991 8.1784L16.8773 8.12643M7.33334 27.5L16.9872 8.06673C16.9505 8.08654 16.9139 8.10644 16.8773 8.12643M7.33334 27.5C7.32879 20.4224 11.0399 13.8669 17.0995 10.2268L7.33334 27.5ZM16.8773 8.12643C9.80123 11.9964 5.39488 19.4241 5.4 27.5M16.8773 8.12643L15.1613 7.34178L15.1579 7.34019L15.1579 7.34013C14.6838 7.10108 14.4734 6.53735 14.6751 6.04617C14.8884 5.52677 15.4823 5.27858 16.0017 5.49183L16.0053 5.49331L16.0053 5.49337L19.672 7.16812L19.6828 7.17309L19.6825 7.1737C19.7197 7.19641 19.7554 7.22183 19.7889 7.24966C19.857 7.28551 19.9205 7.32934 19.9781 7.3804L19.9835 7.38512L19.9881 7.39056C20.0301 7.44011 20.0675 7.49356 20.0995 7.55026C20.1332 7.59228 20.1634 7.63711 20.1897 7.68412L20.2025 7.70689V7.72535C20.2072 7.73402 20.2123 7.74591 20.2147 7.7605C20.2276 7.81372 20.2358 7.8678 20.2394 7.92223C20.2543 7.98368 20.2633 8.04625 20.2665 8.10916L20.267 8.11897L20.2656 8.1287C20.2578 8.18266 20.2458 8.23576 20.2297 8.28765C20.2194 8.35869 20.2013 8.42838 20.1758 8.49546L20.175 8.49758V8.51106L20.1652 8.53156L18.3318 12.3568L18.3318 12.3569C18.1628 12.7088 17.8072 12.9328 17.4168 12.9333H17.4168C17.264 12.9335 17.1134 12.8986 16.9761 12.8317C16.4715 12.588 16.2592 11.9819 16.5015 11.4765L17.0207 10.3915C11.0684 14.0287 7.42885 20.5083 7.43334 27.4999V27.5C7.43334 28.0615 6.97813 28.5167 6.41667 28.5167C5.85522 28.5167 5.40002 28.0614 5.4 27.5M5.4 27.5C5.4 27.5 5.4 27.5001 5.4 27.5001C5.4 27.5001 5.4 27.5 5.4 27.5ZM17.1767 10.2971L16.5917 11.5198C16.3732 11.9755 16.5646 12.522 17.0198 12.7417L17.1767 10.2971Z" fill="white" stroke="white" stroke-width="0.2"/>
</g>
<defs>
<clipPath id="clip0">
<rect width="55" height="55" fill="white"/>
</clipPath>
</defs>
</svg>
