<svg width="53" height="53" viewBox="0 0 53 53" fill="none" xmlns="http://www.w3.org/2000/svg">
<g clip-path="url(#clip0)">
<path d="M51.6435 6.25125C52.1476 6.25125 52.5564 5.84265 52.5564 5.33838V0.862866C52.5564 0.358598 52.1476 -0.05 51.6435 -0.05H1.35603C0.851948 -0.05 0.443164 0.358598 0.443164 0.862866V5.33838C0.443164 5.84265 0.851948 6.25125 1.35603 6.25125H2.93702V33.0388H1.35603C0.851948 33.0388 0.443164 33.4474 0.443164 33.9517V38.4272C0.443164 38.9315 0.851948 39.3401 1.35603 39.3401H25.5869V41.9271L16.1844 51.4974C15.8312 51.857 15.8363 52.435 16.1959 52.7882C16.5554 53.1421 17.1337 53.1363 17.4869 52.7767L20.811 49.3933H32.1886L35.5126 52.7767C35.8657 53.1364 36.4441 53.1415 36.8036 52.7882C37.1633 52.4349 37.1684 51.8569 36.8151 51.4974L27.4126 41.9271V39.3401H51.6435C52.1476 39.3401 52.5564 38.9315 52.5564 38.4272V33.9517C52.5564 33.4474 52.1476 33.0388 51.6435 33.0388H50.0625V6.25125H51.6435ZM26.4996 43.6029L30.3948 47.5676H22.6046L26.4996 43.6029ZM50.7307 34.8644V37.5142H2.2689V34.8644H3.84989H49.1497H50.7307ZM4.76275 33.0387V6.25125H48.2368V33.0387H4.76275ZM2.2689 4.42551V1.77573H50.7307V4.42551H50.7126H50.6933H50.673H50.6518H50.6297H50.6068H50.5829H50.5581H50.5324H50.5058H50.4783H50.4499H50.4207H50.3906H50.3595H50.3277H50.2949H50.2613H50.2268H50.1915H50.1553H50.1183H50.0804H50.0417H50.0021H49.9617H49.9205H49.8785H49.8356H49.7919H49.7474H49.702H49.6559H49.609H49.5612H49.5127H49.4633H49.4132H49.3623H49.3106H49.2581H49.2048H49.1508H49.096H49.0404H48.9841H48.927H48.8691H48.8105H48.7512H48.6911H48.6303H48.5687H48.5064H48.4434H48.3797H48.3152H48.25H48.1841H48.1175H48.0502H47.9822H47.9134H47.844H47.7739H47.7031H47.6316H47.5595H47.4866H47.4131H47.3389H47.2641H47.1886H47.1124H47.0356H46.9581H46.88H46.8012H46.7218H46.6417H46.561H46.4797H46.3978H46.3152H46.2321H46.1483H46.0639H45.9788H45.8932H45.807H45.7202H45.6328H45.5448H45.4562H45.3671H45.2773H45.187H45.0961H45.0047H44.9126H44.8201H44.7269H44.6332H44.539H44.4442H44.3489H44.253H44.1566H44.0597H43.9623H43.8643H43.7658H43.6668H43.5673H43.4672H43.3667H43.2657H43.1641H43.0621H42.9596H42.8566H42.7531H42.6491H42.5447H42.4398H42.3344H42.2286H42.1223H42.0155H41.9083H41.8006H41.6925H41.584H41.475H41.3655H41.2557H41.1454H41.0347H40.9235H40.812H40.7H40.5877H40.4749H40.3617H40.2481H40.1342H40.0198H39.9051H39.7899H39.6744H39.5585H39.4423H39.3256H39.2087H39.0913H38.9736H38.8555H38.7371H38.6183H38.4992H38.3798H38.26H38.1399H38.0194H37.8987H37.7776H37.6562H37.5344H37.4124H37.2901H37.1674H37.0445H36.9213H36.7977H36.6739H36.5498H36.4254H36.3008H36.1759H36.0507H35.9252H35.7995H35.6735H35.5472H35.4207H35.294H35.167H35.0398H34.9123H34.7846H34.6567H34.5286H34.4002H34.2716H34.1428H34.0138H33.8846H33.7551H33.6255H33.4957H33.3657H33.2355H33.1051H32.9745H32.8438H32.7128H32.5817H32.4505H32.3191H32.1875H32.0557H31.9238H31.7918H31.6596H31.5273H31.3948H31.2622H31.1295H30.9967H30.8637H30.7306H30.5974H30.4641H30.3306H30.1971H30.0635H29.9297H29.7959H29.662H29.528H29.3939H29.2597H29.1255H28.9912H28.8568H28.7224H28.5879H28.4533H28.3187H28.184H28.0493H27.9146H27.7798H27.645H27.5101H27.3753H27.2404H27.1054H26.9705H26.8356H26.7006H26.5656H26.4307H26.2957H26.1607H26.0258H25.8909H25.7559H25.621H25.4862H25.3513H25.2165H25.0817H24.947H24.8123H24.6776H24.543H24.4085H24.274H24.1395H24.0052H23.8709H23.7367H23.6025H23.4684H23.3344H23.2005H23.0667H22.933H22.7994H22.6659H22.5325H22.3992H22.266H22.1329H21.9999H21.8671H21.7344H21.6018H21.4694H21.3371H21.2049H21.0729H20.941H20.8093H20.6777H20.5463H20.4151H20.284H20.1531H20.0224H19.8919H19.7615H19.6313H19.5014H19.3716H19.242H19.1126H18.9834H18.8544H18.7256H18.5971H18.4687H18.3406H18.2127H18.0851H17.9576H17.8304H17.7035H17.5768H17.4503H17.3241H17.1982H17.0725H16.9471H16.8219H16.697H16.5724H16.4481H16.324H16.2002H16.0767H15.9536H15.8307H15.7081H15.5858H15.4638H15.3421H15.2207H15.0997H14.979H14.8586H14.7385H14.6188H14.4994H14.3803H14.2616H14.1433H14.0252H13.9076H13.7903H13.6733H13.5568H13.4406H13.3247H13.2093H13.0942H12.9795H12.8652H12.7513H12.6378H12.5247H12.4119H12.2996H12.1877H12.0763H11.9652H11.8545H11.7443H11.6345H11.5252H11.4162H11.3077H11.1997H11.0921H10.9849H10.8783H10.772H10.6662H10.5609H10.4561H10.3517H10.2478H10.1444H10.0415H9.93903H9.83708H9.73562H9.63465H9.53419H9.43424H9.33479H9.23586H9.13745H9.03955H8.94218H8.84533H8.74902H8.65324H8.55799H8.46329H8.36914H8.27554H8.18249H8.08999H7.99806H7.90669H7.81588H7.72565H7.636H7.54692H7.45843H7.37052H7.2832H7.19647H7.11034H7.02482H6.93989H6.85558H6.77188H6.68879H6.60632H6.52448H6.44326H6.36267H6.28271H6.2034H6.12472H6.04669H5.96931H5.89258H5.8165H5.74109H5.66633H5.59225H5.51884H5.4461H5.37403H5.30265H5.23196H5.16195H5.09264H5.02402H4.9561H4.88889H4.82238H4.75659H4.69151H4.62715H4.56351H4.50059H4.43841H4.37696H4.31624H4.25626H4.19703H4.13855H4.08082H4.02384H3.96762H3.91217H3.85748H3.80356H3.75041H3.69804H3.64646H3.59565H3.54564H3.49641H3.44798H3.40035H3.35353H3.30751H3.2623H3.2179H3.17432H3.13157H3.08963H3.04853H3.00826H2.96882H2.93022H2.89247H2.85557H2.81951H2.78431H2.74997H2.71648H2.68387H2.65212H2.62124H2.59125H2.56213H2.53389H2.50654H2.48009H2.45452H2.42986H2.4061H2.38324H2.36129H2.34026H2.32014H2.30095H2.28267H2.2689Z" fill="white" stroke="white" stroke-width="0.1"/>
</g>
<defs>
<clipPath id="clip0">
<rect width="53" height="53" fill="white"/>
</clipPath>
</defs>
</svg>
