<svg width="56" height="56" viewBox="0 0 56 56" fill="none" xmlns="http://www.w3.org/2000/svg">
<g clip-path="url(#clip0)">
<path d="M28.0005 10.9902V10.9902C36.0709 11.0531 42.5816 17.6103 42.5871 25.6809L42.5871 25.6816C42.5147 30.9654 39.948 35.9033 35.6662 38.9984V49.5461V49.5475C35.6626 49.671 35.6381 49.793 35.5936 49.9083V49.9819V49.9919L35.5897 50.0011C35.5709 50.0461 35.549 50.0897 35.5244 50.1316L35.5229 50.1343L35.5228 50.1343L31.8704 55.5713L31.8703 55.5715C31.6678 55.8712 31.3294 56.0506 30.9676 56.05M28.0005 10.9902L30.9677 56M28.0005 10.9902L28.0001 10.9902C19.889 10.9959 13.3151 17.5698 13.3094 25.6809L13.3094 25.6816C13.3817 30.9655 15.9486 35.9033 20.2303 38.9984L20.2302 49.5461L20.2303 49.5475C20.2339 49.671 20.2583 49.793 20.3029 49.9083V49.9819V49.9919L20.3068 50.0011C20.3255 50.0461 20.3474 50.0897 20.372 50.1316L20.3719 50.1317L20.3736 50.1343L24.026 55.5713L24.0261 55.5715C24.2287 55.8712 24.5671 56.0506 24.9288 56.05M28.0005 10.9902L24.9288 56M30.9676 56.05L30.9677 56M30.9676 56.05H30.9677V56M30.9676 56.05H24.9288M30.9677 56H24.9288M24.9288 56.05L24.9288 56M24.9288 56.05H24.9288V56M34.0617 37.5245L34.0839 37.5097C38.0513 34.8582 40.4573 30.4218 40.5156 25.6503C40.3246 19.0205 34.9947 13.691 28.3648 13.5004C21.4559 13.3019 15.6941 18.7415 15.495 25.6502C15.5635 30.4106 17.9682 34.8332 21.9267 37.4785C22.2336 37.6807 22.4176 38.0242 22.4159 38.3918V38.3917H22.3659L22.4159 38.392L34.0617 37.5245ZM34.0617 37.5245V37.5512V37.5558V37.5245ZM33.5947 43.675H22.4159L34.1117 37.5824C33.8187 37.7752 33.643 38.1031 33.6447 38.454H33.5947V38.4542V43.675ZM32.6276 50.644L30.4429 53.9059H25.5572L23.3625 50.644H32.6276ZM22.4159 48.4688V45.8191H33.5845L33.5945 48.4688H22.4159Z" fill="white" stroke="white" stroke-width="0.1"/>
<path d="M28.4151 15.6906H28.4151C27.8144 15.6906 27.3274 16.1776 27.3274 16.7782C27.3274 17.3788 27.8144 17.8658 28.415 17.8658C32.7001 17.8715 36.1726 21.344 36.1783 25.6291C36.1783 26.2297 36.6653 26.7167 37.2659 26.7167C37.8666 26.7167 38.3535 26.2297 38.3535 25.6291V25.629C38.3478 20.1426 33.9016 15.6964 28.4151 15.6906Z" fill="white" stroke="white" stroke-width="0.1"/>
<path d="M10.568 24.5415H3.09718C2.49655 24.5415 2.00957 25.0284 2.00957 25.6291C2.00957 26.2297 2.49655 26.7167 3.09718 26.7167H10.568C11.1686 26.7167 11.6556 26.2297 11.6556 25.6291C11.6556 25.0284 11.1686 24.5415 10.568 24.5415Z" fill="white" stroke="white" stroke-width="0.1"/>
<path d="M52.9025 24.5415H45.4317C44.831 24.5415 44.344 25.0284 44.344 25.6291C44.344 26.2297 44.831 26.7167 45.4317 26.7167H52.9025C53.5031 26.7167 53.9901 26.2297 53.9901 25.6291C53.9901 25.0284 53.5031 24.5415 52.9025 24.5415Z" fill="white" stroke="white" stroke-width="0.1"/>
<path d="M14.9864 37.1161V37.0981L14.901 37.1839L9.60018 42.5055C9.14534 42.8964 9.09273 43.582 9.48302 44.0377C9.87374 44.494 10.5603 44.5471 11.0166 44.1564C11.0586 44.1204 11.0979 44.0812 11.134 44.0392L16.4335 38.7397C16.8884 38.3487 16.941 37.6632 16.5507 37.2074C16.16 36.7512 15.4734 36.698 15.0171 37.0887L14.9864 37.1161Z" fill="white" stroke="white" stroke-width="0.1"/>
<path d="M44.87 7.22522L44.8701 7.22533C45.2773 6.87661 45.8778 6.87661 46.2849 7.22533C46.7412 7.61605 46.7944 8.30261 46.4036 8.75887L46.4011 8.7618L46.401 8.7617L41.0988 14.0639L41.0986 14.0641C40.9209 14.2403 40.6887 14.349 40.4419 14.374L40.4571 14.3891L40.3374 14.3898C40.0451 14.3916 39.7645 14.2756 39.5588 14.0682M44.87 7.22522L39.5943 14.033M44.87 7.22522L44.8673 7.22795L39.5652 12.53L44.87 7.22522ZM39.5588 14.0682L39.5943 14.033M39.5588 14.0682C39.5588 14.0682 39.5588 14.0682 39.5588 14.0682L39.5943 14.033M39.5588 14.0682C39.1359 13.6417 39.1387 12.9531 39.5651 12.5301L39.5651 12.5302L39.6004 12.5655C39.1935 12.969 39.1908 13.6261 39.5943 14.033M40.337 14.3295L40.3371 14.3398L40.337 14.3295ZM40.337 14.3295C40.3406 14.3295 40.3441 14.3294 40.3476 14.3294C40.3636 14.3291 40.3796 14.3285 40.3956 14.3276L40.337 14.3295ZM40.2643 14.3377L40.2914 14.3648L40.3018 14.3752L40.3266 14.3503L40.2643 14.3377Z" fill="white" stroke="white" stroke-width="0.1"/>
<path d="M46.3988 42.5045L41.1003 37.1853C40.7094 36.7304 40.0238 36.6777 39.568 37.068C39.1118 37.4588 39.0586 38.1453 39.4493 38.6016C39.4853 38.6436 39.5245 38.6829 39.5665 38.719L44.8648 44.0172C45.2224 44.4976 45.9017 44.5986 46.3837 44.2423C46.8667 43.8853 46.9688 43.2042 46.6118 42.7212L46.3988 42.5045Z" fill="white" stroke="white" stroke-width="0.1"/>
<path d="M9.5963 7.34401C9.24759 7.75119 9.24759 8.35169 9.5963 8.75887L9.59619 8.75896L9.59892 8.7617L14.9011 14.0639L14.901 14.064L14.904 14.0665C15.3602 14.4573 16.0468 14.4041 16.4375 13.9478C16.7862 13.5407 16.7862 12.9402 16.4375 12.533L16.4376 12.5329L16.4349 12.5302L11.1327 7.22795L11.1328 7.22785L11.1298 7.22533C10.6736 6.8346 9.98703 6.88776 9.5963 7.34401ZM9.5963 7.34401L9.63428 7.37654M9.5963 7.34401C9.5963 7.34401 9.5963 7.34401 9.5963 7.34401L9.63428 7.37654M9.63428 7.37654C10.007 6.94126 10.662 6.89055 11.0973 7.26331L16.3995 12.5655C16.7322 12.954 16.7322 13.5269 16.3995 13.9153C16.0268 14.3506 15.3718 14.4013 14.9365 14.0285L9.63428 8.72634C9.30159 8.33789 9.30159 7.76499 9.63428 7.37654Z" fill="white" stroke="white" stroke-width="0.1"/>
<path d="M27.9669 9.65776L27.9671 9.65777L27.9676 9.65778C27.9779 9.65803 27.9888 9.6583 28 9.6583C28.6006 9.6583 29.0876 9.17132 29.0876 8.57069V1.03761C29.0876 0.436977 28.6006 -0.05 28 -0.05C27.3994 -0.05 26.9124 0.436977 26.9124 1.03761V8.53881C26.8947 9.13884 27.3667 9.63982 27.9669 9.65776Z" fill="white" stroke="white" stroke-width="0.1"/>
</g>
<defs>
<clipPath id="clip0">
<rect width="56" height="56" fill="white"/>
</clipPath>
</defs>
</svg>
