<svg width="45" height="45" viewBox="0 0 45 45" fill="none" xmlns="http://www.w3.org/2000/svg">
<g clip-path="url(#clip0)">
<path d="M37.5035 45.1501C39.3959 45.1516 41.1023 44.012 41.8262 42.2634C42.5048 40.6236 42.1935 38.7515 41.0467 37.4228H41.0651L40.8092 37.1668L36.3915 32.7477L37.5036 45.0001M37.5035 45.1501L37.5036 45.0001M37.5035 45.1501C37.5037 45.1501 37.5038 45.1501 37.504 45.1501L37.5036 45.0001M37.5035 45.1501C36.2618 45.153 35.0707 44.6576 34.1976 43.7746M37.5036 45.0001C36.3019 45.003 35.1492 44.5237 34.3042 43.6691M34.1976 43.7746L34.1982 43.7752L34.3042 43.6691M34.1976 43.7746L29.7798 39.3591M34.1976 43.7746L34.3042 43.6691M34.3042 43.6691L29.7798 39.3591M29.7798 39.3591H29.8419V39.2091L29.7359 39.3152L29.7798 39.3591ZM29.7798 39.3591H3.81164C3.31239 39.3591 2.90762 38.9543 2.90762 38.4551V9.80448C2.90762 9.78533 2.9105 9.76927 2.91321 9.75783C2.91494 9.7505 2.91697 9.74372 2.91836 9.73927M29.7798 39.3591L3.06756 9.75698C3.07124 9.69108 3.08413 9.62591 3.10585 9.56332C3.10858 9.55548 3.11105 9.54776 3.11349 9.54009C3.11862 9.52401 3.12365 9.50822 3.13088 9.49227M2.91836 9.73927C2.91816 9.74238 2.91797 9.7455 2.91779 9.74862L2.91756 9.7486V9.75698C2.91756 9.75397 2.91768 9.75117 2.91788 9.74862C2.91841 9.74199 2.91943 9.73707 2.92004 9.73449C2.9204 9.733 2.92075 9.7318 2.92074 9.7318C2.92074 9.7318 2.92049 9.73263 2.91978 9.73483L2.91957 9.7355C2.91927 9.73642 2.91886 9.7377 2.91836 9.73927ZM2.91836 9.73927C2.92349 9.66259 2.93889 9.58689 2.96414 9.51414L2.9642 9.51396C2.96476 9.51237 2.9657 9.5094 2.96697 9.50543C2.97216 9.48914 2.98274 9.45592 2.99399 9.43094M2.99399 9.43094C2.99392 9.43109 2.99386 9.43125 2.99379 9.4314L3.13088 9.49227M2.99399 9.43094C3.03787 9.33226 3.09934 9.24261 3.17516 9.16591L3.17577 9.16529L12.224 0.117048L12.2258 0.11523L12.2259 0.115246C12.3043 0.0394239 12.3961 -0.0219526 12.4969 -0.065279L3.28184 9.27136C3.21851 9.33542 3.16733 9.41016 3.13088 9.49227M2.99399 9.43094C2.99408 9.43074 2.99417 9.43055 2.99426 9.43036L3.13088 9.49227M20.8688 30.4532L27.9709 37.551H4.72265V10.7063H12.8669C13.3661 10.7063 13.7709 10.3015 13.7709 9.80227V1.65804H34.5835V30.9387L27.4864 23.8363L27.4737 23.8236L27.463 23.8171C27.3914 23.7513 27.3096 23.6974 27.2205 23.6577L27.2188 23.657C27.1948 23.6466 27.1684 23.6375 27.1528 23.6319C27.1231 23.6189 27.0928 23.6074 27.0615 23.5974L27.0617 23.5969L27.0495 23.5941L20.113 21.9959C19.8088 21.9252 19.4902 22.0166 19.2695 22.2368L19.2694 22.237C19.0486 22.4577 18.9578 22.7768 19.0279 23.0804L20.6265 30.0174L20.626 30.0175L20.6298 30.0295C20.6397 30.0604 20.6513 30.0911 20.6644 30.1212C20.668 30.1314 20.6792 30.1638 20.6906 30.1883C20.7299 30.2779 20.7842 30.3603 20.8505 30.4317L20.8552 30.4397L20.8688 30.4532ZM40.3734 40.4727V40.4728C40.3724 41.2325 40.0684 41.9605 39.529 42.4957L39.4846 42.5397V42.5429C38.9532 43.0537 38.2441 43.3398 37.5055 43.3398C36.7964 43.3398 36.1145 43.0761 35.5913 42.6032L35.8377 42.3563L35.8378 42.3562L39.6386 38.5561C40.1115 39.0803 40.3747 39.7631 40.3734 40.4727ZM34.3112 41.3345L22.7871 29.814L26.8465 25.7539L38.367 37.2787L34.3112 41.3345ZM25.0538 24.9898L22.0222 28.0214L21.1145 24.0827L25.0538 24.9898ZM6.00102 8.89825L11.9629 2.9364V8.89825H6.00102Z" fill="#623B2A" stroke="#623B2A" stroke-width="0.3"/>
<path d="M9.8507 15.2304H29.4553C29.9545 15.2304 30.3593 14.8257 30.3593 14.3264C30.3593 13.8272 29.9545 13.4224 29.4553 13.4224H9.8507C9.35145 13.4224 8.94668 13.8272 8.94668 14.3264C8.94668 14.8257 9.35145 15.2304 9.8507 15.2304Z" fill="#623B2A" stroke="#623B2A" stroke-width="0.3"/>
<path d="M9.8507 19.7546H29.4553C29.9545 19.7546 30.3593 19.3498 30.3593 18.8506C30.3593 18.3513 29.9545 17.9466 29.4553 17.9466H9.8507C9.35145 17.9466 8.94668 18.3513 8.94668 18.8506C8.94668 19.3498 9.35145 19.7546 9.8507 19.7546Z" fill="#623B2A" stroke="#623B2A" stroke-width="0.3"/>
<path d="M15.1288 22.4706H9.8507C9.35145 22.4706 8.94668 22.8754 8.94668 23.3746C8.94668 23.8739 9.35145 24.2787 9.8507 24.2787H15.1288C15.6281 24.2787 16.0329 23.8739 16.0329 23.3746C16.0329 22.8754 15.6281 22.4706 15.1288 22.4706Z" fill="#623B2A" stroke="#623B2A" stroke-width="0.3"/>
</g>
<defs>
<clipPath id="clip0">
<rect width="45" height="45" fill="white"/>
</clipPath>
</defs>
</svg>
