<svg width="45" height="45" viewBox="0 0 45 45" fill="none" xmlns="http://www.w3.org/2000/svg">
<g clip-path="url(#clip0)">
<path d="M36.7502 -0.2H36.75L8.25 -0.2L8.24976 -0.2C6.06949 -0.197433 4.30257 1.56949 4.3 3.74976V3.75L4.3 24L4.3 24.0002C4.30257 26.1805 6.06949 27.9474 8.24976 27.95H8.25H18.2404L17.2836 31.3H15H14.8V31.5V33V33.2H15H30H30.2V33V31.5V31.3H30H27.7164L26.7596 27.95H36.75H36.7502C38.9305 27.9474 40.6974 26.1805 40.7 24.0002V24V3.75V3.74976C40.6974 1.56949 38.9305 -0.197433 36.7502 -0.2ZM24.7836 27.95L25.7404 31.3H19.2596L20.2164 27.95H24.7836ZM38.8 24C38.8 25.1322 37.8822 26.05 36.75 26.05H8.25C7.1178 26.05 6.2 25.1322 6.2 24V22.7H38.8V24ZM38.8 20.8H6.2V3.75C6.2 2.6178 7.1178 1.7 8.25 1.7H36.75C37.8822 1.7 38.8 2.6178 38.8 3.75V20.8Z" fill="#623B2A" stroke="#623B2A" stroke-width="0.4"/>
<path d="M28.5 34.3H7.5C6.97536 34.3 6.55 34.7254 6.55 35.25V44.25C6.55 44.7746 6.97536 45.2 7.5 45.2H28.5C29.0246 45.2 29.45 44.7746 29.45 44.25V35.25C29.45 34.7254 29.0246 34.3 28.5 34.3ZM27.55 43.3H8.45V36.2H27.55V43.3Z" fill="#623B2A" stroke="#623B2A" stroke-width="0.4"/>
<path d="M11.45 40.5V40.3H11.25H9.75H9.55V40.5V42V42.2H9.75H11.25H11.45V42V40.5Z" fill="#623B2A" stroke="#623B2A" stroke-width="0.4"/>
<path d="M11.45 37.5V37.3H11.25H9.75H9.55V37.5V39V39.2H9.75H11.25H11.45V39V37.5Z" fill="#623B2A" stroke="#623B2A" stroke-width="0.4"/>
<path d="M14.45 37.5V37.3H14.25H12.75H12.55V37.5V39V39.2H12.75H14.25H14.45V39V37.5Z" fill="#623B2A" stroke="#623B2A" stroke-width="0.4"/>
<path d="M17.45 37.5V37.3H17.25H15.75H15.55V37.5V39V39.2H15.75H17.25H17.45V39V37.5Z" fill="#623B2A" stroke="#623B2A" stroke-width="0.4"/>
<path d="M23.45 37.5V37.3H23.25H21.75H21.55V37.5V39V39.2H21.75H23.25H23.45V39V37.5Z" fill="#623B2A" stroke="#623B2A" stroke-width="0.4"/>
<path d="M20.45 37.5V37.3H20.25H18.75H18.55V37.5V39V39.2H18.75H20.25H20.45V39V37.5Z" fill="#623B2A" stroke="#623B2A" stroke-width="0.4"/>
<path d="M26.45 40.5V40.3H26.25H24.75H24.55V40.5V42V42.2H24.75H26.25H26.45V42V40.5Z" fill="#623B2A" stroke="#623B2A" stroke-width="0.4"/>
<path d="M26.45 37.5V37.3H26.25H24.75H24.55V37.5V39V39.2H24.75H26.25H26.45V39V37.5Z" fill="#623B2A" stroke="#623B2A" stroke-width="0.4"/>
<path d="M23.45 40.5V40.3H23.25H12.75H12.55V40.5V42V42.2H12.75H23.25H23.45V42V40.5Z" fill="#623B2A" stroke="#623B2A" stroke-width="0.4"/>
<path d="M34.5 34.3C32.3185 34.3 30.55 36.0685 30.55 38.25V41.25C30.55 43.4315 32.3185 45.2 34.5 45.2C36.6815 45.2 38.45 43.4315 38.45 41.25V38.25C38.45 36.0685 36.6815 34.3 34.5 34.3ZM36.55 41.25C36.55 42.3822 35.6322 43.3 34.5 43.3C33.3678 43.3 32.45 42.3822 32.45 41.25V38.25C32.45 37.1178 33.3678 36.2 34.5 36.2C35.6322 36.2 36.55 37.1178 36.55 38.25V41.25Z" fill="#623B2A" stroke="#623B2A" stroke-width="0.4"/>
<path d="M35.45 37.5V37.3H35.25H33.75H33.55V37.5V39V39.2H33.75H35.25H35.45V39V37.5Z" fill="#623B2A" stroke="#623B2A" stroke-width="0.4"/>
<path d="M23.3308 6.36726L23.1385 6.31224L23.0835 6.50452L20.0807 16.9985L20.0256 17.1908L20.2179 17.2458L21.6594 17.6583L21.8517 17.7133L21.9067 17.521L24.9095 7.02703L24.9645 6.83475L24.7722 6.77973L23.3308 6.36726Z" fill="#623B2A" stroke="#623B2A" stroke-width="0.4"/>
<path d="M18.6082 8.97965L18.7618 8.85161L18.6338 8.69797L17.6738 7.54597L17.5458 7.39233L17.3921 7.52037L12.8921 11.2704L12.892 11.2704C12.4891 11.6065 12.4349 12.2055 12.7709 12.6085L12.771 12.6086C12.8075 12.6523 12.848 12.6929 12.8922 12.7297L17.3921 16.4797L17.5458 16.6077L17.6738 16.454L18.6338 15.302L18.7618 15.1484L18.6082 15.0204L14.984 12L18.6082 8.97965Z" fill="#623B2A" stroke="#623B2A" stroke-width="0.4"/>
<path d="M32.2292 11.3916L32.2291 11.3914L32.108 11.2704L32.108 11.2703L27.6081 7.52037L27.4544 7.39233L27.3264 7.54597L26.3664 8.69797L26.2383 8.85161L26.392 8.97965L30.0161 12L26.392 15.0204L26.2383 15.1484L26.3664 15.302L27.3264 16.454L27.4544 16.6077L27.6081 16.4797L32.108 12.7297L32.1081 12.7296C32.511 12.3935 32.5653 11.7946 32.2292 11.3916Z" fill="#623B2A" stroke="#623B2A" stroke-width="0.4"/>
</g>
<defs>
<clipPath id="clip0">
<rect width="45" height="45" fill="white"/>
</clipPath>
</defs>
</svg>
