<svg width="29" height="29" viewBox="0 0 29 29" fill="none" xmlns="http://www.w3.org/2000/svg">
<g clip-path="url(#clip0)">
<path d="M6.91336 18.8458L6.91272 18.8452C6.76205 18.9994 6.56338 19.1209 6.31768 19.1209C6.09248 19.1209 5.84104 19.0454 5.71099 18.8311L3.89555 16.3967H2.47859C1.06291 16.3967 -0.1 15.2339 -0.1 13.8181V4.74391C-0.1 3.32818 1.06291 2.16532 2.47859 2.16532H17.557C18.9727 2.16532 20.1356 3.32818 20.1356 4.74391V9.87905H26.4923C27.9427 9.87905 29.1034 11.0379 29.1 12.4579M6.91336 18.8458L29 12.4576M6.91336 18.8458L6.92137 18.8351L8.73981 16.3967M6.91336 18.8458L8.68964 16.2967M29.1 12.4579L29 12.4576M29.1 12.4579V12.4576H29M29.1 12.4579V21.5319C29.1 22.9476 27.9371 24.1105 26.5214 24.1105H25.1044M29 12.4576V21.5319C29 22.8923 27.8819 24.0105 26.5214 24.0105H25.0542M25.1044 24.1105L25.1344 24.0702L25.0542 24.0105M25.1044 24.1105L23.286 26.5488L23.278 26.5596L23.2773 26.559C23.1266 26.7131 22.928 26.8346 22.6823 26.8346C22.4571 26.8346 22.2056 26.7592 22.0756 26.5448M25.1044 24.1105H25.0542V24.0105M25.0542 24.0105L22.0756 26.5448M22.0756 26.5448L22.0786 26.5488L22.1587 26.4891L22.0727 26.54C22.0737 26.5416 22.0746 26.5432 22.0756 26.5448ZM22.0756 26.5448L20.2601 24.1105M22.0756 26.5448L11.4461 24.0105C10.0857 24.0105 8.96754 22.8924 8.96754 21.5319V16.3967H8.86754M20.2601 24.1105H20.3103V24.0105L20.2302 24.0702L20.2601 24.1105ZM20.2601 24.1105H11.4461C10.0305 24.1105 8.86754 22.9476 8.86754 21.5319V16.3967M8.86754 16.3967V16.2967H8.68964M8.86754 16.3967H8.73981M8.73981 16.3967L8.7698 16.3565L8.68964 16.2967M8.73981 16.3967H8.68964V16.2967M20.1356 9.97905H20.0356V9.87905L20.1356 9.97905ZM7.74883 15.1798L7.74827 15.1792L7.74069 15.1892L6.28536 17.1072L4.83331 15.1935C4.70319 14.9795 4.4519 14.9041 4.22684 14.9041H2.41073C1.80348 14.9041 1.32472 14.4253 1.32472 13.8181V4.74391C1.32472 4.13666 1.80348 3.65791 2.41073 3.65791H17.4892C18.0964 3.65791 18.5751 4.13666 18.5751 4.74391V10.6415V13.8181C18.5751 14.4254 18.0964 14.9041 17.4892 14.9041H9.59774L8.34388 14.9041C8.09823 14.9041 7.8995 15.0256 7.74883 15.1798ZM27.6106 21.5319V21.6177C27.5679 22.1837 27.1061 22.6179 26.5279 22.6179H24.7117C24.4661 22.6179 24.2674 22.7394 24.1167 22.8936L24.1161 22.893L24.1086 22.903L22.6532 24.821L21.2012 22.9073C21.0711 22.6933 20.8198 22.6179 20.5947 22.6179H11.4494C10.8422 22.6179 10.3634 22.1391 10.3634 21.5319V16.3967H17.557C18.0536 16.3967 18.5188 16.2583 18.9111 16.0122H23.7681C24.1723 16.0122 24.495 15.6895 24.495 15.2852C24.495 14.881 24.1724 14.5583 23.7681 14.5583H20.072C20.1432 14.3324 20.168 14.0862 20.168 13.8213V11.4072H26.5246C27.1318 11.4072 27.6106 11.8859 27.6106 12.4932V21.5319ZM5.23512 8.26293H5.23513H10.9227C11.3269 8.26293 11.6496 7.94021 11.6496 7.536C11.6496 7.13173 11.3269 6.80906 10.9227 6.80906H5.23513C4.83086 6.80906 4.50819 7.13179 4.50819 7.536C4.50819 7.94022 4.83087 8.26288 5.23512 8.26293ZM23.7358 19.6057C24.14 19.6057 24.4627 19.283 24.4627 18.8788L23.7358 18.2519V18.1518H23.7354H14.2415C13.8372 18.1518 13.5145 18.4745 13.5145 18.8788C13.5145 19.2831 13.8373 19.6057 14.2415 19.6057H23.7358ZM5.23513 11.8919H14.6939C15.0862 11.8919 15.4602 11.5788 15.4208 11.16C15.4181 10.7581 15.0964 10.4381 14.6939 10.4381H5.23513C4.83087 10.4381 4.50819 10.7607 4.50819 11.165C4.50819 11.5693 4.83092 11.8919 5.23513 11.8919Z" fill="white" stroke="white" stroke-width="0.2"/>
</g>
<defs>
<clipPath id="clip0">
<rect width="29" height="29" fill="white"/>
</clipPath>
</defs>
</svg>
