<svg width="27" height="27" viewBox="0 0 27 27" fill="none" xmlns="http://www.w3.org/2000/svg">
<g clip-path="url(#clip0)">
<path d="M27.0147 12.5777V12.4277H26.8647H25.7192V6.61864C25.7192 5.10717 24.4899 3.87778 22.9784 3.87778H21.3121L19.5596 0.726817C19.2594 0.185693 18.6884 -0.15 18.0692 -0.15C17.7804 -0.15 17.4942 -0.0755645 17.2414 0.0646816L17.2413 0.0647484L10.3846 3.8777H2.7266C1.21513 3.8777 -0.0142578 5.10709 -0.0142578 6.61856V24.4091C-0.0142578 25.9205 1.21513 27.1499 2.7266 27.1499H22.9784C24.4899 27.1499 25.7192 25.9205 25.7192 24.4091V19.3343H26.8647H27.0147V19.1843V12.5777ZM17.8913 1.2327L17.8917 1.23244C18.0615 1.13726 18.2971 1.20531 18.3914 1.3754L18.3915 1.37559L21.1278 6.29553H8.78625L17.8913 1.2327ZM22.9784 5.21408C23.6398 5.21408 24.1914 5.67608 24.3377 6.29602H22.6567L22.0555 5.21408H22.9784ZM24.3829 24.4091C24.3829 25.1833 23.7525 25.8136 22.9783 25.8136H2.7266C1.95238 25.8136 1.32204 25.1833 1.32204 24.4091V6.61864C1.32204 5.84442 1.95238 5.21408 2.7266 5.21408H7.98181L6.03612 6.2961H3.05047C2.68099 6.2961 2.38229 6.59547 2.38229 6.96428C2.38229 7.3331 2.68099 7.63247 3.05047 7.63247H4.21118H23.1447H24.3829V12.4282H20.7435C18.9009 12.4282 17.4016 13.9276 17.4016 15.7701V15.9929C17.4016 17.8355 18.901 19.3349 20.7435 19.3349H24.3829V24.4091ZM25.6783 17.998H25.5692H20.7435C19.6377 17.998 18.7379 17.0983 18.7379 15.9924V15.7695C18.7379 14.6637 19.6376 13.7639 20.7435 13.7639H25.5692H25.6783V17.998ZM21.1865 17.2176C21.9015 17.2176 22.4806 16.6386 22.4806 15.9235C22.4806 15.209 21.9016 14.6293 21.1865 14.6294C20.4716 14.6294 19.8925 15.2086 19.8925 15.9235C19.8925 16.6385 20.4715 17.2176 21.1865 17.2176Z" fill="white" stroke="white" stroke-width="0.3"/>
</g>
<defs>
<clipPath id="clip0">
<rect width="27" height="27" fill="white"/>
</clipPath>
</defs>
</svg>
