<svg width="55" height="55" viewBox="0 0 55 55" fill="none" xmlns="http://www.w3.org/2000/svg">
<path d="M43.427 33.8819C42.3476 31.6315 38.4861 28.5079 34.7553 25.4898C32.6745 23.8076 30.7082 22.2173 29.4547 20.9638C29.1407 20.6475 28.671 20.5466 28.2562 20.6956C27.484 20.9753 27.0072 21.1906 26.6315 21.3579C26.0586 21.6145 25.8661 21.7016 25.0937 21.7795C24.7522 21.8139 24.4452 21.9973 24.255 22.2814C22.6347 24.7037 20.9572 24.4974 19.8366 24.1216C19.4791 24.0025 19.415 23.8489 19.3806 23.7023C19.14 22.6963 20.3477 20.3541 21.9128 18.7889C25.6368 15.0626 27.5572 14.1299 31.6135 15.9426C36.2151 18.0005 40.826 19.6116 40.8718 19.6276C41.4746 19.8362 42.1231 19.5199 42.3316 18.9218C42.5378 18.3237 42.2239 17.6705 41.6257 17.462C41.5799 17.446 37.0607 15.867 32.5507 13.848C27.296 11.499 24.413 13.0459 20.2949 17.1664C18.7274 18.7339 16.5984 21.9055 17.1484 24.2316C17.3844 25.2216 18.0811 25.955 19.1169 26.2964C21.7134 27.1535 24.0829 26.333 25.8475 23.991C26.5762 23.8788 26.9727 23.7138 27.5685 23.4456C27.7839 23.3494 28.036 23.2371 28.3706 23.1019C29.6815 24.3325 31.4506 25.7648 33.3137 27.2704C36.6825 29.9951 40.5027 33.0844 41.3621 34.8719C41.7861 35.7541 41.33 36.3294 41.0206 36.5929C40.5669 36.9825 39.9459 37.1063 39.609 36.8701C39.2377 36.6158 38.7542 36.5998 38.3715 36.8289C37.9865 37.058 37.7711 37.4912 37.8192 37.9358C37.8971 38.6645 37.2302 39.0816 36.9415 39.226C36.2081 39.5973 35.4427 39.5331 35.1562 39.2673C34.8354 38.9694 34.3747 38.8823 33.9669 39.0335C33.559 39.187 33.2747 39.5629 33.2335 39.9983C33.1647 40.7499 32.6079 41.4718 31.8814 41.7537C31.5308 41.8865 31.022 41.9668 30.566 41.5497C30.2819 41.293 29.8876 41.1944 29.5187 41.2838C29.1452 41.3754 28.845 41.6459 28.7144 42.0057C28.6709 42.1203 28.5722 42.3953 27.4997 42.3953C26.7366 42.3953 25.3639 41.8797 24.6925 41.435C23.8881 40.9057 18.8441 37.1428 14.4877 33.4944C13.8759 32.9788 12.8171 31.8742 11.8821 30.8979C11.0525 30.0317 10.294 29.2457 9.90436 28.9157C9.41624 28.5032 8.69436 28.565 8.28874 29.0509C7.88086 29.5344 7.94037 30.2587 8.42398 30.6665C8.77922 30.9668 9.46673 31.6932 10.2252 32.4838C11.2474 33.5517 12.3037 34.6563 13.0142 35.2522C17.2813 38.8249 22.4101 42.6818 23.4321 43.3532C24.2755 43.9078 26.0927 44.6869 27.4999 44.6869C28.6296 44.6869 29.4982 44.4279 30.1009 43.9215C30.9075 44.2355 31.8242 44.2378 32.7065 43.894C33.7492 43.4907 34.6062 42.6772 35.0921 41.6918C35.995 41.8843 37.0286 41.749 37.9681 41.277C38.8871 40.8141 39.5516 40.106 39.8816 39.2787C40.7937 39.3268 41.7333 39.0037 42.5101 38.3368C43.8257 37.2116 44.1877 35.4609 43.427 33.8819Z" fill="#623B2A"/>
<path d="M22.9164 14.8955H12.6039C11.9714 14.8955 11.458 15.4089 11.458 16.0414C11.458 16.6739 11.9714 17.1872 12.6039 17.1872H22.9164C23.5489 17.1872 24.0622 16.6739 24.0622 16.0414C24.0622 15.4089 23.5489 14.8955 22.9164 14.8955Z" fill="#623B2A"/>
<path d="M46.7842 31.4436C46.4289 30.9188 45.7186 30.7744 45.1938 31.1319L41.8434 33.3823C41.3187 33.7352 41.1788 34.4479 41.5318 34.9727C41.7541 35.3004 42.1162 35.4792 42.4852 35.4792C42.7029 35.4792 42.9252 35.4173 43.1223 35.2844L46.4727 33.034C46.9973 32.6811 47.1371 31.9684 46.7842 31.4436Z" fill="#623B2A"/>
<path d="M39.6708 36.9116C38.8504 36.2654 35.1814 32.5094 32.9127 30.1444C32.4749 29.686 31.7486 29.67 31.2924 30.11C30.8341 30.5477 30.8203 31.2741 31.2581 31.7303C31.8471 32.3444 37.0422 37.7596 38.2499 38.713C38.4584 38.878 38.7106 38.9582 38.9581 38.9582C39.2949 38.9582 39.6318 38.807 39.8609 38.5205C40.2529 38.0254 40.1682 37.3035 39.6708 36.9116Z" fill="#623B2A"/>
<path d="M35.0922 39.2101C33.7194 38.1124 30.2706 34.448 29.4913 33.6001C29.0605 33.1326 28.3386 33.1051 27.8711 33.5314C27.4058 33.9599 27.3738 34.6864 27.8023 35.1516C27.8436 35.1951 31.9594 39.6387 33.6598 41C33.8707 41.1672 34.1251 41.2497 34.3748 41.2497C34.7094 41.2497 35.044 41.1008 35.2708 40.8212C35.6652 40.3261 35.5849 39.6043 35.0922 39.2101Z" fill="#623B2A"/>
<path d="M30.5317 41.5179C28.8977 40.1406 25.5541 36.5816 24.901 35.8826C24.4679 35.4197 23.7414 35.3945 23.2808 35.8276C22.8179 36.2607 22.7949 36.9849 23.2258 37.4479C24.1654 38.4539 27.3645 41.8456 29.0535 43.271C29.2689 43.452 29.5302 43.5414 29.7914 43.5414C30.1168 43.5414 30.4423 43.4016 30.6692 43.1335C31.077 42.6476 31.0152 41.9257 30.5317 41.5179Z" fill="#623B2A"/>
<path d="M13.3925 12.9178C11.4285 11.0569 3.575 10.4542 1.21462 10.3144C0.889238 10.2984 0.588994 10.4061 0.359863 10.6238C0.130625 10.8392 0 11.1417 0 11.4579V32.0829C0 32.7154 0.513369 33.2288 1.14587 33.2288H8.02087C8.51587 33.2288 8.95587 32.9103 9.10938 32.4382C9.27663 31.9248 13.2252 19.8065 13.7454 13.8482C13.7752 13.4998 13.6469 13.1561 13.3925 12.9178ZM7.18437 30.9372H2.29163V12.6863C5.97438 12.9773 9.94812 13.6098 11.3919 14.3111C10.7846 19.3298 8.03687 28.2467 7.18437 30.9372Z" fill="#623B2A"/>
<path d="M53.854 12.6039C44.8569 12.6039 39.8657 14.907 39.6572 15.0033C39.3593 15.143 39.1369 15.402 39.0453 15.716C38.9537 16.03 38.9994 16.3669 39.1713 16.6464C40.5875 18.9266 45.0219 31.5904 45.8744 34.6795C46.0119 35.1768 46.4634 35.5205 46.979 35.5205H53.854C54.4865 35.5205 54.9999 35.0071 54.9999 34.3746V13.7496C54.9999 13.1149 54.4865 12.6039 53.854 12.6039ZM52.7083 33.2289H47.8361C46.7499 29.6905 43.5415 20.4643 41.7518 16.651C43.5003 16.0575 47.2564 15.0376 52.7083 14.9094V33.2289Z" fill="#623B2A"/>
</svg>
