<svg width="52" height="52" viewBox="0 0 52 52" fill="none" xmlns="http://www.w3.org/2000/svg">
<g clip-path="url(#clip0)">
<path d="M33.3983 37.4494C32.8515 37.1208 32.2904 36.7906 31.7293 36.4668C31.8612 35.3425 31.8615 34.2052 31.7299 33.0831C32.2931 32.7581 32.854 32.428 33.398 32.1009C34.3141 31.5504 34.696 30.389 34.2861 29.399C34.2861 29.399 34.2861 29.399 34.286 29.3989L33.0905 26.5127C32.6805 25.5231 31.5897 24.9715 30.5522 25.23C29.9356 25.3835 29.3056 25.5467 28.6778 25.7151C27.9769 24.8282 27.1727 24.0241 26.2847 23.3228C26.4531 22.695 26.6164 22.0647 26.77 21.4479C27.0285 20.4108 26.477 19.3197 25.4873 18.9096L22.6011 17.7142C21.6115 17.304 20.4497 17.6856 19.8991 18.6019C19.5711 19.1477 19.2407 19.7088 18.9166 20.2709C17.7926 20.139 16.6555 20.1387 15.5329 20.2702C15.2077 19.7064 14.8775 19.1455 14.5508 18.6019C13.9999 17.6858 12.8384 17.3041 11.8487 17.7142L8.96252 18.9096C7.97309 19.3196 7.42141 20.4108 7.67988 21.4479C7.83375 22.0659 7.99686 22.696 8.16495 23.3222C7.2782 24.0229 6.47403 24.8274 5.77284 25.7154C5.14356 25.5465 4.51327 25.3833 3.8977 25.23C2.86034 24.9713 1.76935 25.5233 1.35935 26.5128L0.164056 29.3989C-0.245748 30.3887 0.136025 31.5502 1.05192 32.1007C1.59781 32.4287 2.15895 32.759 2.72089 33.0833C2.58906 34.2072 2.58876 35.3443 2.72028 36.467C2.15783 36.7915 1.597 37.1216 1.05171 37.4493C0.135822 37.9999 -0.245951 39.1613 0.163955 40.1512L1.35955 43.0374C1.76945 44.0269 2.86013 44.5787 3.8979 44.3201C4.51377 44.1667 5.14387 44.0036 5.77203 43.835C6.47292 44.7218 7.27719 45.5257 8.16515 46.2271C7.99655 46.8557 7.83334 47.486 7.67988 48.1021C7.42141 49.1391 7.97289 50.2304 8.96252 50.6403L11.8488 51.8359C12.1169 51.9469 12.3976 52 12.6752 52C13.4229 52 14.1493 51.6161 14.5512 50.9483C14.8767 50.4066 15.2069 49.8457 15.5337 49.2794C16.6575 49.4111 17.7949 49.4113 18.9174 49.28C19.2402 49.8398 19.5704 50.4007 19.8995 50.9484C20.4501 51.8645 21.6116 52.246 22.6015 51.8361L25.4877 50.6406C26.4772 50.2307 27.0289 49.1394 26.7704 48.1024C26.6177 47.4897 26.4546 46.8596 26.2853 46.2281C27.1719 45.5274 27.9761 44.723 28.6775 43.835C29.305 44.0033 29.9353 44.1664 30.5524 44.3202C31.5894 44.5789 32.6807 44.0273 33.0907 43.0375L34.2862 40.1512C34.6959 39.1614 34.3141 37.9999 33.3983 37.4494ZM30.9884 42.03C30.3956 41.8815 29.7913 41.7245 29.1904 41.5626C28.3397 41.3338 27.442 41.6329 26.9033 42.325C26.2842 43.1202 25.5677 43.8369 24.7738 44.4551C24.0824 44.9936 23.7837 45.891 24.0128 46.7411C24.1756 47.3458 24.3325 47.9497 24.48 48.5384L21.827 49.6372C21.5115 49.1107 21.1955 48.5727 20.8867 48.0361C20.4472 47.2729 19.6014 46.85 18.7319 46.9577C17.7335 47.0817 16.72 47.0816 15.7202 46.9572C14.8483 46.8489 14.0032 47.2718 13.5638 48.0352C13.2512 48.5779 12.9351 49.1162 12.623 49.6371L9.97002 48.5382C10.1184 47.9464 10.2754 47.3422 10.4375 46.7404C10.6665 45.8898 10.3672 44.992 9.67508 44.4532C8.87984 43.8342 8.16332 43.1178 7.54501 42.324C7.00673 41.6324 6.10932 41.3339 5.25884 41.5628C4.65728 41.7248 4.05329 41.8818 3.46169 42.0301L2.36278 39.3771C2.88685 39.0629 3.42502 38.747 3.96392 38.4367C4.72716 37.9972 5.15047 37.1516 5.04241 36.282C4.9182 35.2835 4.9185 34.2701 5.04271 33.2702C5.15118 32.3998 4.72817 31.5533 3.96452 31.1137C3.42584 30.8035 2.88756 30.4875 2.36268 30.1727L3.46159 27.5198C4.05268 27.668 4.65677 27.825 5.25945 27.9872C6.10973 28.2163 7.00754 27.9169 7.54663 27.2248C8.16566 26.4295 8.88218 25.7129 9.67589 25.0948C10.3673 24.5564 10.666 23.6589 10.437 22.8084C10.2755 22.2088 10.1185 21.6049 9.96971 21.0114L12.6227 19.9126C12.9359 20.4352 13.252 20.9733 13.5631 21.5137C14.0027 22.277 14.8492 22.7009 15.7178 22.5921C16.7159 22.4679 17.7292 22.4679 18.7299 22.5926C19.6008 22.7011 20.4468 22.2776 20.8862 21.5143C21.1962 20.9756 21.5124 20.4374 21.8268 19.9126L24.4798 21.0114C24.3314 21.6038 24.1743 22.208 24.0124 22.8093C23.7833 23.6598 24.0826 24.5576 24.7748 25.0964C25.5699 25.7155 26.2865 26.4319 26.9049 27.2257C27.4431 27.917 28.3402 28.2157 29.1911 27.9868C29.7923 27.8249 30.3962 27.6679 30.9882 27.5195L32.087 30.1724C31.5636 30.4862 31.0255 30.8021 30.4858 31.1129C29.7226 31.5524 29.2992 32.3981 29.4074 33.2677C29.5316 34.2657 29.5314 35.2792 29.4068 36.2797C29.2986 37.1502 29.7218 37.9965 30.4851 38.436C31.023 38.7456 31.5613 39.0617 32.087 39.3767L30.9884 42.03Z" fill="#623B2A"/>
<path d="M24.5541 31.7394C24.5541 31.7394 24.5541 31.7394 24.554 31.7393C22.8803 27.6982 18.2311 25.7723 14.1895 27.4462C10.1485 29.1201 8.22246 33.7697 9.89641 37.8107C10.7072 39.7685 12.232 41.293 14.1896 42.104C15.1683 42.5093 16.1967 42.712 17.2252 42.712C18.2536 42.712 19.282 42.5093 20.261 42.104C24.3019 40.43 26.2279 35.7806 24.5541 31.7394ZM19.3702 39.9535C17.9871 40.5264 16.4637 40.5263 15.0803 39.9535C13.6972 39.3806 12.6199 38.3032 12.0469 36.92C10.864 34.0647 12.2249 30.7794 15.0804 29.5967C15.7796 29.307 16.5044 29.1699 17.2179 29.1699C19.4185 29.1699 21.5105 30.474 22.4037 32.6301C23.5864 35.4855 22.2255 38.7707 19.3702 39.9535Z" fill="#623B2A"/>
<path d="M50.4311 10.2513C50.0293 10.1912 49.6166 10.1328 49.2011 10.0773C48.9916 9.38092 48.7119 8.70573 48.3668 8.06447C48.6211 7.73185 48.8718 7.39862 49.114 7.07129C49.6518 6.344 49.574 5.31253 48.9332 4.67208L47.3277 3.06678C46.687 2.42592 45.6555 2.34823 44.9284 2.8862C44.6 3.12924 44.2668 3.3798 43.9352 3.6332C43.2941 3.28809 42.619 3.00838 41.9224 2.79886C41.8668 2.38327 41.8086 1.97062 41.7485 1.56894C41.6147 0.674578 40.8305 0 39.9243 0H37.6538C36.7477 0 35.9634 0.674578 35.8296 1.56884C35.7696 1.97031 35.7113 2.38306 35.6558 2.79876C34.9591 3.00828 34.284 3.28798 33.6429 3.63309C33.3115 3.37959 32.9782 3.12894 32.6498 2.8861C31.9225 2.34812 30.8911 2.42582 30.2505 3.06658L28.6452 4.67177C28.0044 5.31243 27.9265 6.344 28.4644 7.07139C28.7065 7.39862 28.9571 7.73195 29.2113 8.06447C28.8664 8.70563 28.5866 9.38072 28.3771 10.0773C27.9616 10.1329 27.5488 10.1912 27.1472 10.2513C26.2527 10.3852 25.5781 11.1693 25.5781 12.0756V14.346C25.5781 15.2521 26.2525 16.0364 27.147 16.1703C27.5487 16.2304 27.9614 16.2888 28.377 16.3442C28.5865 17.0408 28.8662 17.7159 29.2112 18.3571C28.9572 18.6894 28.7066 19.0226 28.464 19.3503C27.9264 20.0774 28.004 21.1091 28.6448 21.7494L30.2503 23.3549C30.891 23.9958 31.9224 24.0734 32.6496 23.5355C32.9781 23.2926 33.3112 23.0419 33.6427 22.7886C34.2841 23.1337 34.9592 23.4134 35.6557 23.6228C35.711 24.0383 35.7694 24.4511 35.8295 24.8529C35.9634 25.7472 36.7477 26.4218 37.6538 26.4218H39.9243C40.8305 26.4218 41.6147 25.7474 41.7485 24.8527C41.8085 24.451 41.8668 24.0383 41.9224 23.6227C42.6189 23.4134 43.294 23.1335 43.9352 22.7884C44.2666 23.0419 44.6 23.2925 44.9283 23.5355C45.6554 24.0735 46.6871 23.9958 47.3276 23.355L48.9331 21.7497C49.5739 21.1091 49.6517 20.0775 49.1137 19.3502C48.8714 19.0226 48.6207 18.6892 48.3668 18.3572C48.7117 17.7161 48.9915 17.0411 49.2011 16.3444C49.6165 16.2888 50.0293 16.2305 50.431 16.1704C51.3254 16.0365 52 15.2524 52 14.3461V12.0757C51.9999 11.1694 51.3254 10.3852 50.4311 10.2513ZM49.7887 14.03C49.4239 14.083 49.0517 14.1344 48.6782 14.183C47.9395 14.2794 47.3348 14.8036 47.138 15.5184C46.9494 16.2029 46.6757 16.8633 46.3246 17.4814C45.9579 18.1267 46.0144 18.9252 46.4687 19.5159C46.6977 19.8137 46.9249 20.1134 47.146 20.4096L45.9878 21.5679C45.6908 21.3462 45.391 21.1191 45.0939 20.8906C44.5034 20.4361 43.7047 20.3799 43.0594 20.7463C42.4412 21.0975 41.7807 21.3712 41.0967 21.5598C40.3815 21.7568 39.8572 22.3615 39.7611 23.1C39.7125 23.4734 39.6612 23.8458 39.6082 24.2106H37.97C37.9171 23.8458 37.8658 23.4735 37.817 23.1004C37.7206 22.3616 37.1965 21.7569 36.4815 21.5599C35.7972 21.3714 35.137 21.0977 34.5186 20.7465C33.8732 20.3798 33.0746 20.4362 32.4842 20.8906C32.1869 21.1192 31.8874 21.3462 31.5901 21.5679L30.4319 20.4096C30.653 20.1131 30.8801 19.8136 31.1094 19.5155C31.5634 18.925 31.62 18.1265 31.2533 17.4812C30.9022 16.8631 30.6285 16.2026 30.4399 15.5183C30.243 14.8033 29.6384 14.2792 28.8997 14.1828C28.5263 14.134 28.154 14.0829 27.7891 14.0297V12.3917C28.154 12.3388 28.5262 12.2874 28.8996 12.2388C29.6383 12.1424 30.243 11.6181 30.4398 10.9033C30.6284 10.219 30.902 9.55855 31.2532 8.94034C31.62 8.29512 31.5634 7.49653 31.1093 6.90595C30.8799 6.60776 30.6528 6.30815 30.4319 6.0122L31.5901 4.85388C31.8872 5.07559 32.1868 5.30268 32.4839 5.53109C33.0742 5.98559 33.8727 6.04226 34.5186 5.67552C35.1366 5.32441 35.7971 5.0507 36.4813 4.862C37.1965 4.66497 37.7207 4.06027 37.8168 3.3218C37.8656 2.94836 37.917 2.57613 37.9699 2.21132H39.6081C39.661 2.57603 39.7123 2.94826 39.7609 3.3215C39.8573 4.06027 40.3816 4.66497 41.0965 4.8619C41.7808 5.0505 42.4414 5.32431 43.0595 5.67541C43.7049 6.04216 44.5035 5.98518 45.0938 5.5312C45.391 5.30268 45.6905 5.07559 45.9878 4.85388L47.146 6.0122C46.9251 6.30825 46.698 6.60796 46.4686 6.90625C46.0145 7.49673 45.9581 8.29522 46.3245 8.94044C46.6756 9.55876 46.9493 10.2193 47.1379 10.9034C47.3348 11.6184 47.9394 12.1426 48.6781 12.239C49.0516 12.2877 49.4239 12.339 49.7887 12.392V14.03Z" fill="#623B2A"/>
<path d="M38.7893 8.49829C36.1908 8.49829 34.0767 10.6123 34.0767 13.2109C34.0767 15.8096 36.1907 17.9236 38.7893 17.9236C41.3878 17.9236 43.5019 15.8096 43.5019 13.2109C43.5019 10.6123 41.3878 8.49829 38.7893 8.49829ZM38.7893 15.8287C37.346 15.8287 36.1715 14.6543 36.1715 13.2108C36.1715 11.7673 37.3459 10.593 38.7893 10.593C40.2327 10.593 41.4069 11.7674 41.407 13.2108C41.407 14.6543 40.2327 15.8287 38.7893 15.8287Z" fill="#623B2A"/>
</g>
<defs>
<clipPath id="clip0">
<rect width="52" height="52" fill="white"/>
</clipPath>
</defs>
</svg>
