<svg width="55" height="55" viewBox="0 0 55 55" fill="none" xmlns="http://www.w3.org/2000/svg">
<g clip-path="url(#clip0)">
<path d="M27.5003 10.793V10.793C35.427 10.8548 41.8219 17.2953 41.8273 25.2223L41.8273 25.223C41.7562 30.4126 39.2353 35.2624 35.03 38.3024V48.6613V48.6627C35.0264 48.784 35.0024 48.9039 34.9586 49.0172V49.0893V49.0993L34.9548 49.1086C34.9363 49.1527 34.9148 49.1956 34.8906 49.2368L34.8891 49.2395L34.889 49.2394L31.3018 54.5794L31.3017 54.5796C31.1026 54.8742 30.77 55.0505 30.4144 55.05M27.5003 10.793L30.4145 55M27.5003 10.793L27.4999 10.793C19.5331 10.7986 13.0762 17.2555 13.0706 25.2223L13.0706 25.223C13.1417 30.4126 15.6627 35.2624 19.8679 38.3024L19.8679 48.6613L19.8679 48.6627C19.8714 48.784 19.8955 48.9039 19.9392 49.0172V49.0893V49.0993L19.9431 49.1086C19.9616 49.1527 19.9831 49.1956 20.0072 49.2368L20.0072 49.2369L20.0089 49.2394L23.5961 54.5794L23.5961 54.5796C23.7953 54.8742 24.1279 55.0505 24.4835 55.05M27.5003 10.793L24.4834 55M30.4144 55.05L30.4145 55M30.4144 55.05H30.4145V55M30.4144 55.05H24.4835M30.4145 55H24.4834M24.4835 55.05L24.4834 55M24.4835 55.05H24.4834V55M33.4523 36.8539L33.4745 36.8391C37.3709 34.2351 39.7338 29.8783 39.791 25.1922C39.6034 18.6813 34.3691 13.4473 27.8581 13.2602C21.0731 13.0652 15.4145 18.4072 15.219 25.1921C15.2862 29.8672 17.6478 34.2106 21.5354 36.8085C21.8371 37.0072 22.0179 37.3448 22.0163 37.7061V37.7061H21.9663L22.0163 37.7063L33.4523 36.8539ZM33.4523 36.8539V36.8806V36.8847V36.8539ZM32.9937 42.8942H22.0163L33.5023 36.9112C33.2145 37.1006 33.0421 37.4227 33.0437 37.7672H32.9937V37.7675V42.8942ZM32.0431 49.7405L29.8986 52.9424H25.1011L22.9468 49.7405H32.0431ZM22.0163 47.6024V45.0018H32.9837L32.9935 47.6024H22.0163Z" fill="#623B2A" stroke="#623B2A" stroke-width="0.1"/>
<path d="M27.9078 15.4096H27.9078C27.3174 15.4096 26.8387 15.8883 26.8387 16.4787C26.8387 17.0691 27.3173 17.5477 27.9077 17.5478C32.1158 17.5533 35.5259 20.9634 35.5315 25.1715C35.5315 25.7619 36.0102 26.2406 36.6006 26.2406C37.191 26.2406 37.6697 25.7619 37.6697 25.1715V25.1714C37.664 19.7824 33.2968 15.4152 27.9078 15.4096Z" fill="#623B2A" stroke="#623B2A" stroke-width="0.1"/>
<path d="M10.3794 24.1023H3.04203C2.45163 24.1023 1.97295 24.581 1.97295 25.1714C1.97295 25.7618 2.45163 26.2405 3.04203 26.2405H10.3794C10.9698 26.2405 11.4485 25.7618 11.4485 25.1714C11.4485 24.581 10.9698 24.1023 10.3794 24.1023Z" fill="#623B2A" stroke="#623B2A" stroke-width="0.1"/>
<path d="M51.9581 24.1023H44.6206C44.0302 24.1023 43.5516 24.581 43.5516 25.1714C43.5516 25.7618 44.0302 26.2405 44.6206 26.2405H51.9581C52.5485 26.2405 53.0271 25.7618 53.0271 25.1714C53.0271 24.581 52.5485 24.1023 51.9581 24.1023Z" fill="#623B2A" stroke="#623B2A" stroke-width="0.1"/>
<path d="M10.8204 43.3685C10.372 43.7526 9.6971 43.7003 9.31304 43.2519C8.9294 42.8039 8.9811 42.13 9.42818 41.7458L14.6343 36.5192L14.7197 36.4335V36.4512L14.7484 36.4257C15.1969 36.0416 15.8718 36.0939 16.2558 36.5424C16.6395 36.9904 16.5878 37.6642 16.1407 38.0485L10.9358 43.2533M10.8204 43.3685C10.8204 43.3685 10.8204 43.3685 10.8204 43.3685L10.7879 43.3305L10.8204 43.3685ZM10.8204 43.3685C10.8618 43.3331 10.9004 43.2946 10.9358 43.2533M10.9358 43.2533L10.9345 43.2547L10.8991 43.2193L10.9371 43.2519C10.9367 43.2523 10.9363 43.2528 10.9358 43.2533Z" fill="#623B2A" stroke="#623B2A" stroke-width="0.1"/>
<path d="M44.0682 7.09552L44.0683 7.09563C44.4685 6.75286 45.0588 6.75286 45.459 7.09563C45.9075 7.4797 45.9598 8.15456 45.5757 8.60304L45.5732 8.60598L45.5731 8.60587L40.3655 13.8134L40.3654 13.8136C40.1911 13.9863 39.9636 14.0931 39.7217 14.118L39.7368 14.133L39.6171 14.1338C39.3298 14.1355 39.054 14.0215 38.8518 13.8176M44.0682 7.09552L38.8873 13.7824M44.0682 7.09552L44.0654 7.09825L38.8581 12.3056L44.0682 7.09552ZM38.8518 13.8176L38.8873 13.7824M38.8518 13.8176C38.8518 13.8176 38.8518 13.8176 38.8518 13.8176L38.8873 13.7824M38.8518 13.8176C38.4361 13.3984 38.4388 12.7215 38.8579 12.3058L38.8579 12.3058L38.8933 12.3411C38.4937 12.7374 38.491 13.3828 38.8873 13.7824M39.6168 14.0736L39.6168 14.0838L39.6168 14.0736ZM39.6168 14.0736C39.6202 14.0736 39.6236 14.0735 39.6271 14.0735C39.6432 14.0733 39.6593 14.0726 39.6754 14.0716L39.6168 14.0736ZM39.5439 14.0816L39.5713 14.1089L39.5815 14.1191L39.6065 14.0941L39.5439 14.0816Z" fill="#623B2A" stroke="#623B2A" stroke-width="0.1"/>
<path d="M45.5708 41.7448L40.367 36.5207C39.9827 36.0735 39.3089 36.0218 38.8609 36.4054C38.4124 36.7895 38.3601 37.4644 38.7442 37.9128L45.5708 41.7448ZM38.7442 37.9129C38.7796 37.9542 38.8181 37.9928 38.8594 38.0282L44.0629 43.2318C44.4145 43.704 45.0821 43.8032 45.5559 43.453C46.0307 43.1021 46.1311 42.4326 45.7802 41.9578L38.7442 37.9129Z" fill="#623B2A" stroke="#623B2A" stroke-width="0.1"/>
<path d="M9.42437 7.21229C9.08159 7.61253 9.08159 8.2028 9.42437 8.60304L9.42425 8.60314L9.42699 8.60587L14.6345 13.8134L14.6344 13.8135L14.6373 13.816C15.0858 14.2001 15.7607 14.1478 16.1447 13.6994C16.4875 13.2991 16.4875 12.7088 16.1447 12.3086L16.1449 12.3085L16.1421 12.3058L10.9346 7.09825L10.9347 7.09815L10.9318 7.09563C10.4833 6.71156 9.80843 6.76381 9.42437 7.21229ZM9.42437 7.21229L9.46234 7.24482M9.42437 7.21229L9.46234 7.24482M9.46234 7.24482C9.82845 6.81731 10.4717 6.7675 10.8993 7.13361L16.1068 12.3411C16.4335 12.7226 16.4335 13.2853 16.1068 13.6668C15.7407 14.0943 15.0974 14.1441 14.6699 13.778L9.46234 8.57052C9.1356 8.189 9.1356 7.62634 9.46234 7.24482Z" fill="#623B2A" stroke="#623B2A" stroke-width="0.1"/>
<path d="M27.4675 9.48619L27.4677 9.4862L27.4682 9.48621C27.4783 9.48646 27.489 9.48672 27.5 9.48672C28.0904 9.48672 28.5691 9.00804 28.5691 8.41764V1.01908C28.5691 0.428681 28.0904 -0.05 27.5 -0.05C26.9096 -0.05 26.4309 0.428681 26.4309 1.01908V8.38632C26.4136 8.97612 26.8776 9.46856 27.4675 9.48619Z" fill="#623B2A" stroke="#623B2A" stroke-width="0.1"/>
</g>
<defs>
<clipPath id="clip0">
<rect width="55" height="55" fill="white"/>
</clipPath>
</defs>
</svg>
