<svg width="55" height="55" viewBox="0 0 55 55" fill="none" xmlns="http://www.w3.org/2000/svg">
<g clip-path="url(#clip0)">
<path d="M25.3644 37.3393L25.3645 37.3392C25.8032 36.8997 25.8032 36.1883 25.3645 35.7487L25.3644 35.7487C24.9253 35.3104 24.2139 35.3104 23.7744 35.7486L23.7743 35.7488C23.336 36.1883 23.336 36.8997 23.7743 37.3392L23.7744 37.3393C24.2139 37.7775 24.9253 37.7776 25.3644 37.3393Z" fill="#623B2A" stroke="#623B2A" stroke-width="0.1"/>
<path d="M20.1937 11.8131C20.1937 18.3544 25.5154 23.6765 32.0567 23.6765C38.598 23.6765 43.9198 18.3544 43.9198 11.8131C43.9198 5.27173 38.598 -0.05 32.0567 -0.05C25.5154 -0.05 20.1937 5.27173 20.1937 11.8131ZM41.6722 11.8131C41.6722 17.115 37.3586 21.4285 32.0567 21.4285C26.7548 21.4285 22.4413 17.115 22.4413 11.8131C22.4413 6.51154 26.7548 2.19802 32.0567 2.19802C37.3587 2.19802 41.6722 6.51154 41.6722 11.8131Z" fill="#623B2A" stroke="#623B2A" stroke-width="0.1"/>
<path d="M19.1811 49.597L19.1808 49.5973L13.9742 54.7267L13.9391 54.6911L13.9742 54.7267C13.5329 55.1614 12.8236 55.1566 12.388 54.7175L0.329893 42.5675L0.329885 42.5675C-0.10574 42.1283 -0.104875 41.42 0.331652 40.9821L0.367061 41.0174L0.331653 40.9821L5.44049 35.8582L5.44054 35.8581C6.21799 35.0807 7.29541 34.7652 8.32153 34.9477C10.7588 30.4721 15.2832 28.0869 20.4583 28.0869C22.3271 28.0869 24.1386 28.4477 25.8462 29.1607H37.8116C39.1262 29.1607 40.3439 29.7638 41.1536 30.7345L47.4506 24.2623C49.0015 22.4651 51.7268 22.2452 53.5463 23.7787L53.5463 23.7787C55.3776 25.3268 55.609 28.074 54.0627 29.9036C49.8416 34.9485 47.4569 37.8005 46.1073 39.4147C45.8092 39.7712 45.5616 40.0673 45.3558 40.3133C44.3464 41.5204 44.3441 41.5222 44.3281 41.5349L19.1811 49.597ZM19.1811 49.597C20.0718 48.7063 20.3477 47.3918 19.9678 46.2431L21.065 45.185L21.065 45.1849C21.6587 44.6115 22.4401 44.2955 23.2664 44.2955H37.543C40.0888 44.2955 42.4953 43.3178 44.3194 41.5426L19.1811 49.597ZM25.1656 31.3143C25.3079 31.3766 25.4612 31.4087 25.6162 31.4087H37.8116C38.9489 31.4087 39.9096 32.3364 39.9096 33.5063C39.9096 34.6632 38.9685 35.6043 37.8116 35.6043H29.0496C28.429 35.6043 27.9258 36.1076 27.9258 36.7281C27.9258 37.3491 28.429 37.8519 29.0496 37.8519H37.8116C40.2079 37.8519 42.1572 35.9026 42.1572 33.5063C42.1572 33.3233 42.1447 33.142 42.1221 32.9624C44.1159 30.9129 45.5513 29.4378 46.5818 28.3787C47.1301 27.8152 47.5638 27.3695 47.906 27.0178C48.3995 26.5105 48.7026 26.1988 48.8846 26.0111C49.0644 25.8257 49.1278 25.7597 49.1391 25.7463C49.8867 24.8639 51.2139 24.752 52.0967 25.4963C52.9802 26.2434 53.0921 27.5697 52.3425 28.4571L52.3423 28.4573L42.7118 39.9703C41.3148 41.3105 39.4813 42.0479 37.543 42.0479H23.2664C21.8544 42.0479 20.5177 42.588 19.5038 43.5676L18.6265 44.4142L10.2741 36.0623C12.2352 32.4117 15.8986 30.3345 20.4579 30.3345C22.096 30.3345 23.6795 30.6641 25.1656 31.3143ZM25.1656 31.3143L25.1857 31.2685L25.1657 31.3143C25.1657 31.3143 25.1657 31.3143 25.1656 31.3143ZM8.29923 37.3027L8.29949 37.3029C8.31044 37.3095 8.31793 37.3137 8.32411 37.3172C8.33411 37.3228 8.34068 37.3265 8.35297 37.3356C8.37229 37.35 8.40242 37.376 8.46586 37.4365C8.59217 37.5569 8.84387 37.8074 9.39211 38.3562C9.60839 38.5727 9.87075 38.8356 10.1897 39.1551C11.4867 40.4548 13.7192 42.6918 17.5918 46.559C18.001 46.9682 17.979 47.6204 17.5978 48.0017C17.5978 48.0017 17.5977 48.0018 17.5977 48.0018L13.1947 52.3394L2.71275 41.7774L7.0311 37.4466C7.36876 37.1089 7.88704 37.0479 8.29923 37.3027Z" fill="#623B2A" stroke="#623B2A" stroke-width="0.1"/>
<path d="M28.765 15.6369C29.335 16.3148 30.0052 16.7922 30.7179 17.0391V18.2567C30.7179 18.8777 31.2212 19.3805 31.8417 19.3805C32.4623 19.3805 32.9655 18.8777 32.9655 18.2567V17.0334C34.2175 16.5738 35.1136 15.3704 35.1136 13.9611C35.1136 12.1568 33.646 10.6893 31.8417 10.6893C31.2773 10.6893 30.8179 10.23 30.8179 9.66549C30.8179 9.101 31.2773 8.64127 31.8417 8.64127C32.205 8.64127 32.5948 8.82695 32.9685 9.18865L32.9685 9.18865C33.4147 9.62034 34.1261 9.60848 34.5577 9.16275L34.5578 9.16273C34.9895 8.71655 34.9776 8.00513 34.5319 7.57345L34.5318 7.57344C33.9939 7.05292 33.4546 6.75241 32.9655 6.58484V5.36987C32.9655 4.74893 32.4623 4.24565 31.8417 4.24565C31.2212 4.24565 30.7179 4.74893 30.7179 5.36987V6.59318C29.466 7.05239 28.5699 8.2558 28.5699 9.66549C28.5699 11.4693 30.0375 12.9373 31.8417 12.9373C32.4062 12.9373 32.8655 13.3966 32.8655 13.9611C32.8655 14.5256 32.4062 14.9849 31.8417 14.9849C31.4039 14.9849 30.921 14.7088 30.4856 14.1904L30.4856 14.1903C30.086 13.7152 29.3772 13.6542 28.902 14.0533L28.902 14.0533C28.4269 14.453 28.3654 15.1618 28.765 15.6369ZM28.765 15.6369L28.8033 15.6048L28.765 15.6369C28.765 15.6369 28.765 15.6369 28.765 15.6369Z" fill="#623B2A" stroke="#623B2A" stroke-width="0.1"/>
</g>
<defs>
<clipPath id="clip0">
<rect width="54.8926" height="55" fill="white"/>
</clipPath>
</defs>
</svg>
