<svg width="92" height="172" viewBox="0 0 92 172" fill="none" xmlns="http://www.w3.org/2000/svg">
<path d="M52.3275 144.409L39.1742 131.213L26.0195 144.409L39.1715 172L52.3275 144.409Z" fill="white"/>
<path d="M39.1735 55.3131C34.1258 55.3131 30.0332 59.4243 30.0332 64.4949C30.0332 69.5654 34.1258 73.6766 39.1735 73.6766C44.2212 73.6766 48.3138 69.5654 48.3138 64.4949C48.3138 59.4243 44.2212 55.3131 39.1735 55.3131Z" fill="white"/>
<path d="M39.1727 14.1067C36.3885 15.539 0 34.855 0 65.7188C0 92.119 21.4182 132.159 21.4182 132.159L39.1727 114.292L56.9285 132.159C56.9285 132.159 78.3467 92.119 78.3467 65.7188C78.3467 34.855 41.9582 15.539 39.1727 14.1067ZM50.8961 102.237L39.1727 90.4401L27.4506 102.237C26.8516 100.6 18.9982 79.2448 18.9982 65.3123C18.9982 46.5165 37.763 35.9865 39.1727 35.2155C40.5836 35.9865 59.3485 46.5165 59.3485 65.3123C59.3485 79.2448 51.4951 100.6 50.8961 102.237Z" fill="white"/>
<path d="M78.3439 0.660673L64.9561 14.1093L78.3439 27.5578L91.7317 14.1092L78.3439 0.660673Z" fill="white"/>
</svg>
