<svg width="23" height="23" viewBox="0 0 23 23" fill="none" xmlns="http://www.w3.org/2000/svg">
<path d="M22.2363 20.9426L16.9445 15.6508C18.2563 14.0516 19.0469 12.0031 19.0469 9.77051C19.0469 4.64941 14.8916 0.494141 9.77051 0.494141C4.64492 0.494141 0.494141 4.64941 0.494141 9.77051C0.494141 14.8916 4.64492 19.0469 9.77051 19.0469C12.0031 19.0469 14.0471 18.2607 15.6463 16.949L20.9381 22.2363C21.2975 22.5957 21.877 22.5957 22.2363 22.2363C22.5957 21.8814 22.5957 21.2975 22.2363 20.9426ZM9.77051 17.2006C5.66914 17.2006 2.33594 13.8674 2.33594 9.77051C2.33594 5.67363 5.66914 2.33594 9.77051 2.33594C13.8674 2.33594 17.2051 5.67363 17.2051 9.77051C17.2051 13.8674 13.8674 17.2006 9.77051 17.2006Z" fill="white"/>
</svg>
