<svg width="13" height="18" viewBox="0 0 13 18" fill="none" xmlns="http://www.w3.org/2000/svg">
<path d="M6.5 0C2.91561 0 0 2.91561 0 6.5C0 11.8384 5.84883 17.0537 6.10108 17.2708C6.21254 17.3705 6.35921 17.4233 6.5 17.4233C6.64079 17.4233 6.78159 17.3705 6.89892 17.2708C7.14531 17.0537 13 11.8384 13 6.5C13 2.91561 10.0844 0 6.5 0ZM6.5 4.67554C7.49729 4.67554 8.30686 5.49684 8.30686 6.5C8.30686 7.50316 7.49729 8.32446 6.5 8.32446C5.50271 8.32446 4.69314 7.50316 4.69314 6.5C4.69314 5.49684 5.50271 4.67554 6.5 4.67554Z" fill="#822929"/>
</svg>
