<svg width="14" height="14" viewBox="0 0 14 14" fill="none" xmlns="http://www.w3.org/2000/svg">
<path d="M13.6876 11.047L11.5243 8.88366C11.094 8.45341 10.3823 8.4695 9.93594 8.91181L8.84624 10.0015C8.77788 9.96532 8.7055 9.92511 8.63312 9.88088C7.94553 9.49888 7.0046 8.97615 6.01542 7.98697C5.02223 6.99377 4.49949 6.05285 4.11749 5.36123C4.07728 5.28885 4.03707 5.21647 4.00088 5.15213L4.73271 4.42433L5.09058 4.06645C5.53692 3.62012 5.54898 2.90839 5.11873 2.47814L2.95541 0.31482C2.52516 -0.115432 1.81343 -0.103369 1.3671 0.342967L0.755899 0.954165L0.771983 0.970249C0.56691 1.23162 0.398026 1.5332 0.269353 1.85488C0.152743 2.1645 0.0803639 2.45804 0.0441745 2.75157C-0.24132 5.11595 0.840341 7.27927 3.7757 10.2146C7.83294 14.2759 11.102 13.9703 11.2428 13.9542C11.5484 13.918 11.8459 13.8456 12.1435 13.729C12.4652 13.6044 12.7668 13.4315 13.0241 13.2304L13.0362 13.2425L13.6514 12.6393C14.1017 12.193 14.1178 11.4772 13.6876 11.047Z" fill="#822929"/>
</svg>
