<svg width="24" height="44" viewBox="0 0 24 44" fill="none" xmlns="http://www.w3.org/2000/svg">
<path d="M13.7124 36.5679L10.3729 33.2178L7.0332 36.5679L10.3723 43.5728L13.7124 36.5679Z" fill="#E04E39"/>
<path d="M10.3728 13.9482C9.09129 13.9482 8.05225 14.992 8.05225 16.2793C8.05225 17.5667 9.09129 18.6104 10.3728 18.6104C11.6543 18.6104 12.6934 17.5667 12.6934 16.2793C12.6934 14.992 11.6543 13.9482 10.3728 13.9482Z" fill="#C39367"/>
<path d="M10.3725 3.48633C9.66567 3.84996 0.427246 8.75398 0.427246 16.5898C0.427246 23.2923 5.86496 33.4578 5.86496 33.4578L10.3725 28.9216L14.8804 33.4578C14.8804 33.4578 20.3181 23.2923 20.3181 16.5898C20.3181 8.75398 11.0797 3.84996 10.3725 3.48633ZM13.3489 25.8611L10.3725 22.8661L7.39648 25.8611C7.24442 25.4456 5.25057 20.0238 5.25057 16.4866C5.25057 11.7146 10.0146 9.04124 10.3725 8.84549C10.7307 9.04124 15.4948 11.7146 15.4948 16.4866C15.4948 20.0238 13.501 25.4456 13.3489 25.8611Z" fill="#C39367"/>
<path d="M20.3179 0.0729385L16.9189 3.4873L20.3179 6.90167L23.7168 3.4873L20.3179 0.0729385Z" fill="#C39367"/>
</svg>
