<svg width="12" height="12" viewBox="0 0 12 12" fill="none" xmlns="http://www.w3.org/2000/svg">
<path d="M7.24148 2.68391C7.79633 3.03179 8.1854 3.62048 8.25623 4.30382C8.48252 4.40955 8.73366 4.47035 8.99993 4.47035C9.972 4.47035 10.7599 3.68248 10.7599 2.71056C10.7599 1.73849 9.972 0.950623 8.99993 0.950623C8.03714 0.950922 7.25616 1.72471 7.24148 2.68391ZM6.08851 6.28735C7.06058 6.28735 7.84845 5.49933 7.84845 4.52741C7.84845 3.55549 7.06043 2.76762 6.08851 2.76762C5.11659 2.76762 4.32827 3.55564 4.32827 4.52756C4.32827 5.49948 5.11659 6.28735 6.08851 6.28735ZM6.83504 6.40731H5.34167C4.09914 6.40731 3.08828 7.41831 3.08828 8.66084V10.4871L3.09292 10.5157L3.21872 10.5551C4.40449 10.9256 5.43467 11.0492 6.28259 11.0492C7.93875 11.0492 8.89869 10.577 8.95784 10.5469L9.0754 10.4874H9.08798V8.66084C9.08843 7.41831 8.07757 6.40731 6.83504 6.40731ZM9.74676 4.59046H8.26492C8.2489 5.18334 7.99581 5.71723 7.59551 6.1012C8.69996 6.42962 9.50805 7.4538 9.50805 8.66354V9.22632C10.9712 9.17271 11.8143 8.75804 11.8699 8.73018L11.9874 8.67058H12V6.8437C12 5.60132 10.9891 4.59046 9.74676 4.59046ZM3.00037 4.47065C3.34467 4.47065 3.66499 4.37017 3.93635 4.19899C4.02261 3.63636 4.32422 3.14471 4.75507 2.80985C4.75687 2.7769 4.76002 2.74426 4.76002 2.71101C4.76002 1.73894 3.972 0.951072 3.00037 0.951072C2.02815 0.951072 1.24043 1.73894 1.24043 2.71101C1.24043 3.68263 2.02815 4.47065 3.00037 4.47065ZM4.58091 6.1012C4.18255 5.71917 3.93036 5.18814 3.91194 4.59884C3.85698 4.5948 3.80262 4.59046 3.74661 4.59046H2.25339C1.01086 4.59046 0 5.60132 0 6.8437V8.67028L0.00464246 8.69843L0.130438 8.73812C1.08169 9.03508 1.93066 9.17196 2.66806 9.21509V8.66354C2.66836 7.4538 3.47615 6.42992 4.58091 6.1012Z" fill="white"/>
</svg>
