<svg width="147" height="81" viewBox="0 0 147 81" fill="none" xmlns="http://www.w3.org/2000/svg">
<path d="M78.8861 67.4629H78.2357L78.0804 65.8064H74.1187V59.2822H75.0544V64.9593H77.1975V59.2822H78.1332V64.9593H78.8867V67.4635H78.8861V67.4629Z" fill="white"/>
<path d="M83.7445 65.3636C83.5358 65.5547 83.2727 65.7017 82.952 65.8063C82.6313 65.9108 82.2942 65.9623 81.9396 65.9623C81.5317 65.9623 81.1793 65.8822 80.8808 65.7214C80.5822 65.5605 80.3355 65.3297 80.1405 65.0292C79.9455 64.7288 79.8034 64.3706 79.712 63.9539C79.6216 63.5357 79.5757 63.067 79.5757 62.5442C79.5757 61.4306 79.7791 60.5825 80.1854 59.9992C80.5928 59.4164 81.1682 59.125 81.9127 59.125C82.1547 59.125 82.3956 59.1558 82.6339 59.2158C82.8717 59.2763 83.0862 59.3994 83.2764 59.5815C83.4677 59.7635 83.6204 60.0215 83.7377 60.3521C83.855 60.6833 83.9126 61.1122 83.9126 61.643C83.9126 61.7916 83.9062 61.9497 83.8935 62.1196C83.8798 62.2894 83.8645 62.4651 83.847 62.6472H80.5484C80.5484 63.0219 80.5791 63.3616 80.6388 63.6652C80.699 63.9704 80.7946 64.2294 80.9251 64.4422C81.0551 64.6561 81.2216 64.8217 81.4255 64.9385C81.6289 65.0552 81.8826 65.1142 82.1853 65.1142C82.4189 65.1142 82.6513 65.0696 82.8806 64.9836C83.11 64.8971 83.2859 64.7925 83.4059 64.671L83.7445 65.3636ZM83.0164 61.8653C83.0339 61.213 82.9435 60.7348 82.7438 60.4307C82.5441 60.1255 82.272 59.9742 81.9254 59.9742C81.527 59.9742 81.211 60.1255 80.9769 60.4307C80.7439 60.7359 80.6044 61.2136 80.5622 61.8653H83.0164Z" fill="white"/>
<path d="M88.4071 62.8973H86.1594V65.8064H85.2236V59.2822H86.1594V62.0491H88.4071V59.2822H89.3417V65.8064H88.4071V62.8973Z" fill="white"/>
<path d="M94.2397 60.1304H92.6419V65.8064H91.7062V60.1304H90.1084V59.2822H94.2392V60.1304H94.2397Z" fill="white"/>
<path d="M95.0186 59.2821H95.6812L95.8244 59.9875H95.8756C96.1969 59.4121 96.6988 59.1255 97.3831 59.1255C98.0673 59.1255 98.5798 59.3818 98.9227 59.8951C99.2641 60.4089 99.4352 61.248 99.4352 62.4152C99.4352 62.9629 99.3787 63.456 99.2662 63.896C99.1536 64.3344 98.9935 64.7092 98.7859 65.0186C98.5782 65.327 98.3246 65.5616 98.0261 65.7224C97.727 65.8832 97.3957 65.9634 97.0317 65.9634C96.7812 65.9634 96.5815 65.948 96.4341 65.9177C96.2872 65.8869 96.1266 65.8238 95.9538 65.7282V68.4171H95.0181V59.2831H95.0186V59.2821ZM95.9543 64.7755C96.0753 64.8801 96.2117 64.9634 96.3638 65.0239C96.5144 65.0844 96.7163 65.1147 96.9667 65.1147C97.4259 65.1147 97.7899 64.8801 98.0583 64.4109C98.3262 63.9406 98.4609 63.2697 98.4609 62.4008C98.4609 62.0352 98.4366 61.705 98.3896 61.4088C98.3426 61.1127 98.2665 60.8595 98.1619 60.6456C98.0583 60.4328 97.9267 60.2677 97.7651 60.1493C97.605 60.0326 97.4079 59.9737 97.1743 59.9737C96.5419 59.9737 96.1345 60.3606 95.9533 61.1355V64.775H95.9543V64.7755Z" fill="white"/>
<path d="M3.11844 72.7123H0.935744V78.3894H0V71.8652H4.0526V78.3894H3.11844V72.7123Z" fill="white"/>
<path d="M5.58594 71.8636H6.24851L6.3917 72.569H6.44296C6.7642 71.9936 7.26616 71.707 7.9504 71.707C8.63464 71.707 9.14716 71.9634 9.49007 72.4766C9.8314 72.9904 10.0026 73.8296 10.0026 74.9967C10.0026 75.5445 9.94605 76.0376 9.83351 76.4776C9.72097 76.916 9.56087 77.2907 9.35322 77.6001C9.14557 77.9085 8.89195 78.1431 8.59342 78.3039C8.29437 78.4648 7.96308 78.5449 7.59903 78.5449C7.34858 78.5449 7.14886 78.5295 7.00144 78.4993C6.85456 78.4685 6.69393 78.4053 6.52115 78.3098V80.9981H5.58699V71.8636H5.58594ZM6.52168 77.3565C6.64268 77.4611 6.779 77.5444 6.93117 77.6049C7.08175 77.6654 7.28359 77.6957 7.53404 77.6957C7.99319 77.6957 8.35724 77.4611 8.62565 76.9919C8.89354 76.5216 9.02827 75.8507 9.02827 74.9819C9.02827 74.6162 9.00397 74.286 8.95694 73.9899C8.90992 73.6937 8.83383 73.4405 8.72921 73.2266C8.62565 73.0138 8.49409 72.8487 8.33241 72.7303C8.17231 72.6136 7.97523 72.5547 7.74169 72.5547C7.10923 72.5547 6.70186 72.9416 6.52063 73.7165V77.356H6.52168V77.3565Z" fill="white"/>
<path d="M15.121 77.9457C14.9123 78.1367 14.6492 78.2838 14.3284 78.3883C14.0077 78.4929 13.6706 78.5444 13.3161 78.5444C12.9082 78.5444 12.5558 78.4642 12.2572 78.3034C11.9587 78.1426 11.7119 77.9117 11.517 77.6113C11.322 77.3109 11.1799 76.9526 11.0885 76.5359C10.9981 76.1177 10.9521 75.649 10.9521 75.1262C10.9521 74.0127 11.1556 73.1645 11.5619 72.5812C11.9693 71.9984 12.5447 71.707 13.2891 71.707C13.5311 71.707 13.7721 71.7378 14.0104 71.7978C14.2481 71.8583 14.4626 71.9814 14.6529 72.1635C14.8441 72.3455 14.9968 72.6035 15.1141 72.9342C15.2314 73.2643 15.289 73.6942 15.289 74.225C15.289 74.3736 15.2827 74.5318 15.27 74.7016C15.2563 74.8715 15.2409 75.0471 15.2246 75.2292H11.9254C11.9254 75.6039 11.9561 75.9436 12.0158 76.2472C12.076 76.5524 12.1716 76.8114 12.3021 77.0242C12.4321 77.2381 12.5986 77.4037 12.8025 77.5205C13.0059 77.6373 13.2595 77.6962 13.5623 77.6962C13.7958 77.6962 14.0283 77.6516 14.2576 77.5656C14.4869 77.4791 14.6629 77.3745 14.7828 77.253L15.121 77.9457ZM14.3929 74.4474C14.4103 73.7951 14.32 73.3168 14.1203 73.0127C13.9205 72.7075 13.6484 72.5563 13.3018 72.5563C12.9034 72.5563 12.5875 72.7075 12.3534 73.0127C12.1204 73.3179 11.9809 73.7956 11.9386 74.4474H14.3929Z" fill="white"/>
<path d="M21.1219 80.045H20.4725L20.3166 78.3884H16.4717L16.3037 80.045H15.667V77.5403H16.2767C16.3285 77.4447 16.4009 77.2685 16.4913 77.0127C16.5816 76.7548 16.6709 76.3986 16.7575 75.9421C16.8437 75.4857 16.9198 74.9225 16.9853 74.2522C17.0497 73.5829 17.0867 72.7867 17.0957 71.8643H20.3563V77.5403H21.1229V80.045H21.1219ZM19.4195 77.5403V72.7114H17.9517C17.9342 73.0861 17.9105 73.4942 17.8809 73.939C17.8497 74.3817 17.8048 74.8233 17.744 75.2638C17.6838 75.7038 17.6093 76.1226 17.5232 76.5228C17.4365 76.9235 17.3366 77.2616 17.2241 77.5408C17.2241 77.5403 19.4195 77.5403 19.4195 77.5403Z" fill="white"/>
<path d="M25.2136 72.7123H23.0314V78.3894H22.0957V71.8652H26.1483V78.3894H25.2136V72.7123Z" fill="white"/>
<path d="M27.6812 71.8636H28.3438L28.487 72.569H28.5382C28.8595 71.9936 29.3614 71.707 30.0457 71.707C30.7299 71.707 31.2424 71.9634 31.5853 72.4766C31.9267 72.9904 32.0978 73.8296 32.0978 74.9967C32.0978 75.5445 32.0413 76.0376 31.9288 76.4776C31.8162 76.916 31.6561 77.2907 31.4485 77.6001C31.2408 77.9085 30.9872 78.1431 30.6887 78.3039C30.3896 78.4648 30.0583 78.5449 29.6943 78.5449C29.4438 78.5449 29.2441 78.5295 29.0967 78.4993C28.9488 78.4685 28.7892 78.4053 28.6164 78.3098V80.9981H27.6807V71.8652H27.6812V71.8636ZM28.6169 77.3565C28.7379 77.4611 28.8743 77.5444 29.0264 77.6049C29.177 77.6654 29.3788 77.6957 29.6293 77.6957C30.0885 77.6957 30.4525 77.4611 30.7209 76.9919C30.9888 76.5216 31.1235 75.8507 31.1235 74.9819C31.1235 74.6162 31.0992 74.286 31.0522 73.9899C31.0052 73.6937 30.9291 73.4405 30.8245 73.2266C30.7209 73.0138 30.5893 72.8487 30.4277 72.7303C30.2676 72.6136 30.0705 72.5547 29.8369 72.5547C29.2045 72.5547 28.7971 72.9416 28.6159 73.7165V77.356H28.6169V77.3565Z" fill="white"/>
<path d="M36.5667 74.6312L36.6444 73.6391H36.5921L36.1377 74.7357L33.9428 78.3884H33.332V71.8643H34.2678V75.7405L34.1896 76.6932H34.2414L34.6699 75.6226L36.8917 71.8653H37.5014V78.3895H36.5667V74.6312Z" fill="white"/>
<path d="M42.2166 75.4793H39.9689V78.3884H39.0332V71.8643H39.9689V74.6312H42.2166V71.8643H43.1513V78.3884H42.2166V75.4793Z" fill="white"/>
<path d="M47.906 74.6312L47.9837 73.6391H47.9319L47.4775 74.7357L45.2827 78.3884H44.6719V71.8643H45.6076V75.7405L45.5294 76.6932H45.5812L46.0097 75.6226L48.2315 71.8653H48.8413V78.3895H47.9066V74.6312H47.906Z" fill="white"/>
<path d="M54.6855 74.5128L54.7769 73.2729H54.7252L54.3352 74.3817L53.1268 76.888H52.7897L51.5296 74.3817L51.1793 73.2729H51.1148L51.2184 74.5006V78.389H50.374V71.8648H51.3098L52.7258 74.697L53.0111 75.5451H53.0375L53.3498 74.671L54.6618 71.8643H55.6234V78.3884H54.6876V74.5133H54.6855V74.5128Z" fill="white"/>
<path d="M57.0891 72.2555C57.3396 72.0995 57.6455 71.978 58.0048 71.8898C58.3641 71.8033 58.7424 71.7593 59.1413 71.7593C59.5054 71.7593 59.7976 71.8134 60.0174 71.9228C60.2388 72.0321 60.4116 72.1791 60.5368 72.3654C60.6631 72.5533 60.7455 72.7661 60.7835 73.0055C60.8232 73.2449 60.8422 73.4944 60.8422 73.755C60.8422 74.2767 60.8306 74.7868 60.8078 75.282C60.7856 75.7782 60.7746 76.2469 60.7746 76.6917C60.7746 77.0218 60.7862 77.3286 60.8078 77.611C60.8306 77.8949 60.8718 78.1614 60.9325 78.4135H60.2002L59.9735 77.6439H59.9218C59.7923 77.8705 59.6037 78.0653 59.3548 78.2314C59.1059 78.3965 58.7699 78.4783 58.3493 78.4783C57.8849 78.4783 57.505 78.3164 57.208 77.9894C56.9111 77.6635 56.7637 77.2124 56.7637 76.6381C56.7637 76.265 56.8255 75.9507 56.9502 75.6992C57.0749 75.4476 57.2508 75.2427 57.4786 75.0867C57.7063 74.9306 57.9773 74.8181 58.2901 74.7533C58.604 74.6886 58.9538 74.6562 59.34 74.6562C59.4261 74.6562 59.5123 74.6562 59.5973 74.6562C59.6835 74.6562 59.7738 74.661 59.8684 74.67C59.8943 74.3998 59.907 74.1605 59.907 73.9513C59.907 73.4567 59.834 73.108 59.6877 72.9073C59.5424 72.7067 59.2756 72.6069 58.8898 72.6069C58.65 72.6069 58.3879 72.6451 58.1057 72.7194C57.822 72.7922 57.5864 72.8861 57.3977 73.0002L57.0891 72.2555ZM59.8827 75.4136C59.7965 75.4046 59.7115 75.3982 59.6259 75.394C59.5397 75.3892 59.4547 75.3876 59.3691 75.3876C59.1635 75.3876 58.9617 75.4046 58.7662 75.4391C58.5691 75.4741 58.3937 75.5346 58.2399 75.6211C58.0862 75.7092 57.9636 75.826 57.8743 75.9746C57.7845 76.1217 57.739 76.3095 57.739 76.5362C57.739 76.8833 57.8231 77.1535 57.9895 77.3445C58.1565 77.5356 58.3726 77.6312 58.6373 77.6312C58.9966 77.6312 59.2745 77.5446 59.4716 77.3705C59.6681 77.1959 59.805 77.0048 59.8827 76.7968V75.4141V75.4136Z" fill="white"/>
<path d="M65.728 72.7124H64.1302V78.3895H63.1945V72.7124H61.5967V71.8643H65.7275V72.7124H65.728Z" fill="white"/>
<path d="M70.2353 77.9457C70.0265 78.1367 69.7634 78.2838 69.4427 78.3883C69.122 78.4929 68.7849 78.5444 68.4303 78.5444C68.0224 78.5444 67.67 78.4642 67.3715 78.3034C67.073 78.1426 66.8262 77.9117 66.6312 77.6113C66.4363 77.3109 66.2941 76.9526 66.2027 76.5359C66.1124 76.1177 66.0664 75.649 66.0664 75.1262C66.0664 74.0127 66.2698 73.1645 66.6761 72.5812C67.0835 71.9984 67.6589 71.707 68.4034 71.707C68.6454 71.707 68.8863 71.7378 69.1246 71.7978C69.3624 71.8583 69.5769 71.9814 69.7671 72.1635C69.9584 72.3455 70.1111 72.6035 70.2284 72.9342C70.3457 73.2643 70.4033 73.6942 70.4033 74.225C70.4033 74.3736 70.3969 74.5318 70.3843 74.7016C70.3705 74.8715 70.3552 75.0471 70.3378 75.2292H67.0391C67.0391 75.6039 67.0698 75.9436 67.1295 76.2472C67.1897 76.5524 67.2854 76.8114 67.4159 77.0242C67.5458 77.2381 67.7123 77.4037 67.9162 77.5205C68.1197 77.6373 68.3733 77.6962 68.676 77.6962C68.9096 77.6962 69.1421 77.6516 69.3714 77.5656C69.6007 77.4791 69.7766 77.3745 69.8966 77.253L70.2353 77.9457ZM69.5077 74.4474C69.5251 73.7951 69.4348 73.3168 69.2351 73.0127C69.0353 72.7075 68.7632 72.5563 68.4166 72.5563C68.0182 72.5563 67.7022 72.7075 67.4682 73.0127C67.2352 73.3179 67.0957 73.7956 67.0534 74.4474H69.5077Z" fill="white"/>
<path d="M74.3273 72.7119H72.9112C72.8853 73.4523 72.851 74.1667 72.8071 74.8588C72.7638 75.551 72.6882 76.1619 72.5794 76.6926C72.4711 77.2234 72.3173 77.647 72.1187 77.9638C71.9189 78.2828 71.6548 78.4405 71.3261 78.4405C71.1792 78.4405 71.0535 78.433 70.9494 78.4144C70.8458 78.3975 70.7497 78.3677 70.6641 78.3248L70.8062 77.5148C70.988 77.5663 71.1502 77.5562 71.2933 77.4814C71.4355 77.4071 71.5597 77.1809 71.6632 76.8014C71.7673 76.4219 71.8518 75.8424 71.9168 75.0616C71.9813 74.2814 72.0273 73.2156 72.0537 71.8643H75.2619V78.3884H74.3262V72.7124H74.3273V72.7119Z" fill="white"/>
<path d="M77.7307 74.3562C77.9034 74.3212 78.0678 74.2973 78.2242 74.2851C78.38 74.2713 78.528 74.2655 78.6659 74.2655C79.0299 74.2655 79.3374 74.3153 79.5884 74.4151C79.8389 74.5154 80.0428 74.6513 80.1982 74.8265C80.354 75.0011 80.4671 75.2076 80.5363 75.4454C80.605 75.6847 80.6399 75.94 80.6399 76.2102C80.6399 77 80.4497 77.5753 80.0682 77.9315C79.6867 78.2876 79.0896 78.467 78.2759 78.467C77.765 78.467 77.2715 78.4394 76.7949 78.3885V71.8643H77.7307V74.3562ZM77.7307 77.5403C77.9901 77.5918 78.2284 77.6188 78.445 77.6188C79.2587 77.6188 79.6661 77.1884 79.6661 76.3264C79.6661 75.9347 79.571 75.629 79.3797 75.4071C79.1895 75.1837 78.8862 75.0738 78.4709 75.0738C78.3584 75.0738 78.2379 75.0802 78.1079 75.0934C77.9769 75.1072 77.8522 75.1317 77.7312 75.1646V77.5403H77.7307Z" fill="white"/>
<path d="M85.1731 78.0628C84.956 78.2279 84.7092 78.3494 84.4324 78.4285C84.1555 78.506 83.8654 78.5453 83.5621 78.5453C83.1463 78.5453 82.7955 78.4652 82.5091 78.3043C82.2238 78.1435 81.9923 77.9126 81.8148 77.6122C81.6373 77.3118 81.5073 76.9509 81.4249 76.5294C81.3424 76.108 81.3018 75.6409 81.3018 75.1277C81.3018 74.0141 81.4983 73.166 81.8925 72.5827C82.2866 71.9999 82.852 71.7085 83.588 71.7085C83.9262 71.7085 84.2163 71.7393 84.4588 71.7993C84.7018 71.8598 84.9089 71.9383 85.0823 72.0339L84.8228 72.856C84.4762 72.6554 84.0995 72.5556 83.6921 72.5556C83.2245 72.5556 82.8715 72.7621 82.6338 73.1761C82.3955 73.589 82.2766 74.2392 82.2766 75.1272C82.2766 75.4833 82.3025 75.8177 82.3543 76.1314C82.4061 76.444 82.4922 76.7173 82.6137 76.9472C82.7358 77.178 82.8906 77.3601 83.0813 77.4949C83.2715 77.6303 83.5098 77.6966 83.7962 77.6966C84.0213 77.6966 84.231 77.6568 84.426 77.5798C84.621 77.5013 84.7784 77.41 84.9005 77.3054L85.1731 78.0628Z" fill="white"/>
<path d="M89.4599 72.7124H87.8622V78.3895H86.9264V72.7124H85.3286V71.8643H89.4594V72.7124H89.4599Z" fill="white"/>
<path d="M90.2389 71.878C90.4809 71.8594 90.7451 71.8382 91.031 71.8132C91.3173 71.7872 91.6592 71.7734 92.057 71.7734C92.7582 71.7734 93.2607 71.9056 93.5645 72.171C93.8672 72.4364 94.0189 72.8387 94.0189 73.3785C94.0189 73.6837 93.9481 73.9788 93.8044 74.2654C93.6622 74.552 93.4213 74.7707 93.0831 74.9177V74.9692C93.499 75.0663 93.7933 75.242 93.9661 75.4984C94.1399 75.7547 94.2255 76.105 94.2255 76.5482C94.2255 77.2265 94.0258 77.7175 93.6279 78.0227C93.229 78.3279 92.6367 78.4791 91.8478 78.4791C91.553 78.4791 91.2714 78.4685 91.0035 78.4468C90.7345 78.4239 90.4799 78.4011 90.2368 78.3741V71.8769H90.2389V71.878ZM92.1358 74.6438C92.2568 74.6438 92.3735 74.6162 92.4861 74.5589C92.5986 74.5032 92.7006 74.4267 92.7915 74.3312C92.8829 74.2357 92.9537 74.1247 93.006 73.9995C93.0578 73.8732 93.0837 73.7405 93.0837 73.6003C93.0837 73.2622 93.0039 73.0128 92.8438 72.8567C92.6837 72.7007 92.4089 72.6221 92.019 72.6221C91.8114 72.6221 91.6465 72.6269 91.525 72.6359C91.4029 72.6434 91.2872 72.6529 91.1747 72.6619V74.6449H92.1353V74.6438H92.1358ZM91.1747 77.5806C91.3047 77.5975 91.4272 77.6113 91.5445 77.6204C91.6618 77.6278 91.8066 77.6326 91.9794 77.6326C92.4211 77.6326 92.7439 77.5418 92.9468 77.3582C93.1503 77.1761 93.2522 76.8799 93.2522 76.4723C93.2522 76.1581 93.1656 75.9002 92.9928 75.6953C92.82 75.4904 92.5035 75.3885 92.0444 75.3885H91.1741V77.5806H91.1747Z" fill="white"/>
<path d="M95.409 72.2555C95.6594 72.0995 95.9653 71.978 96.3246 71.8898C96.6839 71.8033 97.0622 71.7593 97.4612 71.7593C97.8252 71.7593 98.1174 71.8134 98.3372 71.9228C98.5586 72.0321 98.7314 72.1791 98.8566 72.3654C98.9829 72.5533 99.0653 72.7661 99.1033 73.0055C99.143 73.2449 99.162 73.4944 99.162 73.755C99.162 74.2767 99.1504 74.7868 99.1276 75.282C99.1055 75.7782 99.0944 76.2469 99.0944 76.6917C99.0944 77.0218 99.106 77.3286 99.1276 77.611C99.1504 77.8949 99.1916 78.1614 99.2523 78.4135H98.52L98.2934 77.6439H98.2416C98.1121 77.8705 97.9235 78.0653 97.6746 78.2314C97.4258 78.3976 97.0897 78.4783 96.6691 78.4783C96.2047 78.4783 95.8248 78.3164 95.5279 77.9894C95.2309 77.6635 95.0835 77.2124 95.0835 76.6381C95.0835 76.265 95.1453 75.9507 95.27 75.6992C95.3947 75.4476 95.5707 75.2427 95.7984 75.0867C96.0261 74.9306 96.2972 74.8181 96.61 74.7533C96.9238 74.6886 97.2736 74.6562 97.6598 74.6562C97.746 74.6562 97.8321 74.6562 97.9171 74.6562C98.0033 74.6562 98.0936 74.661 98.1882 74.67C98.2141 74.3998 98.2268 74.1605 98.2268 73.9513C98.2268 73.4567 98.1539 73.108 98.0075 72.9073C97.8622 72.7067 97.5954 72.6069 97.2097 72.6069C96.9698 72.6069 96.7077 72.6451 96.4256 72.7194C96.1418 72.7922 95.9062 72.8861 95.7175 73.0002L95.409 72.2555ZM98.2025 75.4136C98.1163 75.4046 98.0313 75.3982 97.9457 75.394C97.8596 75.3892 97.7745 75.3876 97.6889 75.3876C97.4834 75.3876 97.2815 75.4046 97.086 75.4391C96.8889 75.4741 96.7135 75.5346 96.5598 75.6211C96.406 75.7092 96.2834 75.826 96.1941 75.9746C96.1043 76.1217 96.0589 76.3095 96.0589 76.5362C96.0589 76.8833 96.1424 77.1535 96.3093 77.3445C96.4763 77.5356 96.6924 77.6312 96.9571 77.6312C97.3164 77.6312 97.5943 77.5446 97.7914 77.3705C97.9879 77.1959 98.1248 77.0048 98.2025 76.7968V75.4141V75.4136Z" fill="white"/>
<path d="M131.051 56.3053L125.899 51.1367L120.747 56.3053L125.898 67.1128L131.051 56.3053Z" fill="white"/>
<path d="M125.899 21.4072C123.921 21.4072 122.318 23.0176 122.318 25.0037C122.318 26.9898 123.921 28.6002 125.899 28.6002C127.876 28.6002 129.479 26.9898 129.479 25.0037C129.479 23.0176 127.876 21.4072 125.899 21.4072Z" fill="white"/>
<path d="M125.899 5.2666C124.808 5.82762 110.555 13.3937 110.555 25.483C110.555 35.8239 118.944 51.5075 118.944 51.5075L125.899 44.5088L132.854 51.5075C132.854 51.5075 141.243 35.8239 141.243 25.483C141.243 13.3937 126.99 5.82762 125.899 5.2666ZM130.491 39.7871L125.899 35.1663L121.307 39.7871C121.072 39.146 117.996 30.7811 117.996 25.3237C117.996 17.9615 125.346 13.8369 125.899 13.5349C126.451 13.8369 133.801 17.9615 133.801 25.3237C133.801 30.7811 130.725 39.146 130.491 39.7871Z" fill="white"/>
<path d="M141.242 -0.000210495L135.998 5.26758L141.242 10.5354L146.486 5.26757L141.242 -0.000210495Z" fill="white"/>
<path d="M91.9189 10.5342C91.9189 11.6361 91.4222 12.2762 90.562 12.2762C89.7019 12.2762 89.2073 11.5978 89.2073 10.5342H84.7505C84.8752 13.8143 86.7631 16.0276 90.6307 16.0276C94.1988 16.0276 96.2357 13.7533 96.3731 10.5342H91.9189Z" fill="white"/>
<path d="M82.4932 32.6445L82.4953 17.2305H87.6442C87.6442 17.2305 87.6421 23.8815 87.6421 24.4075C87.6421 24.9324 87.5322 25.529 87.5322 25.529H87.7541L93.3586 17.2305H98.284V32.6445H93.1351V25.4016C93.1351 24.8841 93.2476 24.3932 93.2476 24.3932H93.0241L87.4197 32.6445H82.4932Z" fill="white"/>
<path d="M71.8717 16.8374C76.7585 16.8374 80.4017 20.3076 80.4017 24.9603C80.4017 29.5668 76.7585 33.0391 71.8717 33.0391C67.0339 33.0391 63.3887 29.5668 63.3887 24.9603C63.3887 20.3076 67.0339 16.8374 71.8717 16.8374ZM71.8717 28.2473C73.7389 28.2473 74.9827 26.7882 74.9827 24.9603C74.9827 23.0856 73.7389 21.6276 71.8717 21.6276C70.0525 21.6276 68.7617 23.0856 68.7617 24.9603C68.7617 26.7882 70.0525 28.2473 71.8717 28.2473Z" fill="white"/>
<path d="M57.2197 17.2275C57.2197 17.2275 52.9193 22.8425 52.746 23.0548C52.5341 23.3181 52.5161 23.4598 52.5161 23.4598H52.2926C52.2926 23.4598 52.2504 23.3075 52.048 23.0548C51.7452 22.678 47.29 17.2275 47.29 17.2275H43.2295V32.641H48.1919V26.1704C48.1919 25.4725 48.0799 25.0479 48.0799 25.0479H48.304L52.2937 29.6523H52.5087L56.2063 25.0479H56.4287C56.4287 25.0479 56.3178 25.4666 56.3178 26.1704V32.641H61.2818V17.2275H57.2197Z" fill="white"/>
<path d="M10.306 35.8991C7.71062 35.8991 4.99374 37.3476 4.00357 39.5088L3.86197 39.5072C3.91692 39.2822 4.00991 39.0603 4.02523 38.847C4.26617 35.5265 5.58498 32.8833 8.14388 31.9688C9.75277 31.3939 11.3485 31.162 12.5653 30.9019C13.8667 30.6238 15.2019 30.299 15.9865 30.0644L15.1205 27.4546C13.6944 27.8495 12.3671 28.1361 10.1348 28.5931C9.19111 28.7863 8.16079 28.9524 6.95399 29.463C2.85701 31.1954 1.06055 34.656 1.06055 41.1802C1.06055 47.0409 3.97187 51.666 9.55463 51.666C14.6856 51.666 17.8036 47.6418 17.8036 43.5984C17.8036 38.9329 14.8283 35.8991 10.306 35.8991ZM9.56203 49.0626C6.12973 49.0626 4.16314 45.8929 4.16314 42.2768C4.97419 40.1712 7.49663 38.4717 9.62279 38.4717C12.7301 38.4717 14.7115 40.4133 14.7115 43.7353C14.7115 46.8196 12.4712 49.0626 9.56203 49.0626Z" fill="white"/>
<path d="M22.9968 46.7712C22.9968 46.7712 22.9393 46.7696 22.8558 46.7696C22.9223 46.5249 22.9968 46.1634 22.9968 45.8057V35.728H19.9365V51.1415H22.6819L31.4481 40.0617H31.5908C31.5205 40.3032 31.4471 40.7109 31.4471 41.0649V51.1415H34.51V35.728H31.7641L22.9968 46.7712Z" fill="white"/>
<path d="M46.1569 43.2404V43.1719C47.9671 42.5202 48.8547 41.3196 48.8547 39.5362C48.8547 36.963 46.7714 35.3081 43.0834 35.3081C40.9641 35.3081 38.7317 35.8994 36.8924 37.3128L38.0987 39.4996C39.4751 38.4136 41.2341 37.8744 42.6739 37.8744C44.6886 37.8744 45.7728 38.7124 45.7728 40.0845C45.7728 41.3196 44.8249 42.1895 43.2884 42.1895H40.8642V44.5848H43.459C45.3374 44.5848 46.2763 45.2303 46.2763 46.4993C46.2763 48.0088 44.7646 49.0374 42.4731 49.0374C40.8584 49.0374 38.9663 48.3395 37.7368 47.3443L36.5273 49.5645C37.8615 50.7789 40.1631 51.6663 42.8445 51.6663C46.5304 51.6663 49.3504 49.7237 49.3504 46.8767C49.3504 44.9898 48.2059 43.4803 46.1569 43.2404Z" fill="white"/>
<path d="M62.7778 42.0511H54.5437V35.7275H51.4834V51.1415H54.5437V44.4464H62.7778V51.1415H65.8408V35.7275H62.7778V42.0511Z" fill="white"/>
<path d="M75.4321 35.3086C70.9193 35.3086 67.9731 38.8711 67.9731 43.5684C67.9731 48.2052 70.9362 51.6663 76.3129 51.6663C78.9078 51.6663 81.1169 50.8664 82.7073 49.5645L81.4978 47.3448C80.3196 48.2322 78.5231 49.0597 76.4017 49.0597C73.0434 49.0597 71.4202 47.2259 71.1259 44.5317H71.1365H82.8637C82.8954 44.2159 82.9144 43.8964 82.9144 43.5684C82.9144 38.8711 80.6556 35.3086 75.4321 35.3086ZM71.1708 42.1337C71.5603 39.7469 73.2981 37.894 75.5822 37.894C78.3509 37.894 79.6956 39.7628 79.9381 42.1337H71.1708Z" fill="white"/>
<path d="M93.4528 48.9981C90.3285 48.9981 88.028 46.6388 88.028 43.2907C88.028 40.4304 89.8631 37.9417 93.2769 37.9417C94.8287 37.9417 96.3927 38.3541 98.1891 39.5154C98.1891 39.5154 98.9685 38.1046 99.434 37.2506C97.5958 35.9407 95.4722 35.291 93.1955 35.291C88.2526 35.291 84.9365 38.7766 84.9365 43.4738C84.9365 48.0501 88.2425 51.6662 93.2462 51.6662C95.6994 51.6662 97.8393 50.9582 99.4303 49.6562L98.2208 47.436C97.042 48.324 95.337 48.9981 93.4528 48.9981Z" fill="white"/>
</svg>
