<svg width="147" height="81" viewBox="0 0 147 81" fill="none" xmlns="http://www.w3.org/2000/svg">
<path d="M78.8861 67.4649H78.2357L78.0804 65.8084H74.1187V59.2842H75.0544V64.9613H77.1975V59.2842H78.1332V64.9613H78.8867V67.4654H78.8861V67.4649Z" fill="#623B2A"/>
<path d="M83.7445 65.3652C83.5358 65.5563 83.2727 65.7033 82.952 65.8079C82.6313 65.9124 82.2942 65.9639 81.9396 65.9639C81.5317 65.9639 81.1793 65.8838 80.8808 65.7229C80.5822 65.5621 80.3355 65.3312 80.1405 65.0308C79.9455 64.7304 79.8034 64.3721 79.712 63.9555C79.6216 63.5373 79.5757 63.0686 79.5757 62.5458C79.5757 61.4322 79.7791 60.5841 80.1854 60.0008C80.5928 59.418 81.1682 59.1266 81.9127 59.1266C82.1547 59.1266 82.3956 59.1574 82.6339 59.2173C82.8717 59.2779 83.0862 59.401 83.2764 59.583C83.4677 59.7651 83.6204 60.023 83.7377 60.3537C83.855 60.6849 83.9126 61.1138 83.9126 61.6445C83.9126 61.7932 83.9062 61.9513 83.8935 62.1212C83.8798 62.291 83.8645 62.4667 83.847 62.6487H80.5484C80.5484 63.0235 80.5791 63.3632 80.6388 63.6668C80.699 63.9719 80.7946 64.231 80.9251 64.4438C81.0551 64.6577 81.2216 64.8233 81.4255 64.9401C81.6289 65.0568 81.8826 65.1157 82.1853 65.1157C82.4189 65.1157 82.6513 65.0712 82.8806 64.9852C83.11 64.8987 83.2859 64.7941 83.4059 64.6726L83.7445 65.3652ZM83.0164 61.8669C83.0339 61.2146 82.9435 60.7364 82.7438 60.4323C82.5441 60.1271 82.272 59.9758 81.9254 59.9758C81.527 59.9758 81.211 60.1271 80.9769 60.4323C80.7439 60.7375 80.6044 61.2151 80.5622 61.8669H83.0164Z" fill="#623B2A"/>
<path d="M88.4071 62.8987H86.1594V65.8079H85.2236V59.2837H86.1594V62.0506H88.4071V59.2837H89.3417V65.8079H88.4071V62.8987Z" fill="#623B2A"/>
<path d="M94.2397 60.1319H92.6419V65.8079H91.7062V60.1319H90.1084V59.2837H94.2392V60.1319H94.2397Z" fill="#623B2A"/>
<path d="M95.0186 59.2838H95.6812L95.8244 59.9892H95.8756C96.1969 59.4138 96.6988 59.1272 97.3831 59.1272C98.0673 59.1272 98.5798 59.3836 98.9227 59.8968C99.2641 60.4106 99.4352 61.2497 99.4352 62.4169C99.4352 62.9646 99.3787 63.4577 99.2662 63.8977C99.1536 64.3361 98.9935 64.7109 98.7859 65.0203C98.5782 65.3287 98.3246 65.5633 98.0261 65.7241C97.727 65.8849 97.3957 65.9651 97.0317 65.9651C96.7812 65.9651 96.5815 65.9497 96.4341 65.9194C96.2872 65.8886 96.1266 65.8255 95.9538 65.7299V68.4188H95.0181V59.2848H95.0186V59.2838ZM95.9543 64.7772C96.0753 64.8818 96.2117 64.9651 96.3638 65.0256C96.5144 65.0861 96.7163 65.1164 96.9667 65.1164C97.4259 65.1164 97.7899 64.8818 98.0583 64.4126C98.3262 63.9423 98.4609 63.2714 98.4609 62.4026C98.4609 62.0369 98.4366 61.7067 98.3896 61.4106C98.3426 61.1144 98.2665 60.8612 98.1619 60.6473C98.0583 60.4345 97.9267 60.2694 97.7651 60.151C97.605 60.0343 97.4079 59.9754 97.1743 59.9754C96.5419 59.9754 96.1345 60.3623 95.9533 61.1372V64.7767H95.9543V64.7772Z" fill="#623B2A"/>
<path d="M3.11844 72.7137H0.935744V78.3907H0V71.8666H4.0526V78.3907H3.11844V72.7137Z" fill="#623B2A"/>
<path d="M5.58594 71.8656H6.24851L6.3917 72.5709H6.44296C6.7642 71.9956 7.26616 71.709 7.9504 71.709C8.63464 71.709 9.14716 71.9653 9.49007 72.4786C9.8314 72.9924 10.0026 73.8315 10.0026 74.9987C10.0026 75.5464 9.94605 76.0395 9.83351 76.4795C9.72097 76.9179 9.56087 77.2927 9.35322 77.6021C9.14557 77.9105 8.89195 78.1451 8.59342 78.3059C8.29437 78.4667 7.96308 78.5469 7.59903 78.5469C7.34858 78.5469 7.14886 78.5315 7.00144 78.5012C6.85456 78.4704 6.69393 78.4073 6.52115 78.3117V81.0001H5.58699V71.8656H5.58594ZM6.52168 77.3585C6.64268 77.463 6.779 77.5464 6.93117 77.6069C7.08175 77.6674 7.28359 77.6976 7.53404 77.6976C7.99319 77.6976 8.35724 77.463 8.62565 76.9938C8.89354 76.5236 9.02827 75.8527 9.02827 74.9838C9.02827 74.6181 9.00397 74.288 8.95694 73.9918C8.90992 73.6956 8.83383 73.4425 8.72921 73.2286C8.62565 73.0157 8.49409 72.8507 8.33241 72.7323C8.17231 72.6155 7.97523 72.5566 7.74169 72.5566C7.10923 72.5566 6.70186 72.9435 6.52063 73.7185V77.3579H6.52168V77.3585Z" fill="#623B2A"/>
<path d="M15.121 77.9476C14.9123 78.1387 14.6492 78.2857 14.3284 78.3903C14.0077 78.4948 13.6706 78.5463 13.3161 78.5463C12.9082 78.5463 12.5558 78.4662 12.2572 78.3053C11.9587 78.1445 11.7119 77.9136 11.517 77.6132C11.322 77.3128 11.1799 76.9545 11.0885 76.5379C10.9981 76.1196 10.9521 75.651 10.9521 75.1282C10.9521 74.0146 11.1556 73.1665 11.5619 72.5832C11.9693 72.0004 12.5447 71.709 13.2891 71.709C13.5311 71.709 13.7721 71.7398 14.0104 71.7997C14.2481 71.8602 14.4626 71.9834 14.6529 72.1654C14.8441 72.3475 14.9968 72.6054 15.1141 72.9361C15.2314 73.2663 15.289 73.6962 15.289 74.2269C15.289 74.3756 15.2827 74.5337 15.27 74.7036C15.2563 74.8734 15.2409 75.0491 15.2246 75.2312H11.9254C11.9254 75.6059 11.9561 75.9456 12.0158 76.2492C12.076 76.5543 12.1716 76.8134 12.3021 77.0262C12.4321 77.2401 12.5986 77.4057 12.8025 77.5225C13.0059 77.6392 13.2595 77.6981 13.5623 77.6981C13.7958 77.6981 14.0283 77.6536 14.2576 77.5676C14.4869 77.4811 14.6629 77.3765 14.7828 77.255L15.121 77.9476ZM14.3929 74.4493C14.4103 73.797 14.32 73.3188 14.1203 73.0147C13.9205 72.7095 13.6484 72.5582 13.3018 72.5582C12.9034 72.5582 12.5875 72.7095 12.3534 73.0147C12.1204 73.3199 11.9809 73.7975 11.9386 74.4493H14.3929Z" fill="#623B2A"/>
<path d="M21.1219 80.0467H20.4725L20.3166 78.3902H16.4717L16.3037 80.0467H15.667V77.542H16.2767C16.3285 77.4465 16.4009 77.2702 16.4913 77.0144C16.5816 76.7565 16.6709 76.4003 16.7575 75.9438C16.8437 75.4874 16.9198 74.9243 16.9853 74.2539C17.0497 73.5846 17.0867 72.7884 17.0957 71.866H20.3563V77.542H21.1229V80.0467H21.1219ZM19.4195 77.542V72.7131H17.9517C17.9342 73.0878 17.9105 73.496 17.8809 73.9407C17.8497 74.3834 17.8048 74.825 17.744 75.2655C17.6838 75.7055 17.6093 76.1243 17.5232 76.5245C17.4365 76.9252 17.3366 77.2633 17.2241 77.5425C17.2241 77.542 19.4195 77.542 19.4195 77.542Z" fill="#623B2A"/>
<path d="M25.2136 72.7137H23.0314V78.3907H22.0957V71.8666H26.1483V78.3907H25.2136V72.7137Z" fill="#623B2A"/>
<path d="M27.6812 71.8656H28.3438L28.487 72.5709H28.5382C28.8595 71.9956 29.3614 71.709 30.0457 71.709C30.7299 71.709 31.2424 71.9653 31.5853 72.4786C31.9267 72.9924 32.0978 73.8315 32.0978 74.9987C32.0978 75.5464 32.0413 76.0395 31.9288 76.4795C31.8162 76.9179 31.6561 77.2927 31.4485 77.6021C31.2408 77.9105 30.9872 78.1451 30.6887 78.3059C30.3896 78.4667 30.0583 78.5469 29.6943 78.5469C29.4438 78.5469 29.2441 78.5315 29.0967 78.5012C28.9488 78.4704 28.7892 78.4073 28.6164 78.3117V81.0001H27.6807V71.8671H27.6812V71.8656ZM28.6169 77.3585C28.7379 77.463 28.8743 77.5464 29.0264 77.6069C29.177 77.6674 29.3788 77.6976 29.6293 77.6976C30.0885 77.6976 30.4525 77.463 30.7209 76.9938C30.9888 76.5236 31.1235 75.8527 31.1235 74.9838C31.1235 74.6181 31.0992 74.288 31.0522 73.9918C31.0052 73.6956 30.9291 73.4425 30.8245 73.2286C30.7209 73.0157 30.5893 72.8507 30.4277 72.7323C30.2676 72.6155 30.0705 72.5566 29.8369 72.5566C29.2045 72.5566 28.7971 72.9435 28.6159 73.7185V77.3579H28.6169V77.3585Z" fill="#623B2A"/>
<path d="M36.5667 74.6329L36.6444 73.6409H36.5921L36.1377 74.7374L33.9428 78.3902H33.332V71.866H34.2678V75.7422L34.1896 76.6949H34.2414L34.6699 75.6243L36.8917 71.867H37.5014V78.3912H36.5667V74.6329Z" fill="#623B2A"/>
<path d="M42.2166 75.481H39.9689V78.3902H39.0332V71.866H39.9689V74.6329H42.2166V71.866H43.1513V78.3902H42.2166V75.481Z" fill="#623B2A"/>
<path d="M47.906 74.6329L47.9837 73.6409H47.9319L47.4775 74.7374L45.2827 78.3902H44.6719V71.866H45.6076V75.7422L45.5294 76.6949H45.5812L46.0097 75.6243L48.2315 71.867H48.8413V78.3912H47.9066V74.6329H47.906Z" fill="#623B2A"/>
<path d="M54.6855 74.514L54.7769 73.2741H54.7252L54.3352 74.3829L53.1268 76.8892H52.7897L51.5296 74.3829L51.1793 73.2741H51.1148L51.2184 74.5018V78.3902H50.374V71.866H51.3098L52.7258 74.6982L53.0111 75.5463H53.0375L53.3498 74.6722L54.6618 71.8655H55.6234V78.3897H54.6876V74.5145H54.6855V74.514Z" fill="#623B2A"/>
<path d="M57.0891 72.2573C57.3396 72.1012 57.6455 71.9797 58.0048 71.8916C58.3641 71.805 58.7424 71.761 59.1413 71.761C59.5054 71.761 59.7976 71.8151 60.0174 71.9245C60.2388 72.0338 60.4116 72.1808 60.5368 72.3671C60.6631 72.555 60.7455 72.7679 60.7835 73.0072C60.8232 73.2466 60.8422 73.4961 60.8422 73.7567C60.8422 74.2784 60.8306 74.7885 60.8078 75.2837C60.7856 75.78 60.7746 76.2486 60.7746 76.6934C60.7746 77.0235 60.7862 77.3303 60.8078 77.6127C60.8306 77.8967 60.8718 78.1631 60.9325 78.4152H60.2002L59.9735 77.6456H59.9218C59.7923 77.8722 59.6037 78.067 59.3548 78.2332C59.1059 78.3982 58.7699 78.48 58.3493 78.48C57.8849 78.48 57.505 78.3181 57.208 77.9911C56.9111 77.6652 56.7637 77.2141 56.7637 76.6398C56.7637 76.2667 56.8255 75.9525 56.9502 75.7009C57.0749 75.4493 57.2508 75.2444 57.4786 75.0884C57.7063 74.9323 57.9773 74.8198 58.2901 74.755C58.604 74.6903 58.9538 74.6579 59.34 74.6579C59.4261 74.6579 59.5123 74.6579 59.5973 74.6579C59.6835 74.6579 59.7738 74.6627 59.8684 74.6717C59.8943 74.4016 59.907 74.1622 59.907 73.9531C59.907 73.4584 59.834 73.1097 59.6877 72.909C59.5424 72.7084 59.2756 72.6086 58.8898 72.6086C58.65 72.6086 58.3879 72.6468 58.1057 72.7211C57.822 72.7939 57.5864 72.8878 57.3977 73.0019L57.0891 72.2573ZM59.8827 75.4153C59.7965 75.4063 59.7115 75.3999 59.6259 75.3957C59.5397 75.3909 59.4547 75.3893 59.3691 75.3893C59.1635 75.3893 58.9617 75.4063 58.7662 75.4408C58.5691 75.4758 58.3937 75.5363 58.2399 75.6228C58.0862 75.711 57.9636 75.8277 57.8743 75.9763C57.7845 76.1234 57.739 76.3113 57.739 76.5379C57.739 76.885 57.8231 77.1552 57.9895 77.3463C58.1565 77.5373 58.3726 77.6329 58.6373 77.6329C58.9966 77.6329 59.2745 77.5463 59.4716 77.3723C59.6681 77.1976 59.805 77.0066 59.8827 76.7985V75.4158V75.4153Z" fill="#623B2A"/>
<path d="M65.728 72.7136H64.1302V78.3907H63.1945V72.7136H61.5967V71.8655H65.7275V72.7136H65.728Z" fill="#623B2A"/>
<path d="M70.2353 77.9476C70.0265 78.1387 69.7634 78.2857 69.4427 78.3903C69.122 78.4948 68.7849 78.5463 68.4303 78.5463C68.0224 78.5463 67.67 78.4662 67.3715 78.3053C67.073 78.1445 66.8262 77.9136 66.6312 77.6132C66.4363 77.3128 66.2941 76.9545 66.2027 76.5379C66.1124 76.1196 66.0664 75.651 66.0664 75.1282C66.0664 74.0146 66.2698 73.1665 66.6761 72.5832C67.0835 72.0004 67.6589 71.709 68.4034 71.709C68.6454 71.709 68.8863 71.7398 69.1246 71.7997C69.3624 71.8602 69.5769 71.9834 69.7671 72.1654C69.9584 72.3475 70.1111 72.6054 70.2284 72.9361C70.3457 73.2663 70.4033 73.6962 70.4033 74.2269C70.4033 74.3756 70.3969 74.5337 70.3843 74.7036C70.3705 74.8734 70.3552 75.0491 70.3378 75.2312H67.0391C67.0391 75.6059 67.0698 75.9456 67.1295 76.2492C67.1897 76.5543 67.2854 76.8134 67.4159 77.0262C67.5458 77.2401 67.7123 77.4057 67.9162 77.5225C68.1197 77.6392 68.3733 77.6981 68.676 77.6981C68.9096 77.6981 69.1421 77.6536 69.3714 77.5676C69.6007 77.4811 69.7766 77.3765 69.8966 77.255L70.2353 77.9476ZM69.5077 74.4493C69.5251 73.797 69.4348 73.3188 69.2351 73.0147C69.0353 72.7095 68.7632 72.5582 68.4166 72.5582C68.0182 72.5582 67.7022 72.7095 67.4682 73.0147C67.2352 73.3199 67.0957 73.7975 67.0534 74.4493H69.5077Z" fill="#623B2A"/>
<path d="M74.3273 72.7136H72.9112C72.8853 73.454 72.851 74.1684 72.8071 74.8606C72.7638 75.5527 72.6882 76.1636 72.5794 76.6943C72.4711 77.2251 72.3173 77.6487 72.1187 77.9655C71.9189 78.2845 71.6548 78.4422 71.3261 78.4422C71.1792 78.4422 71.0535 78.4347 70.9494 78.4162C70.8458 78.3992 70.7497 78.3695 70.6641 78.3265L70.8062 77.5165C70.988 77.568 71.1502 77.5579 71.2933 77.4831C71.4355 77.4088 71.5597 77.1827 71.6632 76.8032C71.7673 76.4237 71.8518 75.8441 71.9168 75.0633C71.9813 74.2831 72.0273 73.2173 72.0537 71.866H75.2619V78.3901H74.3262V72.7141H74.3273V72.7136Z" fill="#623B2A"/>
<path d="M77.7307 74.3579C77.9034 74.3229 78.0678 74.299 78.2242 74.2868C78.38 74.273 78.528 74.2672 78.6659 74.2672C79.0299 74.2672 79.3374 74.3171 79.5884 74.4168C79.8389 74.5172 80.0428 74.653 80.1982 74.8282C80.354 75.0028 80.4671 75.2093 80.5363 75.4471C80.605 75.6864 80.6399 75.9417 80.6399 76.2119C80.6399 77.0017 80.4497 77.577 80.0682 77.9332C79.6867 78.2893 79.0896 78.4687 78.2759 78.4687C77.765 78.4687 77.2715 78.4411 76.7949 78.3902V71.866H77.7307V74.3579ZM77.7307 77.542C77.9901 77.5935 78.2284 77.6206 78.445 77.6206C79.2587 77.6206 79.6661 77.1901 79.6661 76.3281C79.6661 75.9364 79.571 75.6307 79.3797 75.4088C79.1895 75.1854 78.8862 75.0755 78.4709 75.0755C78.3584 75.0755 78.2379 75.0819 78.1079 75.0952C77.9769 75.109 77.8522 75.1334 77.7312 75.1663V77.542H77.7307Z" fill="#623B2A"/>
<path d="M85.1731 78.0643C84.956 78.2294 84.7092 78.3509 84.4324 78.43C84.1555 78.5075 83.8654 78.5468 83.5621 78.5468C83.1463 78.5468 82.7955 78.4666 82.5091 78.3058C82.2238 78.145 81.9923 77.9141 81.8148 77.6137C81.6373 77.3133 81.5073 76.9523 81.4249 76.5309C81.3424 76.1095 81.3018 75.6424 81.3018 75.1292C81.3018 74.0156 81.4983 73.1674 81.8925 72.5841C82.2866 72.0014 82.852 71.71 83.588 71.71C83.9262 71.71 84.2163 71.7407 84.4588 71.8007C84.7018 71.8612 84.9089 71.9398 85.0823 72.0353L84.8228 72.8575C84.4762 72.6569 84.0995 72.5571 83.6921 72.5571C83.2245 72.5571 82.8715 72.7635 82.6338 73.1775C82.3955 73.5905 82.2766 74.2407 82.2766 75.1286C82.2766 75.4848 82.3025 75.8192 82.3543 76.1328C82.4061 76.4455 82.4922 76.7188 82.6137 76.9486C82.7358 77.1795 82.8906 77.3616 83.0813 77.4964C83.2715 77.6317 83.5098 77.6981 83.7962 77.6981C84.0213 77.6981 84.231 77.6583 84.426 77.5813C84.621 77.5027 84.7784 77.4115 84.9005 77.3069L85.1731 78.0643Z" fill="#623B2A"/>
<path d="M89.4599 72.7136H87.8622V78.3907H86.9264V72.7136H85.3286V71.8655H89.4594V72.7136H89.4599Z" fill="#623B2A"/>
<path d="M90.2389 71.8792C90.4809 71.8606 90.7451 71.8394 91.031 71.8145C91.3173 71.7885 91.6592 71.7747 92.057 71.7747C92.7582 71.7747 93.2607 71.9068 93.5645 72.1722C93.8672 72.4376 94.0189 72.8399 94.0189 73.3797C94.0189 73.6849 93.9481 73.98 93.8044 74.2666C93.6622 74.5532 93.4213 74.7719 93.0831 74.9189V74.9704C93.499 75.0675 93.7933 75.2432 93.9661 75.4996C94.1399 75.7559 94.2255 76.1062 94.2255 76.5494C94.2255 77.2278 94.0258 77.7187 93.6279 78.0239C93.229 78.3291 92.6367 78.4804 91.8478 78.4804C91.553 78.4804 91.2714 78.4698 91.0035 78.448C90.7345 78.4252 90.4799 78.4023 90.2368 78.3753V71.8782H90.2389V71.8792ZM92.1358 74.645C92.2568 74.645 92.3735 74.6174 92.4861 74.5601C92.5986 74.5044 92.7006 74.428 92.7915 74.3324C92.8829 74.2369 92.9537 74.126 93.006 74.0007C93.0578 73.8744 93.0837 73.7417 93.0837 73.6016C93.0837 73.2635 93.0039 73.014 92.8438 72.858C92.6837 72.7019 92.4089 72.6234 92.019 72.6234C91.8114 72.6234 91.6465 72.6281 91.525 72.6372C91.4029 72.6446 91.2872 72.6541 91.1747 72.6632V74.6461H92.1353V74.645H92.1358ZM91.1747 77.5818C91.3047 77.5988 91.4272 77.6126 91.5445 77.6216C91.6618 77.629 91.8066 77.6338 91.9794 77.6338C92.4211 77.6338 92.7439 77.543 92.9468 77.3594C93.1503 77.1773 93.2522 76.8812 93.2522 76.4735C93.2522 76.1593 93.1656 75.9014 92.9928 75.6965C92.82 75.4916 92.5035 75.3897 92.0444 75.3897H91.1741V77.5818H91.1747Z" fill="#623B2A"/>
<path d="M95.409 72.2573C95.6594 72.1012 95.9653 71.9797 96.3246 71.8916C96.6839 71.805 97.0622 71.761 97.4612 71.761C97.8252 71.761 98.1174 71.8151 98.3372 71.9245C98.5586 72.0338 98.7314 72.1808 98.8566 72.3671C98.9829 72.555 99.0653 72.7679 99.1033 73.0072C99.143 73.2466 99.162 73.4961 99.162 73.7567C99.162 74.2784 99.1504 74.7885 99.1276 75.2837C99.1055 75.78 99.0944 76.2486 99.0944 76.6934C99.0944 77.0235 99.106 77.3303 99.1276 77.6127C99.1504 77.8967 99.1916 78.1631 99.2523 78.4152H98.52L98.2934 77.6456H98.2416C98.1121 77.8722 97.9235 78.067 97.6746 78.2332C97.4258 78.3993 97.0897 78.48 96.6691 78.48C96.2047 78.48 95.8248 78.3181 95.5279 77.9911C95.2309 77.6652 95.0835 77.2141 95.0835 76.6398C95.0835 76.2667 95.1453 75.9525 95.27 75.7009C95.3947 75.4493 95.5707 75.2444 95.7984 75.0884C96.0261 74.9323 96.2972 74.8198 96.61 74.755C96.9238 74.6903 97.2736 74.6579 97.6598 74.6579C97.746 74.6579 97.8321 74.6579 97.9171 74.6579C98.0033 74.6579 98.0936 74.6627 98.1882 74.6717C98.2141 74.4016 98.2268 74.1622 98.2268 73.9531C98.2268 73.4584 98.1539 73.1097 98.0075 72.909C97.8622 72.7084 97.5954 72.6086 97.2097 72.6086C96.9698 72.6086 96.7077 72.6468 96.4256 72.7211C96.1418 72.7939 95.9062 72.8878 95.7175 73.0019L95.409 72.2573ZM98.2025 75.4153C98.1163 75.4063 98.0313 75.3999 97.9457 75.3957C97.8596 75.3909 97.7745 75.3893 97.6889 75.3893C97.4834 75.3893 97.2815 75.4063 97.086 75.4408C96.8889 75.4758 96.7135 75.5363 96.5598 75.6228C96.406 75.711 96.2834 75.8277 96.1941 75.9763C96.1043 76.1234 96.0589 76.3113 96.0589 76.5379C96.0589 76.885 96.1424 77.1552 96.3093 77.3463C96.4763 77.5373 96.6924 77.6329 96.9571 77.6329C97.3164 77.6329 97.5943 77.5463 97.7914 77.3723C97.9879 77.1976 98.1248 77.0066 98.2025 76.7985V75.4158V75.4153Z" fill="#623B2A"/>
<path d="M131.051 56.3072L125.899 51.1385L120.746 56.3072L125.898 67.1146L131.051 56.3072Z" fill="#E04E39"/>
<path d="M125.899 21.4087C123.921 21.4087 122.318 23.019 122.318 25.0052C122.318 26.9913 123.921 28.6016 125.899 28.6016C127.876 28.6016 129.479 26.9913 129.479 25.0052C129.479 23.019 127.876 21.4087 125.899 21.4087Z" fill="#B6916A"/>
<path d="M125.899 5.26807C124.808 5.82909 110.555 13.3952 110.555 25.4844C110.555 35.8254 118.944 51.509 118.944 51.509L125.899 44.5103L132.854 51.509C132.854 51.509 141.243 35.8254 141.243 25.4844C141.243 13.3952 126.99 5.82909 125.899 5.26807ZM130.491 39.7886L125.899 35.1678L121.307 39.7886C121.072 39.1474 117.996 30.7826 117.996 25.3252C117.996 17.9629 125.346 13.8384 125.899 13.5364C126.451 13.8384 133.801 17.9629 133.801 25.3252C133.801 30.7826 130.725 39.1474 130.491 39.7886Z" fill="#C39367"/>
<path d="M141.242 0.00149849L135.998 5.26929L141.242 10.5371L146.486 5.26928L141.242 0.00149849Z" fill="#B6916A"/>
<path d="M91.9189 10.5359C91.9189 11.6378 91.4222 12.2779 90.562 12.2779C89.7019 12.2779 89.2073 11.5995 89.2073 10.5359H84.7505C84.8752 13.816 86.7631 16.0293 90.6307 16.0293C94.1988 16.0293 96.2357 13.755 96.3731 10.5359H91.9189Z" fill="#623B2A"/>
<path d="M82.4932 32.6461L82.4953 17.2321H87.6442C87.6442 17.2321 87.6421 23.8831 87.6421 24.4091C87.6421 24.934 87.5322 25.5306 87.5322 25.5306H87.7541L93.3586 17.2321H98.284V32.6461H93.1351V25.4032C93.1351 24.8857 93.2476 24.3948 93.2476 24.3948H93.0241L87.4197 32.6461H82.4932Z" fill="#623B2A"/>
<path d="M71.8717 16.8387C76.7585 16.8387 80.4017 20.3089 80.4017 24.9616C80.4017 29.5681 76.7585 33.0404 71.8717 33.0404C67.0339 33.0404 63.3887 29.5681 63.3887 24.9616C63.3887 20.3089 67.0339 16.8387 71.8717 16.8387ZM71.8717 28.2486C73.7389 28.2486 74.9827 26.7896 74.9827 24.9616C74.9827 23.0869 73.7389 21.6289 71.8717 21.6289C70.0525 21.6289 68.7617 23.0869 68.7617 24.9616C68.7617 26.7896 70.0525 28.2486 71.8717 28.2486Z" fill="#623B2A"/>
<path d="M57.2197 17.2289C57.2197 17.2289 52.9193 22.8439 52.746 23.0562C52.5341 23.3194 52.5161 23.4611 52.5161 23.4611H52.2926C52.2926 23.4611 52.2504 23.3088 52.048 23.0562C51.7452 22.6793 47.29 17.2289 47.29 17.2289H43.2295V32.6423H48.1919V26.1718C48.1919 25.4738 48.0799 25.0492 48.0799 25.0492H48.304L52.2937 29.6536H52.5087L56.2063 25.0492H56.4287C56.4287 25.0492 56.3178 25.468 56.3178 26.1718V32.6423H61.2818V17.2289H57.2197Z" fill="#623B2A"/>
<path d="M10.306 35.9007C7.71062 35.9007 4.99374 37.3491 4.00357 39.5104L3.86197 39.5088C3.91692 39.2838 4.00991 39.0619 4.02523 38.8486C4.26617 35.5281 5.58498 32.8849 8.14388 31.9703C9.75277 31.3955 11.3485 31.1636 12.5653 30.9035C13.8667 30.6254 15.2019 30.3006 15.9865 30.066L15.1205 27.4562C13.6944 27.8511 12.3671 28.1377 10.1348 28.5947C9.19111 28.7879 8.16079 28.954 6.95399 29.4646C2.85701 31.197 1.06055 34.6576 1.06055 41.1818C1.06055 47.0425 3.97187 51.6676 9.55463 51.6676C14.6856 51.6676 17.8036 47.6434 17.8036 43.6C17.8036 38.9345 14.8283 35.9007 10.306 35.9007ZM9.56203 49.0642C6.12973 49.0642 4.16314 45.8945 4.16314 42.2784C4.97419 40.1728 7.49663 38.4733 9.62279 38.4733C12.7301 38.4733 14.7115 40.4148 14.7115 43.7369C14.7115 46.8212 12.4712 49.0642 9.56203 49.0642Z" fill="#623B2A"/>
<path d="M22.9968 46.773C22.9968 46.773 22.9393 46.7714 22.8558 46.7714C22.9223 46.5267 22.9968 46.1653 22.9968 45.8075V35.7299H19.9365V51.1433H22.6819L31.4481 40.0636H31.5908C31.5205 40.3051 31.4471 40.7127 31.4471 41.0667V51.1433H34.51V35.7299H31.7641L22.9968 46.773Z" fill="#623B2A"/>
<path d="M46.1569 43.2418V43.1733C47.9671 42.5215 48.8547 41.3209 48.8547 39.5375C48.8547 36.9644 46.7714 35.3094 43.0834 35.3094C40.9641 35.3094 38.7317 35.9007 36.8924 37.3142L38.0987 39.5009C39.4751 38.415 41.2341 37.8757 42.6739 37.8757C44.6885 37.8757 45.7728 38.7138 45.7728 40.0858C45.7728 41.3209 44.8249 42.1908 43.2884 42.1908H40.8642V44.5862H43.459C45.3374 44.5862 46.2763 45.2316 46.2763 46.5007C46.2763 48.0102 44.7646 49.0388 42.4731 49.0388C40.8584 49.0388 38.9663 48.3408 37.7368 47.3456L36.5273 49.5658C37.8615 50.7802 40.1631 51.6677 42.8445 51.6677C46.5304 51.6677 49.3504 49.7251 49.3504 46.878C49.3504 44.9912 48.2059 43.4817 46.1569 43.2418Z" fill="#623B2A"/>
<path d="M62.7778 42.0528H54.5437V35.7292H51.4834V51.1432H54.5437V44.4482H62.7778V51.1432H65.8408V35.7292H62.7778V42.0528Z" fill="#623B2A"/>
<path d="M75.4321 35.3099C70.9193 35.3099 67.9731 38.8724 67.9731 43.5697C67.9731 48.2065 70.9362 51.6676 76.3129 51.6676C78.9078 51.6676 81.1169 50.8678 82.7073 49.5658L81.4978 47.3461C80.3196 48.2336 78.5231 49.061 76.4017 49.061C73.0434 49.061 71.4202 47.2272 71.1259 44.5331H71.1365H82.8637C82.8954 44.2173 82.9144 43.8977 82.9144 43.5697C82.9144 38.8724 80.6556 35.3099 75.4321 35.3099ZM71.1708 42.1351C71.5603 39.7482 73.2981 37.8953 75.5822 37.8953C78.3509 37.8953 79.6956 39.7641 79.9381 42.1351H71.1708Z" fill="#623B2A"/>
<path d="M93.4528 48.9995C90.3285 48.9995 88.028 46.6403 88.028 43.2922C88.028 40.4319 89.8631 37.9431 93.2769 37.9431C94.8287 37.9431 96.3927 38.3555 98.1891 39.5169C98.1891 39.5169 98.9685 38.1061 99.434 37.2521C97.5958 35.9421 95.4722 35.2925 93.1955 35.2925C88.2526 35.2925 84.9365 38.778 84.9365 43.4753C84.9365 48.0516 88.2425 51.6677 93.2462 51.6677C95.6994 51.6677 97.8393 50.9596 99.4303 49.6577L98.2208 47.4375C97.042 48.3255 95.337 48.9995 93.4528 48.9995Z" fill="#623B2A"/>
</svg>
