<svg width="55" height="55" viewBox="0 0 55 55" fill="none" xmlns="http://www.w3.org/2000/svg">
<g clip-path="url(#clip0)">
<path d="M50.244 18.9258H37.9986V8.99707C37.9986 6.41682 35.878 4.2963 33.2978 4.2963H4.70078C2.12061 4.2963 0 6.41682 0 8.99707V26.2068C0 28.787 2.12061 30.9076 4.70078 30.9076H7.48326L10.9889 35.6083C11.185 35.9393 11.5834 36.0741 11.9818 36.0741C12.3802 36.0741 12.7112 35.878 12.9747 35.6083L16.4804 30.9076H17.0074V40.8363C17.0074 43.4165 19.128 45.537 21.7082 45.537H38.5196L42.0252 50.2378C42.2213 50.5687 42.6197 50.7036 43.0181 50.7036C43.4165 50.7036 43.7475 50.5075 44.011 50.2378L47.5167 45.537H50.2991C52.8794 45.537 54.9999 43.4164 54.9999 40.8363V23.6265C55.0061 21.0402 52.8917 18.9258 50.244 18.9258ZM15.8246 28.456C15.4262 28.456 15.0952 28.6521 14.8317 28.9218L11.9205 32.7585L9.00932 28.9218C8.8132 28.5908 8.41486 28.456 8.01642 28.456H4.57207C3.31565 28.456 2.32275 27.4631 2.32275 26.2067V8.99707C2.32275 7.74065 3.31565 6.74775 4.57207 6.74775H33.1691C34.4256 6.74775 35.4184 7.74065 35.4184 8.99707V20.1822V26.2068C35.4184 27.4632 34.4255 28.4561 33.1691 28.4561H18.2026L15.8246 28.456ZM52.5607 40.8363C52.5607 42.0927 51.5678 43.0856 50.3115 43.0856H46.8671C46.4688 43.0856 46.1377 43.2817 45.8742 43.5513L42.963 47.388L40.0518 43.5513C39.8557 43.2204 39.4574 43.0856 39.0589 43.0856H21.7144C20.458 43.0856 19.4651 42.0927 19.4651 40.8363V30.9076H33.2978C34.2233 30.9076 35.0874 30.644 35.8107 30.1782H45.0774C45.7393 30.1782 46.2664 29.6511 46.2664 28.9892C46.2664 28.3272 45.7394 27.8002 45.0774 27.8002H37.7964C37.9925 27.3344 38.0599 26.8073 38.0599 26.2128V21.4446H50.3052C51.5617 21.4446 52.5546 22.4375 52.5546 23.6939V40.8363H52.5607ZM46.2051 35.8046C46.2051 36.4664 45.6781 36.9936 45.0161 36.9936H27.0097C26.3478 36.9936 25.8207 36.4665 25.8207 35.8046C25.8207 35.1426 26.3477 34.6155 27.0097 34.6155H45.0161C45.672 34.6094 46.2051 35.1426 46.2051 35.8046ZM27.8677 22.364H9.92869C9.26682 22.364 8.73968 21.837 8.73968 21.175C8.73968 20.513 9.26673 19.986 9.92869 19.986H27.8677C28.5296 19.986 29.0567 20.513 29.0567 21.175C29.1241 21.837 28.5297 22.364 27.8677 22.364ZM8.73968 14.2924C8.73968 13.6305 9.26673 13.1034 9.92869 13.1034H20.7154C21.3772 13.1034 21.9044 13.6304 21.9044 14.2924C21.9044 14.9543 21.3773 15.4814 20.7154 15.4814H9.92869C9.26673 15.4813 8.73968 14.9543 8.73968 14.2924Z" fill="white" stroke="#C39367" stroke-width="0.2"/>
</g>
<defs>
<clipPath id="clip0">
<rect width="55" height="55" fill="white"/>
</clipPath>
</defs>
</svg>
