<svg width="55" height="55" viewBox="0 0 55 55" fill="none" xmlns="http://www.w3.org/2000/svg">
<path d="M23.8549 32.8503L23.971 32.9663L24.0762 32.8403L43.0477 10.1171C43.634 9.45422 44.6483 9.37771 45.3094 9.92037C45.9725 10.5073 46.0484 11.5224 45.5044 12.1834C45.5043 12.1835 45.5042 12.1836 45.5041 12.1837L25.3396 36.3556C25.0275 36.7058 24.5983 36.9022 24.1672 36.943H24.1671H24.1669H24.1667H24.1665H24.1662H24.166H24.1658H24.1656H24.1654H24.1651H24.1649H24.1647H24.1645H24.1643H24.1641H24.1639H24.1637H24.1635H24.1633H24.163H24.1628H24.1626H24.1624H24.1622H24.162H24.1618H24.1616H24.1614H24.1612H24.161H24.1608H24.1606H24.1604H24.1602H24.16H24.1598H24.1596H24.1594H24.1593H24.1591H24.1589H24.1587H24.1585H24.1583H24.1581H24.1579H24.1577H24.1576H24.1574H24.1572H24.157H24.1568H24.1566H24.1565H24.1563H24.1561H24.1559H24.1557H24.1555H24.1554H24.1552H24.155H24.1548H24.1547H24.1545H24.1543H24.1541H24.154H24.1538H24.1536H24.1535H24.1533H24.1531H24.1529H24.1528H24.1526H24.1524H24.1523H24.1521H24.1519H24.1518H24.1516H24.1514H24.1513H24.1511H24.1509H24.1508H24.1506H24.1505H24.1503H24.1501H24.15H24.1498H24.1497H24.1495H24.1493H24.1492H24.149H24.1489H24.1487H24.1486H24.1484H24.1483H24.1481H24.1479H24.1478H24.1476H24.1475H24.1473H24.1472H24.147H24.1469H24.1467H24.1466H24.1464H24.1463H24.1461H24.146H24.1458H24.1457H24.1455H24.1454H24.1453H24.1451H24.145H24.1448H24.1447H24.1445H24.1444H24.1442H24.1441H24.144H24.1438H24.1437H24.1435H24.1434H24.1433H24.1431H24.143H24.1428H24.1427H24.1426H24.1424H24.1423H24.1421H24.142H24.1419H24.1417H24.1416H24.1415H24.1413H24.1412H24.1411H24.1409H24.1408H24.1406H24.1405H24.1404H24.1402H24.1401H24.14H24.1398H24.1397H24.1396H24.1394H24.1393H24.1392H24.1391H24.1389H24.1388H24.1387H24.1385H24.1384H24.1383H24.1381H24.138H24.1379H24.1377H24.1376H24.1375H24.1374H24.1372H24.1371H24.137H24.1368H24.1367H24.1366H24.1365H24.1363H24.1362H24.1361H24.136H24.1358H24.1357H24.1356H24.1354H24.1353H24.1352H24.1351H24.1349H24.1348H24.1347H24.1346H24.1344H24.1343H24.1342H24.1341H24.1339H24.1338H24.1337H24.1336H24.1334H24.1333H24.1332H24.1331H24.1329H24.1328H24.1327H24.1326H24.1324H24.1323H24.1322H24.1321H24.1319H24.1318H24.1317H24.1316H24.1314H24.1313H24.1312H24.1311H24.1309H24.1308H24.1307H24.1306H24.1304H24.1303H24.1302H24.1301H24.1299H24.1298H24.1297H24.1296H24.1294H24.1293H24.1292H24.129H24.1289H24.1288H24.1287H24.1285H24.1284H24.1283H24.1282H24.128H24.1279H24.1278H24.1277H24.1275H24.1274H24.1273H24.1272H24.127H24.1269H24.1268H24.1266H24.1265H24.1264H24.1263H24.1261H24.126H24.1259H24.1257H24.1256H24.1255H24.1254H24.1252H24.1251H24.125H24.1248H24.1247H24.1246H24.1244H24.1243H24.1242H24.1241H24.1239H24.1238H24.1237H24.1235H24.1234H24.1233H24.1231H24.123H24.1229H24.1227H24.1226H24.1225H24.1223H24.1222H24.1221H24.1219H24.1218H24.1216H24.1215H24.1214H24.1212H24.1211H24.121H24.1208H24.1207H24.1205H24.1204H24.1203H24.1201H24.12H24.1198H24.1197H24.1196H24.1194H24.1193H24.1191H24.119H24.1189H24.1187H24.1186H24.1184H24.1183H24.1181H24.118H24.1178H24.1177H24.1176H24.1174H24.1173H24.1171H24.117H24.1168H24.1167H24.1165H24.1164H24.1162H24.1161H24.1159H24.1158H24.1156H24.1155H24.1153H24.1152H24.115H24.1149H24.1147H24.1145H24.1144H24.1142H24.1141H24.1139H24.1138H24.1136H24.1134H24.1133H24.1131H24.113H24.1128H24.1126H24.1125H24.1123H24.1122H24.112H24.1118H24.1117H24.1115H24.1113H24.1112H24.111H24.1108H24.1107H24.1105H24.1103H24.1102H24.11H24.1098H24.1097H24.1095H24.1093H24.1091H24.109H24.1088H24.1086H24.1084H24.1083H24.1081H24.1079H24.1077H24.1076H24.1074H24.1072H24.107H24.1068H24.1067H24.1065H24.1063H24.1061H24.1059H24.1057H24.1055H24.1054H24.1052H24.105H24.1048H24.1046H24.1044H24.1042H24.104H24.1038H24.1037H24.1035H24.1033H24.1031H24.1029H24.1027H24.1025H24.1023H24.1021H24.1019H24.1017H24.1015H24.1013H24.1011H24.1009H24.1007H24.1005H24.1003H24.1001H24.0999H24.0996H24.0994H24.0992H24.099H24.0988H24.0986H24.0984H24.0982H24.098H24.0977H24.0975H24.0973H24.0971H24.0969H24.0967H24.0964H24.0962H24.096H24.0958H24.0955H24.0953H24.0951H24.0949H24.0946H24.0944H24.0942H24.094H24.0937H24.0935H24.0933H24.093H24.0928H24.0926H24.0923H24.0921H24.0918H24.0916H24.0914H24.0911H24.0909H24.0906H24.0904H24.0902H24.0899H24.0897H24.0894H24.0892H24.0889C23.659 36.943 23.271 36.7878 22.9585 36.4753L14.9004 28.4172C14.2768 27.7936 14.2768 26.78 14.9004 26.1565C15.524 25.5329 16.5376 25.5329 17.1611 26.1565L23.8549 32.8503Z" fill="white" stroke="#C39367" stroke-width="0.3"/>
<path d="M12.3012 12.3859L12.3009 12.3862C3.97102 20.7161 3.97102 34.3266 12.3009 42.6565C20.6308 50.9864 34.2413 50.9864 42.5712 42.6565C49.6979 35.5297 50.9436 24.623 45.5765 16.1215L45.4496 16.2016L45.5764 16.1215C45.1103 15.3834 45.3419 14.4094 46.084 13.9408C46.822 13.4746 47.796 13.7063 48.2647 14.4483C54.4093 24.1952 53.0111 36.738 44.8319 44.9172C40.0433 49.7058 33.7292 52.1213 27.4574 52.1213C21.1856 52.1213 14.8715 49.7058 10.0828 44.9172C0.50573 35.3401 0.50573 19.7025 10.0828 10.1255C18.2196 1.9887 30.72 0.54813 40.4667 6.65024C41.2085 7.11895 41.44 8.09279 40.974 8.83076C40.5053 9.57279 39.5313 9.80444 38.7933 9.33829L38.7923 9.33771C30.2912 4.05667 19.4278 5.30218 12.3012 12.3859Z" fill="white" stroke="#C39367" stroke-width="0.3"/>
</svg>
