<svg width="53" height="53" viewBox="0 0 53 53" fill="none" xmlns="http://www.w3.org/2000/svg">
<g clip-path="url(#clip0)">
<path d="M52.784 24.6895V24.6395H52.734H50.2411V12.9921C50.2411 10.1602 47.9373 7.85639 45.1054 7.85639H41.6907L38.1806 1.54528C38.1806 1.54527 38.1806 1.54525 38.1806 1.54523C37.6346 0.560901 36.5956 -0.05 35.4688 -0.05C34.9435 -0.05 34.4226 0.0854435 33.9625 0.340711L33.9625 0.340733L20.4477 7.85623H5.35187C2.51992 7.85623 0.216113 10.16 0.216113 12.992V47.9141C0.216113 50.746 2.51992 53.0498 5.35187 53.0498H45.1054C47.9373 53.0498 50.2411 50.746 50.2411 47.9141V37.7081H52.734H52.784V37.6581V24.6895ZM35.0008 2.2061L35.0009 2.20601C35.4535 1.95224 36.065 2.13023 36.315 2.58136L36.3151 2.58142L41.8884 12.6023H16.3041L35.0008 2.2061ZM45.1054 9.9906C46.6265 9.9906 47.8731 11.1319 48.0667 12.6033H44.3302L42.8782 9.9906H45.1054ZM48.1068 47.9141C48.1068 49.5689 46.76 50.9156 45.1052 50.9156H5.35187C3.6971 50.9156 2.35032 49.5689 2.35032 47.9141V12.9921C2.35032 11.3374 3.6971 9.9906 5.35187 9.9906H16.6102L11.9117 12.6035H5.98763C5.3975 12.6035 4.92044 13.0815 4.92044 13.6706C4.92044 14.2597 5.3975 14.7378 5.98763 14.7378H8.26604H45.4319H48.1068V24.6405H40.7184C37.2364 24.6405 34.4027 27.4743 34.4027 30.9561V31.3935C34.4027 34.8755 37.2366 37.7092 40.7184 37.7092H48.1068V47.9141ZM50.6497 35.5739H50.1911H40.7184C38.4127 35.5739 36.5369 33.6983 36.5369 31.3924V30.955C36.5369 28.6493 38.4125 26.7736 40.7184 26.7736H50.1911H50.6497V35.5739ZM41.5881 33.5531C42.8565 33.5531 43.8839 32.5259 43.8839 31.2573C43.8839 29.9897 42.8567 28.9613 41.5881 28.9615C40.3196 28.9615 39.2922 29.9888 39.2922 31.2573C39.2922 32.5257 40.3195 33.5531 41.5881 33.5531Z" fill="white" stroke="white" stroke-width="0.1"/>
</g>
<defs>
<clipPath id="clip0">
<rect width="53" height="53" fill="white"/>
</clipPath>
</defs>
</svg>
