<svg width="56" height="55" viewBox="0 0 56 55" fill="none" xmlns="http://www.w3.org/2000/svg">
<path d="M44.2168 33.7127C43.1178 31.4736 39.1861 28.3656 35.3875 25.3625C33.2688 23.6888 31.2668 22.1064 29.9905 20.8591C29.6708 20.5445 29.1925 20.4441 28.7702 20.5923C27.9839 20.8706 27.4985 21.0849 27.1159 21.2513C26.5326 21.5066 26.3366 21.5933 25.5502 21.6708C25.2025 21.705 24.8899 21.8875 24.6962 22.1702C23.0465 24.5803 21.3385 24.3751 20.1975 24.0012C19.8335 23.8827 19.7682 23.7299 19.7332 23.584C19.4882 22.583 20.7179 20.2526 22.3115 18.6951C26.1032 14.9875 28.0585 14.0594 32.1885 15.8631C36.8738 17.9107 41.5685 19.5138 41.6152 19.5297C42.2289 19.7372 42.8892 19.4225 43.1015 18.8273C43.3115 18.2322 42.9918 17.5823 42.3828 17.3749C42.3361 17.359 37.7348 15.7878 33.1428 13.7789C27.7925 11.4417 24.8571 12.9808 20.6641 17.0807C19.0681 18.6404 16.9004 21.7962 17.4604 24.1107C17.7007 25.0957 18.4101 25.8255 19.4647 26.1651C22.1084 27.018 24.521 26.2016 26.3177 23.8713C27.0597 23.7596 27.4634 23.5954 28.07 23.3286C28.2892 23.2328 28.5459 23.1211 28.8867 22.9866C30.2214 24.2111 32.0227 25.6362 33.9197 27.1343C37.3497 29.8454 41.2394 32.9192 42.1144 34.6978C42.5461 35.5756 42.0817 36.148 41.7667 36.4102C41.3047 36.7979 40.6724 36.921 40.3294 36.6861C39.9514 36.433 39.4591 36.417 39.0694 36.645C38.6774 36.873 38.4581 37.304 38.5071 37.7464C38.5864 38.4715 37.9074 38.8865 37.6134 39.0302C36.8667 39.3996 36.0874 39.3358 35.7957 39.0712C35.469 38.7748 35 38.6882 34.5847 38.8386C34.1694 38.9914 33.88 39.3654 33.838 39.7986C33.768 40.5465 33.201 41.2647 32.4612 41.5452C32.1042 41.6774 31.5862 41.7573 31.122 41.3422C30.8327 41.0869 30.4312 40.9888 30.0557 41.0777C29.6754 41.1689 29.3697 41.438 29.2367 41.796C29.1924 41.91 29.092 42.1836 28 42.1836C27.2229 42.1836 25.8252 41.6706 25.1417 41.2282C24.3227 40.7014 19.187 36.9574 14.7514 33.3272C14.1284 32.8142 13.0504 31.7151 12.0984 30.7437C11.2537 29.8818 10.4814 29.0997 10.0847 28.7713C9.58765 28.3609 8.85265 28.4224 8.43965 28.9059C8.02436 29.387 8.08495 30.1076 8.57736 30.5134C8.93906 30.8122 9.63906 31.5349 10.4114 32.3216C11.4521 33.3842 12.5277 34.4833 13.2511 35.0762C17.5958 38.6311 22.8178 42.4687 23.8584 43.1367C24.7171 43.6886 26.5674 44.4638 28.0001 44.4638C29.1504 44.4638 30.0348 44.2061 30.6484 43.7023C31.4697 44.0147 32.4031 44.0169 33.3014 43.6749C34.3631 43.2735 35.2357 42.4641 35.7304 41.4836C36.6497 41.6752 37.7021 41.5406 38.6587 41.071C39.5944 40.6104 40.271 39.9058 40.607 39.0826C41.5357 39.1304 42.4922 38.8089 43.2832 38.1454C44.6228 37.0259 44.9914 35.2838 44.2168 33.7127Z" fill="white"/>
<path d="M23.3332 14.8211H12.8332C12.1892 14.8211 11.6665 15.3319 11.6665 15.9612C11.6665 16.5905 12.1892 17.1014 12.8332 17.1014H23.3332C23.9772 17.1014 24.4999 16.5905 24.4999 15.9612C24.4999 15.3319 23.9772 14.8211 23.3332 14.8211Z" fill="white"/>
<path d="M47.6352 31.2865C47.2735 30.7644 46.5502 30.6208 46.0159 30.9765L42.6046 33.2156C42.0703 33.5667 41.9279 34.2759 42.2873 34.798C42.5136 35.1241 42.8823 35.302 43.258 35.302C43.4797 35.302 43.706 35.2404 43.9067 35.1082L47.318 32.8691C47.8522 32.5179 47.9945 31.8088 47.6352 31.2865Z" fill="white"/>
<path d="M40.3921 36.7272C39.5568 36.0842 35.8211 32.347 33.5111 29.9938C33.0654 29.5377 32.3258 29.5218 31.8614 29.9596C31.3947 30.3951 31.3807 31.1179 31.8264 31.5717C32.4261 32.1828 37.7157 37.571 38.9454 38.5196C39.1577 38.6838 39.4144 38.7636 39.6664 38.7636C40.0094 38.7636 40.3524 38.6131 40.5857 38.3281C40.9848 37.8354 40.8985 37.1172 40.3921 36.7272Z" fill="white"/>
<path d="M35.7302 39.0142C34.3325 37.922 30.8209 34.2759 30.0275 33.4323C29.5888 32.9671 28.8538 32.9397 28.3778 33.3639C27.9041 33.7902 27.8715 34.5131 28.3078 34.976C28.3498 35.0193 32.5405 39.4407 34.2718 40.7952C34.4865 40.9616 34.7455 41.0437 34.9998 41.0437C35.3405 41.0437 35.6811 40.8954 35.9121 40.6173C36.3136 40.1247 36.2319 39.4064 35.7302 39.0142Z" fill="white"/>
<path d="M31.0871 41.3105C29.4234 39.9401 26.0191 36.3989 25.3541 35.7034C24.9131 35.2428 24.1734 35.2177 23.7044 35.6486C23.2331 36.0796 23.2097 36.8001 23.6484 37.2608C24.6051 38.2618 27.8624 41.6366 29.5821 43.0548C29.8014 43.2349 30.0674 43.3239 30.3334 43.3239C30.6647 43.3239 30.9961 43.1848 31.2271 42.918C31.6424 42.4346 31.5794 41.7163 31.0871 41.3105Z" fill="white"/>
<path d="M13.636 12.8533C11.6363 11.0017 3.64 10.402 1.2367 10.2629C0.905406 10.247 0.599703 10.3541 0.366406 10.5708C0.133 10.7851 0 11.0861 0 11.4007V31.9228C0 32.5521 0.522703 33.0629 1.1667 33.0629H8.1667C8.6707 33.0629 9.1187 32.746 9.275 32.2762C9.4453 31.7654 13.4657 19.7077 13.9953 13.779C14.0257 13.4324 13.895 13.0904 13.636 12.8533ZM7.315 30.7827H2.3333V12.623C6.083 12.9125 10.129 13.5419 11.599 14.2396C10.9807 19.2333 8.183 28.1057 7.315 30.7827Z" fill="white"/>
<path d="M54.8331 12.5408C45.6724 12.5408 40.5904 14.8325 40.3781 14.9282C40.0748 15.0673 39.8484 15.325 39.7551 15.6374C39.6618 15.9498 39.7084 16.285 39.8834 16.5632C41.3254 18.832 45.8404 31.4325 46.7084 34.5062C46.8484 35.001 47.3081 35.343 47.8331 35.343H54.8331C55.4771 35.343 55.9998 34.8322 55.9998 34.2029V13.6809C55.9998 13.0493 55.4771 12.5408 54.8331 12.5408ZM53.6665 33.0628H48.7058C47.5998 29.5421 44.3331 20.362 42.5108 16.5678C44.2911 15.9772 48.1155 14.9624 53.6665 14.8348V33.0628Z" fill="white"/>
</svg>
