<svg width="45" height="45" viewBox="0 0 45 45" fill="none" xmlns="http://www.w3.org/2000/svg">
<g clip-path="url(#clip0)">
<path d="M3.32874 28.5279L3.32891 28.5277C3.51081 28.3448 3.61562 28.0937 3.61562 27.8358C3.61562 27.5781 3.51103 27.3259 3.32874 27.1437C3.32874 27.1437 3.32873 27.1437 3.32873 27.1437C3.32872 27.1437 3.32871 27.1437 3.32871 27.1437C3.14658 26.9615 2.8944 26.8569 2.63672 26.8569C2.37901 26.8569 2.12682 26.9615 1.94462 27.1437C1.76245 27.3259 1.65781 27.5772 1.65781 27.8358C1.65781 28.0935 1.76231 28.3457 1.94464 28.5279C2.12682 28.71 2.37898 28.8147 2.63672 28.8147C2.89442 28.8147 3.14662 28.7101 3.32874 28.5279Z" fill="#623B2A" stroke="#623B2A" stroke-width="0.2"/>
<path d="M5.08678 6.69054L5.08677 6.69054L3.32896 4.93273L3.32895 4.93271C2.94659 4.55055 2.32696 4.55056 1.94453 4.9327L1.94451 4.93273L0.186698 6.69054C-0.195571 7.07281 -0.195558 7.69264 0.186689 8.07498L0.186717 8.07501C0.56907 8.45717 1.1887 8.45715 1.57113 8.07502L1.57114 8.075L1.65787 7.9883V24.2919C1.65787 24.8324 2.09622 25.2708 2.63678 25.2708C3.17734 25.2708 3.61568 24.8324 3.61568 24.2919V7.98836L3.7024 8.07508L3.70244 8.07512C3.89357 8.26605 4.14422 8.36171 4.39459 8.36171C4.64496 8.36171 4.89562 8.26605 5.08675 8.07501L5.08677 8.07499C5.46904 7.69272 5.46903 7.07289 5.08678 6.69054Z" fill="#623B2A" stroke="#623B2A" stroke-width="0.2"/>
<path d="M41.6711 35.167L41.671 35.167C41.2888 35.5493 41.2888 36.1691 41.671 36.5515L41.7418 36.4808L41.671 36.5515L41.7578 36.6382H38.945V24.4042C38.945 23.8636 38.5066 23.4253 37.9661 23.4253C37.4255 23.4253 36.9872 23.8636 36.9872 24.4042V36.6381H27.6629V31.1131C27.6629 30.5726 27.2246 30.1342 26.684 30.1342C26.1434 30.1342 25.7051 30.5726 25.7051 31.1131V36.6381H18.5988V22.6339C18.5988 22.0933 18.1604 21.655 17.6199 21.655C17.0793 21.655 16.6409 22.0933 16.6409 22.6339V36.6381H9.78422V31.245C9.78422 30.7044 9.34587 30.2661 8.80531 30.2661C8.26475 30.2661 7.82641 30.7044 7.82641 31.245V36.6381H3.61562V31.6796C3.61562 31.139 3.17728 30.7007 2.63672 30.7007C2.09616 30.7007 1.65781 31.139 1.65781 31.6796V37.617C1.65781 38.1576 2.09616 38.5959 2.63672 38.5959H41.7577L41.671 38.6827C41.2887 39.0649 41.2887 39.6848 41.6709 40.0671L41.671 40.0671C41.8621 40.2582 42.1128 40.3538 42.3631 40.3538C42.6135 40.3538 42.8642 40.2582 43.0553 40.0671L42.9846 39.9964L43.0553 40.0671L44.8131 38.3093C45.1956 37.927 45.1956 37.3071 44.8133 36.9249L43.0555 35.167L42.9848 35.2378L43.0555 35.167C42.6731 34.7849 42.0535 34.7849 41.6711 35.167Z" fill="#623B2A" stroke="#623B2A" stroke-width="0.2"/>
<path d="M37.966 11.4555C36.1609 11.4555 34.6926 12.9239 34.6926 14.729C34.6926 15.2211 34.8022 15.6882 34.9977 16.1074L28.2186 22.8865C27.7606 22.6422 27.2383 22.5031 26.684 22.5031C26.1424 22.5031 25.6311 22.6356 25.1805 22.8694L20.6266 18.3155C20.7978 17.919 20.8933 17.4823 20.8933 17.0236C20.8933 15.2185 19.425 13.7501 17.6198 13.7501C15.8147 13.7501 14.3463 15.2185 14.3463 17.0236C14.3463 17.5541 14.4734 18.0555 14.6984 18.499L10.3181 22.8793C9.86534 22.6423 9.35072 22.5078 8.8053 22.5078C7.00017 22.5078 5.53184 23.9762 5.53184 25.7813C5.53184 27.5864 7.00035 29.0548 8.80547 29.0548C10.6106 29.0548 12.079 27.5864 12.079 25.7813C12.079 25.2333 11.9432 24.7165 11.7041 24.2623L16.0642 19.9022C16.5273 20.1535 17.057 20.2971 17.6199 20.2971C18.253 20.2971 18.8445 20.1159 19.3458 19.8034L23.7905 24.2481C23.5483 24.7046 23.4105 25.2248 23.4105 25.7766C23.4105 27.5817 24.8788 29.0501 26.684 29.0501C28.4891 29.0501 29.9574 27.5817 29.9574 25.7766C29.9574 25.2375 29.8263 24.7284 29.5944 24.2794L36.3178 17.556C36.8022 17.8395 37.3654 18.0025 37.966 18.0025C39.7712 18.0025 41.2395 16.5341 41.2395 14.729C41.2395 12.9239 39.7712 11.4555 37.966 11.4555ZM8.80556 27.097C8.08023 27.097 7.48991 26.5067 7.48991 25.7814C7.48991 25.056 8.08008 24.4657 8.80547 24.4657C9.15966 24.4657 9.48115 24.6069 9.7183 24.8359L9.72056 24.8385L9.72069 24.8387C9.7227 24.841 9.72676 24.8456 9.73162 24.8505C9.73695 24.8558 9.74206 24.8603 9.74484 24.8627L9.74894 24.8663C9.97921 25.1036 10.1213 25.426 10.1213 25.7814C10.1213 26.5068 9.5309 27.097 8.80556 27.097ZM17.62 18.3392C16.8947 18.3392 16.3043 17.7489 16.3043 17.0236C16.3043 16.2982 16.8946 15.7078 17.62 15.7078C18.3454 15.7078 18.9357 16.2982 18.9357 17.0236C18.9357 17.7489 18.3453 18.3392 17.62 18.3392ZM26.6841 27.0922C25.9588 27.0922 25.3685 26.5018 25.3685 25.7765C25.3685 25.0511 25.9588 24.4608 26.6841 24.4608C27.4095 24.4608 27.9998 25.0511 27.9998 25.7765C27.9998 26.5019 27.4095 27.0922 26.6841 27.0922ZM37.9662 16.0447C37.2409 16.0447 36.6506 15.4542 36.6506 14.7289C36.6506 14.0036 37.2408 13.4133 37.9662 13.4133C38.6916 13.4133 39.2819 14.0036 39.2819 14.7289C39.2819 15.4542 38.6915 16.0447 37.9662 16.0447Z" fill="#623B2A" stroke="#623B2A" stroke-width="0.2"/>
<path d="M37.9658 19.7633C38.2235 19.7633 38.4757 19.8679 38.6579 20.0501C38.8401 20.2323 38.9447 20.4845 38.9447 20.7422C38.9447 20.9999 38.84 21.2521 38.6579 21.4342L37.9658 19.7633ZM37.9658 19.7633C37.7081 19.7633 37.4559 19.8678 37.2737 20.0501M37.9658 19.7633L37.2737 20.0501M37.2737 20.0501C37.0916 20.2323 36.9869 20.4845 36.9869 20.7422M37.2737 20.0501L36.9869 20.7422M36.9869 20.7422C36.9869 20.9999 37.0915 21.2521 37.2737 21.4342M36.9869 20.7422L37.2737 21.4342M37.2737 21.4342C37.4559 21.6164 37.7081 21.7211 37.9658 21.7211M37.2737 21.4342L37.9658 21.7211M37.9658 21.7211C38.2235 21.7211 38.4757 21.6165 38.6579 21.4342L37.9658 21.7211Z" fill="#623B2A" stroke="#623B2A" stroke-width="0.2"/>
</g>
<defs>
<clipPath id="clip0">
<rect width="45" height="45" fill="white"/>
</clipPath>
</defs>
</svg>
