<svg width="45" height="45" viewBox="0 0 45 45" fill="none" xmlns="http://www.w3.org/2000/svg">
<g clip-path="url(#clip0)">
<mask id="path-1-outside-1" maskUnits="userSpaceOnUse" x="-1" y="-1" width="47" height="47" fill="black">
<rect fill="white" x="-1" y="-1" width="47" height="47"/>
<path d="M42.7499 37.3499C38.2737 34.9762 34.8402 33.6452 31.7836 33.1349L32.0999 32.7C32.25 32.5499 32.3249 32.3249 32.25 32.0999L31.5471 29.2885C33.406 26.6606 34.4999 23.3752 34.4999 20.25V17.25H35.2499H36.7499C37.1999 17.25 37.4999 16.95 37.4999 16.5C37.4999 16.05 37.1999 15.75 36.7499 15.75H35.9999V15.0001C35.9999 9.07511 32.0999 4.05012 26.2499 2.40009V2.24997C26.2499 1.04993 25.275 0 24 0H20.9999C19.7999 0 18.75 0.974957 18.75 2.24997V2.4C12.9 4.05003 8.99996 9.07502 8.99996 15V15.75H8.25C7.80001 15.75 7.50004 16.0499 7.50004 16.4999C7.50004 16.9499 7.80001 17.2499 8.25 17.2499H9.75001H10.5V20.2499C10.5 23.3751 11.5939 26.6605 13.4528 29.2885L12.7499 32.0999C12.7499 32.25 12.7499 32.5499 12.9 32.7L13.2163 33.1349C10.1598 33.6453 6.72623 34.9762 2.24997 37.3499C0.825018 38.025 0 39.45 0 41.0249V44.2499C0 44.6999 0.299966 44.9999 0.74996 44.9999H18.75H19.0499H25.95H26.2499H44.2499C44.6999 44.9999 44.9999 44.6999 44.9999 44.2499V41.0249C45 39.5249 44.0999 38.1 42.7499 37.3499ZM22.0502 36.6557L22.5042 35.6342L23.6252 38.1004L24.3584 39.7499H20.7001L22.0502 36.6557ZM20.13 41.2499H24.8643L25.2928 43.4999H19.68L20.13 41.2499ZM30.3749 30.75L30.6749 32.0999L29.9088 33.1519C29.8599 33.1919 29.8147 33.2403 29.7749 33.2999L26.6553 37.6193L25.6655 38.9785L23.6435 34.4292C26.0604 34.1344 28.2179 32.9211 29.9604 31.1775C29.9797 31.1584 29.9991 31.1395 30.0183 31.1202C30.023 31.1154 30.0276 31.1107 30.0323 31.1059C30.1478 30.9901 30.2621 30.8716 30.3749 30.75ZM29.3978 5.48544C29.4811 5.54084 29.5637 5.59713 29.6453 5.6545C30.6014 6.36693 31.4838 7.20151 32.175 8.09998L28.725 8.77497L29.3978 5.48544ZM16.275 8.77497L12.825 8.09998C13.5162 7.20142 14.3987 6.36684 15.3547 5.65441C15.4363 5.59713 15.5189 5.54084 15.6022 5.48544L16.275 8.77497ZM10.5 15C10.5 13.0042 11.0024 11.1214 11.9118 9.47605L17.1 10.5001C17.175 10.5001 17.175 10.5001 17.2501 10.5001C17.4751 10.5001 17.6251 10.4251 17.8501 10.35C18.0751 10.2 18.15 9.90004 18.0751 9.67504L17.0454 4.66399C17.5877 4.40308 18.1568 4.17897 18.7501 3.99472V6.00004C18.7501 6.45003 19.05 6.74999 19.5 6.74999C19.95 6.74999 20.25 6.45003 20.25 6.00004V3.00002V2.24997C20.25 1.87494 20.55 1.50001 20.9999 1.50001H24C24.375 1.50001 24.7499 1.79997 24.7499 2.24997V2.99993V5.99995C24.7499 6.44994 25.0499 6.74991 25.4999 6.74991C25.9499 6.74991 26.2498 6.44994 26.2498 5.99995V3.99472C26.8628 4.18505 27.4503 4.41773 28.0088 4.68982L26.9999 9.60007C26.9999 9.82507 27.0749 10.125 27.2249 10.2751C27.3749 10.4251 27.5249 10.5001 27.7498 10.5001C27.8248 10.5001 27.8248 10.5001 27.8999 10.5001L33.0545 9.41484C33.9852 11.0747 34.4998 12.9796 34.4998 15V15.75H33.7499H11.25H10.5001V15H10.5ZM12 17.25H32.9999V20.25C32.9999 23.5203 31.8781 26.4264 30.1937 28.6354L30.1499 28.6499C30.075 28.7249 29.9999 28.8 29.9249 28.8749C29.5476 29.3781 29.1493 29.8368 28.7332 30.2505C26.9673 31.8957 24.8609 32.8922 22.8313 32.9909C22.7291 32.947 22.6146 32.925 22.5 32.925C22.3847 32.925 22.2808 32.9476 22.1876 32.9919C20.9452 32.9349 19.6736 32.5411 18.4683 31.8674C17.2473 31.1659 16.0986 30.1546 15.0749 28.8749C14.9999 28.8 14.9248 28.7249 14.8499 28.6499L14.8061 28.6354C13.1217 26.4263 11.9999 23.5202 11.9999 20.25V17.25H12ZM21.3564 34.4293L19.3344 38.9787L18.3446 37.6195L15.225 33.3001C15.2011 33.2762 15.1747 33.2525 15.1473 33.2292L14.325 32.1L14.625 30.75C14.7267 30.8595 14.8298 30.9662 14.9339 31.0712C16.6945 32.8718 18.8904 34.1286 21.3564 34.4293ZM1.50001 41.0249C1.50001 40.05 2.02497 39.1499 2.92505 38.6999C7.70565 36.1602 11.1471 34.8855 14.2127 34.5048L18.6883 40.6587L18.1201 43.4998H1.50001V41.0249ZM43.5 43.5H26.88L26.3118 40.6588L30.8358 34.4383C33.8907 34.8993 37.3937 36.1729 42.0749 38.625C42.9749 39.15 43.5 40.0501 43.5 41.025V43.5Z"/>
</mask>
<path d="M42.7499 37.3499C38.2737 34.9762 34.8402 33.6452 31.7836 33.1349L32.0999 32.7C32.25 32.5499 32.3249 32.3249 32.25 32.0999L31.5471 29.2885C33.406 26.6606 34.4999 23.3752 34.4999 20.25V17.25H35.2499H36.7499C37.1999 17.25 37.4999 16.95 37.4999 16.5C37.4999 16.05 37.1999 15.75 36.7499 15.75H35.9999V15.0001C35.9999 9.07511 32.0999 4.05012 26.2499 2.40009V2.24997C26.2499 1.04993 25.275 0 24 0H20.9999C19.7999 0 18.75 0.974957 18.75 2.24997V2.4C12.9 4.05003 8.99996 9.07502 8.99996 15V15.75H8.25C7.80001 15.75 7.50004 16.0499 7.50004 16.4999C7.50004 16.9499 7.80001 17.2499 8.25 17.2499H9.75001H10.5V20.2499C10.5 23.3751 11.5939 26.6605 13.4528 29.2885L12.7499 32.0999C12.7499 32.25 12.7499 32.5499 12.9 32.7L13.2163 33.1349C10.1598 33.6453 6.72623 34.9762 2.24997 37.3499C0.825018 38.025 0 39.45 0 41.0249V44.2499C0 44.6999 0.299966 44.9999 0.74996 44.9999H18.75H19.0499H25.95H26.2499H44.2499C44.6999 44.9999 44.9999 44.6999 44.9999 44.2499V41.0249C45 39.5249 44.0999 38.1 42.7499 37.3499ZM22.0502 36.6557L22.5042 35.6342L23.6252 38.1004L24.3584 39.7499H20.7001L22.0502 36.6557ZM20.13 41.2499H24.8643L25.2928 43.4999H19.68L20.13 41.2499ZM30.3749 30.75L30.6749 32.0999L29.9088 33.1519C29.8599 33.1919 29.8147 33.2403 29.7749 33.2999L26.6553 37.6193L25.6655 38.9785L23.6435 34.4292C26.0604 34.1344 28.2179 32.9211 29.9604 31.1775C29.9797 31.1584 29.9991 31.1395 30.0183 31.1202C30.023 31.1154 30.0276 31.1107 30.0323 31.1059C30.1478 30.9901 30.2621 30.8716 30.3749 30.75ZM29.3978 5.48544C29.4811 5.54084 29.5637 5.59713 29.6453 5.6545C30.6014 6.36693 31.4838 7.20151 32.175 8.09998L28.725 8.77497L29.3978 5.48544ZM16.275 8.77497L12.825 8.09998C13.5162 7.20142 14.3987 6.36684 15.3547 5.65441C15.4363 5.59713 15.5189 5.54084 15.6022 5.48544L16.275 8.77497ZM10.5 15C10.5 13.0042 11.0024 11.1214 11.9118 9.47605L17.1 10.5001C17.175 10.5001 17.175 10.5001 17.2501 10.5001C17.4751 10.5001 17.6251 10.4251 17.8501 10.35C18.0751 10.2 18.15 9.90004 18.0751 9.67504L17.0454 4.66399C17.5877 4.40308 18.1568 4.17897 18.7501 3.99472V6.00004C18.7501 6.45003 19.05 6.74999 19.5 6.74999C19.95 6.74999 20.25 6.45003 20.25 6.00004V3.00002V2.24997C20.25 1.87494 20.55 1.50001 20.9999 1.50001H24C24.375 1.50001 24.7499 1.79997 24.7499 2.24997V2.99993V5.99995C24.7499 6.44994 25.0499 6.74991 25.4999 6.74991C25.9499 6.74991 26.2498 6.44994 26.2498 5.99995V3.99472C26.8628 4.18505 27.4503 4.41773 28.0088 4.68982L26.9999 9.60007C26.9999 9.82507 27.0749 10.125 27.2249 10.2751C27.3749 10.4251 27.5249 10.5001 27.7498 10.5001C27.8248 10.5001 27.8248 10.5001 27.8999 10.5001L33.0545 9.41484C33.9852 11.0747 34.4998 12.9796 34.4998 15V15.75H33.7499H11.25H10.5001V15H10.5ZM12 17.25H32.9999V20.25C32.9999 23.5203 31.8781 26.4264 30.1937 28.6354L30.1499 28.6499C30.075 28.7249 29.9999 28.8 29.9249 28.8749C29.5476 29.3781 29.1493 29.8368 28.7332 30.2505C26.9673 31.8957 24.8609 32.8922 22.8313 32.9909C22.7291 32.947 22.6146 32.925 22.5 32.925C22.3847 32.925 22.2808 32.9476 22.1876 32.9919C20.9452 32.9349 19.6736 32.5411 18.4683 31.8674C17.2473 31.1659 16.0986 30.1546 15.0749 28.8749C14.9999 28.8 14.9248 28.7249 14.8499 28.6499L14.8061 28.6354C13.1217 26.4263 11.9999 23.5202 11.9999 20.25V17.25H12ZM21.3564 34.4293L19.3344 38.9787L18.3446 37.6195L15.225 33.3001C15.2011 33.2762 15.1747 33.2525 15.1473 33.2292L14.325 32.1L14.625 30.75C14.7267 30.8595 14.8298 30.9662 14.9339 31.0712C16.6945 32.8718 18.8904 34.1286 21.3564 34.4293ZM1.50001 41.0249C1.50001 40.05 2.02497 39.1499 2.92505 38.6999C7.70565 36.1602 11.1471 34.8855 14.2127 34.5048L18.6883 40.6587L18.1201 43.4998H1.50001V41.0249ZM43.5 43.5H26.88L26.3118 40.6588L30.8358 34.4383C33.8907 34.8993 37.3937 36.1729 42.0749 38.625C42.9749 39.15 43.5 40.0501 43.5 41.025V43.5Z" fill="#623B2A"/>
<path d="M42.7499 37.3499C38.2737 34.9762 34.8402 33.6452 31.7836 33.1349L32.0999 32.7C32.25 32.5499 32.3249 32.3249 32.25 32.0999L31.5471 29.2885C33.406 26.6606 34.4999 23.3752 34.4999 20.25V17.25H35.2499H36.7499C37.1999 17.25 37.4999 16.95 37.4999 16.5C37.4999 16.05 37.1999 15.75 36.7499 15.75H35.9999V15.0001C35.9999 9.07511 32.0999 4.05012 26.2499 2.40009V2.24997C26.2499 1.04993 25.275 0 24 0H20.9999C19.7999 0 18.75 0.974957 18.75 2.24997V2.4C12.9 4.05003 8.99996 9.07502 8.99996 15V15.75H8.25C7.80001 15.75 7.50004 16.0499 7.50004 16.4999C7.50004 16.9499 7.80001 17.2499 8.25 17.2499H9.75001H10.5V20.2499C10.5 23.3751 11.5939 26.6605 13.4528 29.2885L12.7499 32.0999C12.7499 32.25 12.7499 32.5499 12.9 32.7L13.2163 33.1349C10.1598 33.6453 6.72623 34.9762 2.24997 37.3499C0.825018 38.025 0 39.45 0 41.0249V44.2499C0 44.6999 0.299966 44.9999 0.74996 44.9999H18.75H19.0499H25.95H26.2499H44.2499C44.6999 44.9999 44.9999 44.6999 44.9999 44.2499V41.0249C45 39.5249 44.0999 38.1 42.7499 37.3499ZM22.0502 36.6557L22.5042 35.6342L23.6252 38.1004L24.3584 39.7499H20.7001L22.0502 36.6557ZM20.13 41.2499H24.8643L25.2928 43.4999H19.68L20.13 41.2499ZM30.3749 30.75L30.6749 32.0999L29.9088 33.1519C29.8599 33.1919 29.8147 33.2403 29.7749 33.2999L26.6553 37.6193L25.6655 38.9785L23.6435 34.4292C26.0604 34.1344 28.2179 32.9211 29.9604 31.1775C29.9797 31.1584 29.9991 31.1395 30.0183 31.1202C30.023 31.1154 30.0276 31.1107 30.0323 31.1059C30.1478 30.9901 30.2621 30.8716 30.3749 30.75ZM29.3978 5.48544C29.4811 5.54084 29.5637 5.59713 29.6453 5.6545C30.6014 6.36693 31.4838 7.20151 32.175 8.09998L28.725 8.77497L29.3978 5.48544ZM16.275 8.77497L12.825 8.09998C13.5162 7.20142 14.3987 6.36684 15.3547 5.65441C15.4363 5.59713 15.5189 5.54084 15.6022 5.48544L16.275 8.77497ZM10.5 15C10.5 13.0042 11.0024 11.1214 11.9118 9.47605L17.1 10.5001C17.175 10.5001 17.175 10.5001 17.2501 10.5001C17.4751 10.5001 17.6251 10.4251 17.8501 10.35C18.0751 10.2 18.15 9.90004 18.0751 9.67504L17.0454 4.66399C17.5877 4.40308 18.1568 4.17897 18.7501 3.99472V6.00004C18.7501 6.45003 19.05 6.74999 19.5 6.74999C19.95 6.74999 20.25 6.45003 20.25 6.00004V3.00002V2.24997C20.25 1.87494 20.55 1.50001 20.9999 1.50001H24C24.375 1.50001 24.7499 1.79997 24.7499 2.24997V2.99993V5.99995C24.7499 6.44994 25.0499 6.74991 25.4999 6.74991C25.9499 6.74991 26.2498 6.44994 26.2498 5.99995V3.99472C26.8628 4.18505 27.4503 4.41773 28.0088 4.68982L26.9999 9.60007C26.9999 9.82507 27.0749 10.125 27.2249 10.2751C27.3749 10.4251 27.5249 10.5001 27.7498 10.5001C27.8248 10.5001 27.8248 10.5001 27.8999 10.5001L33.0545 9.41484C33.9852 11.0747 34.4998 12.9796 34.4998 15V15.75H33.7499H11.25H10.5001V15H10.5ZM12 17.25H32.9999V20.25C32.9999 23.5203 31.8781 26.4264 30.1937 28.6354L30.1499 28.6499C30.075 28.7249 29.9999 28.8 29.9249 28.8749C29.5476 29.3781 29.1493 29.8368 28.7332 30.2505C26.9673 31.8957 24.8609 32.8922 22.8313 32.9909C22.7291 32.947 22.6146 32.925 22.5 32.925C22.3847 32.925 22.2808 32.9476 22.1876 32.9919C20.9452 32.9349 19.6736 32.5411 18.4683 31.8674C17.2473 31.1659 16.0986 30.1546 15.0749 28.8749C14.9999 28.8 14.9248 28.7249 14.8499 28.6499L14.8061 28.6354C13.1217 26.4263 11.9999 23.5202 11.9999 20.25V17.25H12ZM21.3564 34.4293L19.3344 38.9787L18.3446 37.6195L15.225 33.3001C15.2011 33.2762 15.1747 33.2525 15.1473 33.2292L14.325 32.1L14.625 30.75C14.7267 30.8595 14.8298 30.9662 14.9339 31.0712C16.6945 32.8718 18.8904 34.1286 21.3564 34.4293ZM1.50001 41.0249C1.50001 40.05 2.02497 39.1499 2.92505 38.6999C7.70565 36.1602 11.1471 34.8855 14.2127 34.5048L18.6883 40.6587L18.1201 43.4998H1.50001V41.0249ZM43.5 43.5H26.88L26.3118 40.6588L30.8358 34.4383C33.8907 34.8993 37.3937 36.1729 42.0749 38.625C42.9749 39.15 43.5 40.0501 43.5 41.025V43.5Z" stroke="#623B2A" stroke-width="0.8" mask="url(#path-1-outside-1)"/>
</g>
<defs>
<clipPath id="clip0">
<rect width="45" height="45" fill="white"/>
</clipPath>
</defs>
</svg>
