<svg width="45" height="45" viewBox="0 0 45 45" fill="none" xmlns="http://www.w3.org/2000/svg">
<g clip-path="url(#clip0)">
<path d="M38.7097 2.27097H6.29032C4.75449 2.27097 3.15704 2.68898 1.94166 3.70098C0.723174 4.71556 -0.1 6.31789 -0.1 8.66129V30.3968C-0.1 32.7402 0.723174 34.3425 1.94166 35.3571C3.15704 36.3691 4.75449 36.7871 6.29032 36.7871H18.1903V40.5935H16.2968C15.7071 40.5935 15.229 41.0716 15.229 41.6613C15.229 42.251 15.7071 42.729 16.2968 42.729H29.071C29.6606 42.729 30.1387 42.251 30.1387 41.6613C30.1387 41.0716 29.6606 40.5935 29.071 40.5935H26.8097V36.7871H38.7097C41.0531 36.7871 42.6554 35.9639 43.67 34.7454C44.682 33.5301 45.1 31.9326 45.1 30.3968V8.66129C45.1 6.31789 44.2768 4.71556 43.0583 3.70098C41.843 2.68898 40.2455 2.27097 38.7097 2.27097ZM24.6742 40.5935H20.3258V36.7871H24.6742V40.5935ZM42.9645 30.3968C42.9645 31.0424 42.8587 32.1082 42.2765 33.0099C41.6991 33.904 40.6436 34.6516 38.7097 34.6516H6.29032C5.64474 34.6516 4.5789 34.5458 3.67723 33.9636C2.78306 33.3862 2.03548 32.3307 2.03548 30.3968V29.1129H42.9645V30.3968ZM42.9645 26.9871H2.03548V8.7C2.03548 6.76609 2.78306 5.71062 3.67723 5.1332C4.5789 4.55095 5.64474 4.44516 6.29032 4.44516H38.7097C39.3553 4.44516 40.4211 4.55095 41.3228 5.1332C42.2169 5.71062 42.9645 6.76609 42.9645 8.7V26.9871Z" fill="#623B2A" stroke="#623B2A" stroke-width="0.2"/>
<path d="M36.7542 7.0702C36.7522 7.07282 36.7475 7.07896 36.7433 7.08752L36.6708 7.23228H36.6817M36.7542 7.0702C36.7544 7.06999 36.7545 7.0698 36.7546 7.06964L36.7537 7.07088C36.7539 7.07065 36.754 7.07042 36.7542 7.0702ZM36.7542 7.0702C37.1086 6.59938 37.7775 6.50461 38.2487 6.85867C38.72 7.21284 38.8151 7.88205 38.461 8.35345L38.4611 8.35333L38.3809 8.29357M38.3809 8.29357C38.702 7.86632 38.6159 7.25966 38.1886 6.93861C37.7966 6.64403 37.2535 6.69226 36.9186 7.03228H36.8811H36.8327V7.09619L36.8009 7.07249L36.7847 7.09419L36.7847 7.09427L36.7771 7.10445L36.6817 7.23228M38.3809 8.29357L30.3971 19.0065L38.4609 8.35365L38.3809 8.29357ZM36.6817 7.23228L29.6605 16.6441L26.3539 12.3455C26.3539 12.3455 26.3539 12.3455 26.3539 12.3455C26.1593 12.0923 25.8615 11.9395 25.5424 11.9291L25.542 11.9291C25.2242 11.92 24.9189 12.0532 24.7092 12.292L36.6817 7.23228ZM8.37308 23.7444L8.44967 23.8087C8.44966 23.8087 8.44965 23.8087 8.44965 23.8087C8.07047 24.2604 7.39701 24.3192 6.94536 23.94C6.49561 23.5625 6.43534 22.893 6.8093 22.4414L13.4826 11.6577C13.4827 11.6576 13.4828 11.6575 13.4828 11.6574C13.6777 11.3374 14.0262 11.1431 14.4009 11.1452L14.4013 11.1452C14.7745 11.1491 15.1186 11.3474 15.3089 11.6684L15.3092 11.6689L19.2844 18.4591L24.7091 12.2921L14.3399 14.1983L14.2828 14.1001L8.53578 23.4678M8.37308 23.7444C8.4424 23.6619 8.49732 23.5684 8.53578 23.4678M8.37308 23.7444C8.02941 24.1538 7.41901 24.2071 7.00965 23.8634C6.6003 23.5198 6.54695 22.9094 6.89062 22.5L8.37308 23.7444ZM8.53578 23.4678L8.62102 23.5201L8.62576 23.5123C8.62691 23.5094 8.62806 23.5064 8.62919 23.5035L8.53578 23.4678Z" fill="#623B2A" stroke="#623B2A" stroke-width="0.2"/>
</g>
<defs>
<clipPath id="clip0">
<rect width="45" height="45" fill="white"/>
</clipPath>
</defs>
</svg>
