<svg width="28" height="28" viewBox="0 0 28 28" fill="none" xmlns="http://www.w3.org/2000/svg">
<g clip-path="url(#clip0)">
<path d="M17.0763 6.18669V2.25158L22.0406 7.21586H18.1053C17.538 7.21586 17.0763 6.75409 17.0763 6.18669ZM24.2361 7.422L16.8702 0.0560277C16.7382 -0.0758981 16.5594 -0.15 16.3728 -0.15H5.99346C4.65012 -0.15 3.55752 0.942602 3.55752 2.28594V25.7141C3.55752 27.0574 4.65012 28.15 5.99346 28.15H22.0062C23.3495 28.15 24.4421 27.0574 24.4421 25.7141V7.91935C24.4421 7.73287 24.368 7.55389 24.2361 7.422ZM23.0353 25.7141C23.0353 26.2814 22.5736 26.7432 22.0062 26.7432H5.99346C5.42612 26.7432 4.96429 26.2814 4.96429 25.7141V2.28594C4.96429 1.7186 5.42612 1.25677 5.99346 1.25677H15.6694V6.1868C15.6694 7.53013 16.7619 8.62273 18.1053 8.62273H23.0353V25.7141Z" fill="white" stroke="white" stroke-width="0.3"/>
<path d="M18.4267 13.9054H9.57291C9.18448 13.9054 8.86953 14.2203 8.86953 14.6087C8.86953 14.9972 9.18448 15.3121 9.57291 15.3121H18.4267C18.8153 15.3121 19.1301 14.9972 19.1301 14.6087C19.1301 14.2203 18.8153 13.9054 18.4267 13.9054Z" fill="white" stroke="white" stroke-width="0.3"/>
<path d="M18.4267 16.377H9.57291C9.18448 16.377 8.86953 16.6919 8.86953 17.0804C8.86953 17.4688 9.18448 17.7837 9.57291 17.7837H18.4267C18.8153 17.7837 19.1301 17.4688 19.1301 17.0804C19.1301 16.6919 18.8153 16.377 18.4267 16.377Z" fill="white" stroke="white" stroke-width="0.3"/>
<path d="M18.4267 18.8486H9.57291C9.18448 18.8486 8.86953 19.1635 8.86953 19.552C8.86953 19.9404 9.18448 20.2554 9.57291 20.2554H18.4267C18.8153 20.2554 19.1301 19.9404 19.1301 19.552C19.1301 19.1636 18.8153 18.8486 18.4267 18.8486Z" fill="white" stroke="white" stroke-width="0.3"/>
<path d="M15.5492 21.3203H9.57291C9.18448 21.3203 8.86953 21.6353 8.86953 22.0237C8.86953 22.4122 9.18448 22.7271 9.57291 22.7271H15.5492C15.9378 22.7271 16.2526 22.4121 16.2526 22.0237C16.2526 21.6353 15.9378 21.3203 15.5492 21.3203Z" fill="white" stroke="white" stroke-width="0.3"/>
</g>
<defs>
<clipPath id="clip0">
<rect width="28" height="28" fill="white"/>
</clipPath>
</defs>
</svg>
