<svg width="50" height="50" viewBox="0 0 50 50" fill="none" xmlns="http://www.w3.org/2000/svg">
<g clip-path="url(#clip0)">
<path d="M47.6951 47.9469H45.6532V16.9468C45.6532 15.4441 44.4307 14.2217 42.928 14.2217H38.1405C36.6377 14.2217 35.4153 15.4442 35.4153 16.9468V47.9469H30.1767V31.0376C30.1767 29.5348 28.9543 28.3124 27.4515 28.3124H22.664C21.1612 28.3124 19.9388 29.5349 19.9388 31.0376V47.9469H14.7001V39.2379C14.7001 37.7351 13.4776 36.5127 11.9749 36.5127H7.1873C5.68452 36.5127 4.46211 37.7352 4.46211 39.2379V47.9469H2.30469C1.7101 47.9469 1.22812 48.4288 1.22812 49.0234C1.22812 49.618 1.7101 50.1 2.30469 50.1H47.6951C48.2897 50.1 48.7717 49.618 48.7717 49.0234C48.7717 48.4288 48.2897 47.9469 47.6951 47.9469ZM12.5468 47.9469H6.61514V39.2379C6.61514 38.9225 6.87183 38.6658 7.18721 38.6658H11.9747C12.2901 38.6658 12.5468 38.9225 12.5468 39.2379V47.9469ZM28.0234 47.9469H22.0918V31.0376C22.0918 30.7222 22.3485 30.4655 22.6639 30.4655H27.4514C27.7667 30.4655 28.0234 30.7222 28.0234 31.0376V47.9469ZM43.5001 47.9469H37.5685V16.9468C37.5685 16.6315 37.8251 16.3748 38.1405 16.3748H42.928C43.2434 16.3748 43.5001 16.6315 43.5001 16.9468V47.9469Z" fill="#623B2A" stroke="#623B2A" stroke-width="0.2"/>
<path d="M38.5708 2.05312H41.9775L32.5649 11.4658L28.995 7.89589C28.7931 7.69404 28.5193 7.58057 28.2338 7.58057C27.9483 7.58057 27.6744 7.69404 27.4725 7.89589L9.91696 25.4516C9.49656 25.872 9.49657 26.5536 9.91695 26.9741L9.917 26.9742C10.1272 27.1842 10.4029 27.2893 10.6782 27.2893C10.9535 27.2893 11.2293 27.1842 11.4394 26.9739C11.4394 26.9739 11.4394 26.9739 11.4395 26.9739L28.2338 10.1795L31.8037 13.7494C32.2241 14.1698 32.9058 14.1698 33.3262 13.7494L33.2555 13.6787L33.3263 13.7494L43.5001 3.57569V6.63604C43.5001 7.23062 43.9821 7.7126 44.5766 7.7126C45.1712 7.7126 45.6532 7.23062 45.6532 6.63604V1.07422C45.6532 1.06113 45.652 1.04231 45.6513 1.03101C45.6512 1.02937 45.6511 1.02791 45.651 1.02662C45.6645 0.735104 45.5611 0.438401 45.338 0.215226C45.1148 -0.00792695 44.8181 -0.11139 44.5266 -0.0977917C44.5253 -0.0978692 44.5239 -0.097961 44.5223 -0.0980624C44.511 -0.0987867 44.4922 -0.1 44.479 -0.1H38.5708C37.9762 -0.1 37.4942 0.381978 37.4942 0.976562C37.4942 1.57115 37.9762 2.05312 38.5708 2.05312Z" fill="#623B2A" stroke="#623B2A" stroke-width="0.2"/>
<path d="M7.38672 30.6967C7.98129 30.6967 8.46328 30.2147 8.46328 29.6201C8.46328 29.0255 7.98129 28.5436 7.38672 28.5436C6.79215 28.5436 6.31016 29.0255 6.31016 29.6201C6.31016 30.2147 6.79215 30.6967 7.38672 30.6967Z" fill="#623B2A" stroke="#623B2A" stroke-width="0.2"/>
</g>
<defs>
<clipPath id="clip0">
<rect width="50" height="50" fill="white"/>
</clipPath>
</defs>
</svg>
