<svg width="52" height="52" viewBox="0 0 52 52" fill="none" xmlns="http://www.w3.org/2000/svg">
<g clip-path="url(#clip0)">
<path d="M1.02172 51.9484C1.64123 51.9484 2.14344 51.4462 2.14344 50.8267C2.14344 50.2071 1.64123 49.7049 1.02172 49.7049C0.402211 49.7049 -0.1 50.2071 -0.1 50.8267C-0.1 51.4462 0.402212 51.9484 1.02172 51.9484Z" fill="#623B2A" stroke="#623B2A" stroke-width="0.2"/>
<path d="M27.1178 26.0337C27.7362 26.0337 28.2375 25.5324 28.2375 24.914C28.2375 24.2956 27.7362 23.7943 27.1178 23.7943C26.4994 23.7943 25.9981 24.2956 25.9981 24.914C25.9981 25.5324 26.4994 26.0337 27.1178 26.0337Z" fill="#623B2A" stroke="#623B2A" stroke-width="0.2"/>
<path d="M35.8458 16.6127L35.8458 16.6127C36.7036 17.4706 38.1 17.4706 38.9581 16.6127C38.9581 16.6127 38.9581 16.6127 38.9581 16.6127M35.8458 16.6127L39.0288 16.6834L38.9581 16.6127M35.8458 16.6127C34.9877 15.7547 34.9877 14.3584 35.8458 13.5003C36.2616 13.0845 36.8138 12.8557 37.4019 12.8557C37.9899 12.8557 38.5422 13.0845 38.958 13.5003C39.8161 14.3584 39.816 15.7547 38.9581 16.6127M35.8458 16.6127H38.9581M34.2624 11.917L34.2624 11.917C32.5312 13.6483 32.5312 16.465 34.2624 18.1962L34.2624 18.1962C35.1281 19.0619 36.265 19.4945 37.4019 19.4945C38.5384 19.4945 39.6758 19.0617 40.5414 18.1962L40.5414 18.1962C42.2726 16.4649 42.2726 13.6482 40.5414 11.917C39.7029 11.0784 38.5876 10.6166 37.4019 10.6166C36.2161 10.6166 35.1007 11.0786 34.2624 11.917Z" fill="#623B2A" stroke="#623B2A" stroke-width="0.2"/>
<path d="M12.7815 41.6986L12.7815 41.6986C13.335 41.9742 13.5603 42.6463 13.2846 43.1999L12.0701 45.6388C11.2051 47.3762 9.46531 48.5375 7.52905 48.67L6.11658 48.7667C6.05391 48.771 5.99118 48.7731 5.92891 48.7731C5.20372 48.7731 4.50541 48.4858 3.98914 47.9695C3.42839 47.4088 3.13789 46.6334 3.19207 45.8421L3.28876 44.4297L3.28876 44.4297C3.42138 42.4934 4.58273 40.7537 6.31994 39.8886L6.36451 39.9781L6.31994 39.8886L8.75886 38.6741L12.7815 41.6986ZM12.7815 41.6986C12.2279 41.4229 11.5559 41.6483 11.2802 42.2017L11.2802 42.2017L10.0657 44.6408L12.7815 41.6986Z" fill="#623B2A" stroke="#623B2A" stroke-width="0.2"/>
<path d="M51.3666 0.759585L51.3666 0.759607C51.8651 1.25104 52.1315 1.9336 52.097 2.63276L52.0727 3.129C51.6329 12.1117 47.3058 20.4257 40.2008 25.9391L37.8765 27.7428V33.2793C37.8765 37.9441 36.0599 42.33 32.7613 45.6285L26.7713 51.6186C26.5574 51.8326 26.271 51.9467 25.9794 51.9467C25.8443 51.9467 25.7084 51.9221 25.5779 51.872L25.5778 51.872C25.165 51.7132 24.8843 51.3262 24.8615 50.8843L24.9614 50.8792L24.8615 50.8843L24.2171 38.3427L23.6735 38.7646C23.4729 38.9203 23.2306 38.9997 22.9869 38.9997C22.8037 38.9997 22.6197 38.9547 22.452 38.8635C22.1694 38.7098 21.8909 38.5499 21.6157 38.3852C21.1394 38.7777 20.6328 39.2004 20.1369 39.6143L20.0728 39.5375L20.1369 39.6143L20.1086 39.6378C19.3952 40.2331 18.6589 40.8474 18.0189 41.3666L17.9559 41.2889L18.0189 41.3666C17.8155 41.5315 17.5654 41.6167 17.3133 41.6167C17.1508 41.6167 16.9871 41.5814 16.8345 41.5091C16.8345 41.5091 16.8345 41.5091 16.8345 41.5091L16.8773 41.4187C15.4556 40.7459 14.1828 39.8483 13.0942 38.7506C12.0315 37.6791 11.1597 36.4321 10.5029 35.0442L51.3666 0.759585ZM51.3666 0.759585C50.8679 0.268336 50.181 0.01136 49.4829 0.0567505L51.3666 0.759585ZM48.5399 0.217076L48.5335 0.117282L49.4828 0.0567589L48.5399 0.217076ZM48.5399 0.217076L48.5335 0.117282C39.9928 0.662521 32.0001 4.78497 26.6045 11.4279L24.4008 14.1408M48.5399 0.217076L24.4008 14.1408M14.836 32.2961L12.7597 34.7611C13.2642 35.6777 13.8857 36.5107 14.6131 37.2441C15.3648 38.0021 16.2229 38.6471 17.1705 39.1675C17.6469 38.7753 18.1561 38.3504 18.6553 37.934L18.7022 37.8949L18.7324 37.8697C19.0441 37.6096 19.36 37.346 19.6704 37.0882C18.7089 36.3765 17.8012 35.5928 16.9552 34.7415C16.955 34.7413 16.9548 34.7411 16.9546 34.7409C16.9545 34.7408 16.9544 34.7408 16.9544 34.7407L14.836 32.2961ZM14.836 32.2961C15.4839 33.1558 16.1902 33.9715 16.951 34.7374L16.9512 34.7376L16.952 34.7384L14.836 32.2961ZM24.5955 27.0987L24.6662 27.028C25.1034 27.4653 25.1034 28.1743 24.6662 28.6115L19.3487 33.929C20.4371 34.9169 21.6218 35.7921 22.8897 36.5384L38.8283 24.17C45.4164 19.0577 49.4286 11.3487 49.8364 3.01957L49.8608 2.52347C49.865 2.43753 49.8221 2.38157 49.795 2.35495C49.768 2.32836 49.711 2.28642 49.6255 2.29166L24.5955 27.0987ZM24.5955 27.0987L24.6662 27.028C24.2289 26.5907 23.52 26.5907 23.0827 27.028L17.7708 32.3399C16.8291 31.2873 15.9918 30.1463 15.2741 28.9291L28.3427 12.8397C33.3455 6.68032 40.7569 2.85762 48.6761 2.35219L49.6253 2.29167L24.5955 27.0987ZM24.4008 14.1408L18.6021 13.9705L24.4008 14.1408ZM6.21991 19.0852L6.29062 19.1559L18.5691 13.97C13.9045 13.97 9.51843 15.7868 6.21991 19.0852ZM35.6374 33.2793V33.335C35.623 37.3812 34.0409 41.1824 31.1781 44.0451L26.9688 48.2545L26.3734 36.6695L35.6374 29.4807V33.2793ZM15.1953 25.4741L3.59395 24.8781L7.80332 20.6687C10.6752 17.7968 14.4922 16.2136 18.553 16.2093L22.6235 16.3289L15.1953 25.4741ZM16.9458 34.7312L16.9459 34.7313L16.9458 34.7312Z" fill="#623B2A" stroke="#623B2A" stroke-width="0.2"/>
</g>
<defs>
<clipPath id="clip0">
<rect width="52" height="52" fill="white"/>
</clipPath>
</defs>
</svg>
